mtllib material.mtl
usemtl material_0
v 0.17331680 -0.01806807 -0.02019995
v 0.17331680 -0.01806807 -0.02019995
v 0.17331680 -0.01806807 -0.02019995
v 0.17317210 -0.01805776 -0.02019995
v 0.17317210 -0.01805776 -0.02019995
v 0.17331680 -0.01806807 -0.02039998
v 0.17331680 -0.01806807 -0.02039998
v 0.17331680 -0.01806807 -0.02039998
v 0.17317210 -0.01805776 -0.02039998
v 0.17317210 -0.01805776 -0.02039998
v 0.17317210 -0.01805776 -0.02039998
v 0.18509060 -0.01909810 -0.02039998
v 0.18509060 -0.01909810 -0.02039998
v 0.18509060 -0.01909810 -0.02039998
v 0.18509060 -0.01909810 -0.02019995
v 0.18509060 -0.01909810 -0.02019995
v 0.18509060 -0.01909810 -0.02019995
v 0.18945000 -0.01673918 -0.02039998
v 0.18945000 -0.01673918 -0.02039998
v 0.18945000 -0.01673918 -0.02039998
v 0.18945000 -0.01673918 -0.02019995
v 0.18945000 -0.01673918 -0.02019995
v 0.18945000 -0.01673918 -0.02019995
v 0.18945000 -0.01673918 -0.02019995
v 0.18834870 -0.01808464 -0.02019995
v 0.18834870 -0.01808464 -0.02019995
v 0.18834870 -0.01808464 -0.02019995
v 0.18834870 -0.01808464 -0.02039998
v 0.18834870 -0.01808464 -0.02039998
v 0.18681940 -0.01891213 -0.02019995
v 0.18681940 -0.01891213 -0.02019995
v 0.18681940 -0.01891213 -0.02039998
v 0.18681940 -0.01891213 -0.02039998
v 0.18681940 -0.01891213 -0.02039998
v 0.19620780 -0.00411671 -0.02039998
v 0.19620780 -0.00411671 -0.02039998
v 0.19620780 -0.00411671 -0.02019995
v 0.19620780 -0.00411671 -0.02019995
v 0.19620780 -0.00411671 -0.02019995
v 0.19461880 -0.00118035 -0.02039998
v 0.19461880 -0.00118035 -0.02039998
v 0.19461880 -0.00118035 -0.02039998
v 0.19461880 -0.00118035 -0.02019995
v 0.19461880 -0.00118035 -0.02019995
v 0.19461880 -0.00118035 -0.02019995
v 0.19461880 -0.00118035 -0.02019995
v 0.19461880 -0.00118035 -0.02019995
v 0.19554230 -0.00150096 -0.02019995
v 0.19554230 -0.00150096 -0.02019995
v 0.19554230 -0.00150096 -0.02019995
v 0.19554230 -0.00150096 -0.02019995
v 0.19554230 -0.00150096 -0.02039998
v 0.19554230 -0.00150096 -0.02039998
v 0.19554230 -0.00150096 -0.02039998
v 0.19620350 -0.00222093 -0.02019995
v 0.19620350 -0.00222093 -0.02019995
v 0.19620350 -0.00222093 -0.02019995
v 0.19620350 -0.00222093 -0.02039998
v 0.19620350 -0.00222093 -0.02039998
v 0.19620350 -0.00222093 -0.02039998
v 0.19620350 -0.00222093 -0.02039998
v 0.19644450 -0.00316828 -0.02019995
v 0.19644450 -0.00316828 -0.02019995
v 0.19644450 -0.00316828 -0.02019995
v 0.19644450 -0.00316828 -0.02019995
v 0.19644450 -0.00316828 -0.02019995
v 0.19644450 -0.00316828 -0.02019995
v 0.19644450 -0.00316828 -0.02039998
v 0.19644450 -0.00316828 -0.02039998
v 0.19644450 -0.00316828 -0.02039998
v 0.08317339 0.00856978 -0.02039998
v 0.08317339 0.00856978 -0.02039998
v 0.08317339 0.00856978 -0.02039998
v 0.08317339 0.00856978 -0.02039998
v 0.08317339 0.00856978 -0.02019995
v 0.08317339 0.00856978 -0.02019995
v 0.08317339 0.00856978 -0.02019995
v 0.08046501 0.00629717 -0.02039998
v 0.08046501 0.00629717 -0.02039998
v 0.08046501 0.00629717 -0.02019995
v 0.08046501 0.00629717 -0.02019995
v 0.08046501 0.00629717 -0.02019995
v 0.08073794 0.00723368 -0.02019995
v 0.08073794 0.00723368 -0.02019995
v 0.08073794 0.00723368 -0.02019995
v 0.08073794 0.00723368 -0.02039998
v 0.08073794 0.00723368 -0.02039998
v 0.08073794 0.00723368 -0.02039998
v 0.08134853 0.00799441 -0.02019995
v 0.08134853 0.00799441 -0.02019995
v 0.08134853 0.00799441 -0.02039998
v 0.08134853 0.00799441 -0.02039998
v 0.08134853 0.00799441 -0.02039998
v 0.08220374 0.00846362 -0.02019995
v 0.08220374 0.00846362 -0.02019995
v 0.08220374 0.00846362 -0.02019995
v 0.08220374 0.00846362 -0.02039998
v 0.08220374 0.00846362 -0.02039998
v 0.08220374 0.00846362 -0.02039998
v 0.07927274 -0.00733072 -0.02039998
v 0.07927274 -0.00733072 -0.02039998
v 0.07927274 -0.00733072 -0.02039998
v 0.07927274 -0.00733072 -0.02019995
v 0.07927274 -0.00733072 -0.02019995
v 0.07927274 -0.00733072 -0.02019995
v 0.07927274 -0.00733072 -0.02019995
v 0.08154529 -0.01003909 -0.02039998
v 0.08154529 -0.01003909 -0.02039998
v 0.08154529 -0.01003909 -0.02039998
v 0.08154529 -0.01003909 -0.02019995
v 0.08154529 -0.01003909 -0.02019995
v 0.08154529 -0.01003909 -0.02019995
v 0.08154529 -0.01003909 -0.02019995
v 0.08060884 -0.00976610 -0.02019995
v 0.08060884 -0.00976610 -0.02019995
v 0.08060884 -0.00976610 -0.02019995
v 0.08060884 -0.00976610 -0.02039998
v 0.08060884 -0.00976610 -0.02039998
v 0.07984811 -0.00915557 -0.02019995
v 0.07984811 -0.00915557 -0.02019995
v 0.07984811 -0.00915557 -0.02039998
v 0.07984811 -0.00915557 -0.02039998
v 0.07937890 -0.00830036 -0.02019995
v 0.07937890 -0.00830036 -0.02019995
v 0.07937890 -0.00830036 -0.02019995
v 0.07937890 -0.00830036 -0.02019995
v 0.07937890 -0.00830036 -0.02019995
v 0.07937890 -0.00830036 -0.02039998
v 0.07937890 -0.00830036 -0.02039998
v 0.07937890 -0.00830036 -0.02039998
v 0.09168463 -0.01092612 -0.02039998
v 0.09168463 -0.01092612 -0.02039998
v 0.09168463 -0.01092612 -0.02039998
v 0.09168463 -0.01092612 -0.02039998
v 0.09168463 -0.01092612 -0.02019995
v 0.09168463 -0.01092612 -0.02019995
v 0.09168463 -0.01092612 -0.02019995
v 0.09168463 -0.01092612 -0.02019995
v 0.09168463 -0.01092612 -0.02019995
v 0.09178078 -0.01093691 -0.02019995
v 0.09178078 -0.01093691 -0.02019995
v 0.09178078 -0.01093691 -0.02019995
v 0.09178078 -0.01093691 -0.02039998
v 0.09178078 -0.01093691 -0.02039998
v 0.09178078 -0.01093691 -0.02039998
vn -0.08178000 -0.99665000 0.00000000
vn 0.00000000 0.00000000 1.00000000
vn 0.00000000 0.00000000 1.00000000
vn -0.07643000 -0.99707000 0.00000000
vn 0.00000000 0.00000000 1.00000000
vn 0.00000000 0.00000000 -1.00000000
vn -0.00000000 0.00000000 -1.00000000
vn -0.07645000 -0.99707000 0.00000000
vn 0.00000000 0.00000000 -1.00000000
vn -0.08180000 -0.99665000 0.00000000
vn -0.00000000 0.00000000 -1.00000000
vn -0.02256000 -0.99975000 0.00001000
vn 0.00000000 0.00000000 -1.00000000
vn -0.00000000 0.00000000 -1.00000000
vn 0.04243000 -0.99910000 -0.00000000
vn 0.00000000 0.00000000 1.00000000
vn -0.00000000 0.00000000 1.00000000
vn 0.00000000 0.00000000 -1.00000000
vn -0.00000000 0.00000000 -1.00000000
vn 0.81315000 -0.58206000 0.00000000
vn -0.00000000 0.00000000 1.00000000
vn 0.84924000 -0.52800000 0.00000000
vn 0.00000000 0.00000000 1.00000000
vn 0.00000000 0.00000000 1.00000000
vn 0.00000000 0.00000000 1.00000000
vn -0.00000000 0.00000000 1.00000000
vn 0.68597000 -0.72763000 -0.00003000
vn 0.58500000 -0.81103000 0.00000000
vn 0.00000000 0.00000000 -1.00000000
vn 0.35891000 -0.93337000 -0.00002000
vn 0.00000000 0.00000000 1.00000000
vn -0.00000000 0.00000000 -1.00000000
vn 0.00000000 0.00000000 -1.00000000
vn 0.23386000 -0.97227000 0.00000000
vn 0.00000000 0.00000000 -1.00000000
vn 0.91736000 -0.39807000 0.00002000
vn 0.00000000 0.00000000 1.00000000
vn -0.00000000 0.00000000 1.00000000
vn 0.94708000 -0.32100000 0.00000000
vn -0.00000000 0.00000000 -1.00000000
vn 0.00000000 0.00000000 -1.00000000
vn 0.24935000 0.96841000 0.00000000
vn -0.00000000 0.00000000 1.00000000
vn -0.00000000 0.00000000 1.00000000
vn 0.16858000 0.98569000 0.00000000
vn 0.00000000 0.00000000 1.00000000
vn 0.00000000 0.00000000 1.00000000
vn 0.32797000 0.94469000 0.00000000
vn 0.73652000 0.67642000 0.00000000
vn 0.00000000 0.00000000 1.00000000
vn -0.00000000 0.00000000 1.00000000
vn 0.00000000 0.00000000 -1.00000000
vn 0.32797000 0.94469000 0.00000000
vn 0.73652000 0.67642000 0.00000000
vn 0.73652000 0.67642000 0.00000000
vn 0.96913000 0.24655000 0.00000000
vn 0.00000000 0.00000000 1.00000000
vn 0.00000000 0.00000000 -1.00000000
vn 0.73652000 0.67642000 0.00000000
vn 0.96913000 0.24655000 0.00000000
vn 0.96914000 0.24652000 0.00000000
vn -0.00000000 0.00000000 1.00000000
vn -0.00000000 0.00000000 1.00000000
vn 0.96913000 0.24655000 0.00000000
vn 0.96914000 0.24652000 0.00000000
vn 0.97022000 -0.24223000 0.00000000
vn 0.00000000 0.00000000 1.00000000
vn 0.96914000 0.24652000 0.00000000
vn 0.97022000 -0.24223000 0.00000000
vn 0.00000000 0.00000000 -1.00000000
vn 0.00000000 0.00000000 -1.00000000
vn 0.00000000 0.00000000 -1.00000000
vn 0.00000000 0.00000000 -1.00000000
vn 0.02192000 0.99976000 0.00000000
vn -0.00001000 0.00000000 1.00000000
vn 0.00000000 0.00000000 1.00000000
vn -0.04370000 0.99904000 -0.00000000
vn 0.00000000 0.00000000 -1.00000000
vn -0.97628000 0.21653000 0.00000000
vn 0.00000000 0.00000000 1.00000000
vn -0.98838000 0.15203000 0.00000000
vn -0.00000000 0.00000000 1.00000000
vn -0.96005000 0.27983000 0.00000000
vn 0.00000000 0.00000000 1.00000000
vn -0.77988000 0.62593000 0.00000000
vn 0.00000000 0.00000000 -1.00000000
vn -0.96005000 0.27983000 0.00000000
vn -0.77988000 0.62593000 0.00000000
vn 0.00000000 0.00000000 1.00000000
vn -0.69205000 0.72185000 0.00000000
vn 0.00000000 0.00000000 -1.00000000
vn -0.59073000 0.80687000 0.00003000
vn 0.00000000 0.00000000 -1.00000000
vn 0.00000000 0.00000000 1.00000000
vn -0.48100000 0.87672000 0.00000000
vn -0.10886000 0.99406000 0.00000000
vn 0.00000000 0.00000000 -1.00000000
vn -0.10886000 0.99406000 0.00000000
vn -0.48100000 0.87672000 0.00000000
vn 0.00000000 0.00000000 -1.00000000
vn -0.99976000 0.02190000 0.00001000
vn 0.00000000 0.00000000 -1.00000000
vn -0.00000000 0.00000000 1.00000000
vn 0.00000000 0.00000000 1.00000000
vn -0.00000000 0.00000000 1.00000000
vn -0.99904000 -0.04371000 0.00000000
vn 0.00000000 0.00000000 -1.00000000
vn -0.21652000 -0.97628000 0.00001000
vn 0.00000000 0.00000000 -1.00000000
vn -0.00000000 0.00000000 1.00000000
vn 0.00000000 0.00000000 1.00000000
vn -0.00000000 0.00000000 1.00000000
vn -0.15203000 -0.98838000 0.00000000
vn 0.00001000 0.00000000 1.00000000
vn -0.40208000 -0.91560000 -0.00003000
vn -0.00000000 0.00000000 1.00000000
vn 0.00000000 0.00000000 -1.00000000
vn -0.51940000 -0.85453000 0.00000000
vn 0.00001000 0.00000000 1.00000000
vn -0.72186000 -0.69204000 -0.00003000
vn -0.80687000 -0.59072000 0.00000000
vn 0.00000000 0.00000000 -1.00000000
vn -0.00000000 0.00000000 1.00000000
vn 0.00001000 0.00000000 1.00000000
vn -0.99406000 -0.10885000 0.00000000
vn -0.87672000 -0.48100000 0.00000000
vn -0.00000000 0.00000000 1.00000000
vn 0.00000000 0.00000000 -1.00000000
vn -0.99406000 -0.10885000 0.00000000
vn -0.87672000 -0.48100000 0.00000000
vn 0.00000000 0.00000000 -1.00000000
vn 0.00000000 0.00000000 -1.00000000
vn -0.09521000 -0.99546000 0.00000000
vn 0.00000000 0.00000000 -1.00000000
vn 0.00000000 0.00000000 1.00000000
vn 0.00000000 0.00000000 1.00000000
vn -0.00000000 0.00000000 1.00000000
vn -0.00001000 0.00000000 1.00000000
vn -0.10318000 -0.99466000 0.00000000
vn 0.00000000 0.00000000 1.00000000
vn -0.00001000 0.00000000 1.00000000
vn -0.09521000 -0.99546000 -0.00000000
vn 0.00000000 0.00000000 -1.00000000
vn 0.00000000 0.00000000 -1.00000000
vn -0.10317000 -0.99466000 0.00000000
f 1//1 4//4 8//8
f 8//8 4//4 10//10
f 8//8 12//12 1//1
f 1//1 12//12 15//15
f 20//20 22//22 27//27
f 20//20 27//27 28//28
f 28//28 27//27 30//30
f 28//28 30//30 34//34
f 34//34 30//30 15//15
f 34//34 15//15 12//12
f 20//20 36//36 22//22
f 22//22 36//36 39//39
f 42//42 45//45 48//48
f 42//42 48//48 53//53
f 54//54 49//49 55//55
f 54//54 55//55 59//59
f 60//60 56//56 64//64
f 61//61 65//65 68//68
f 69//69 66//66 39//39
f 69//69 39//39 36//36
f 42//42 74//74 45//45
f 45//45 74//74 77//77
f 79//79 81//81 83//83
f 79//79 83//83 87//87
f 88//88 85//85 90//90
f 88//88 90//90 92//92
f 92//92 90//90 95//95
f 92//92 95//95 99//99
f 98//98 96//96 77//77
f 98//98 77//77 74//74
f 79//79 101//101 81//81
f 81//81 101//101 106//106
f 108//108 113//113 115//115
f 108//108 115//115 118//118
f 118//118 115//115 120//120
f 118//118 120//120 121//121
f 121//121 120//120 126//126
f 121//121 126//126 130//130
f 129//129 125//125 106//106
f 129//129 106//106 101//101
f 108//108 133//133 113//113
f 113//113 133//133 139//139
f 142//142 139//139 145//145
f 145//145 139//139 133//133
f 145//145 10//10 142//142
f 142//142 10//10 4//4
f 40//40 7//7 11//11
f 107//107 117//117 122//122
f 29//29 33//33 18//18
f 19//19 32//32 14//14
f 18//18 13//13 35//35
f 41//41 9//9 71//71
f 71//71 9//9 143//143
f 72//72 144//144 132//132
f 78//78 131//131 100//100
f 102//102 134//134 109//109
f 100//100 107//107 128//128
f 128//128 107//107 122//122
f 97//97 73//73 93//93
f 91//91 71//71 131//131
f 91//91 131//131 86//86
f 86//86 131//131 78//78
f 58//58 70//70 52//52
f 52//52 70//70 35//35
f 52//52 35//35 41//41
f 41//41 35//35 13//13
f 41//41 13//13 6//6
f 94//94 89//89 136//136
f 119//119 114//114 124//124
f 127//127 116//116 110//110
f 123//123 112//112 105//105
f 104//104 111//111 135//135
f 103//103 137//137 82//82
f 80//80 136//136 89//89
f 80//80 89//89 84//84
f 94//94 136//136 76//76
f 75//75 138//138 141//141
f 76//76 140//140 46//46
f 31//31 25//25 16//16
f 17//17 26//26 21//21
f 16//16 23//23 2//2
f 3//3 24//24 47//47
f 2//2 46//46 5//5
f 5//5 46//46 140//140
f 57//57 50//50 67//67
f 63//63 51//51 44//44
f 62//62 43//43 38//38
f 37//37 46//46 23//23

