mtllib material.mtl
usemtl material_0
v -0.09947913 0.03821420 0.01897841
v -0.09947913 0.03821420 0.01897841
v -0.09945708 0.03826290 0.01897937
v -0.09945708 0.03826290 0.01897937
v -0.09945708 0.03826290 0.01897937
v -0.10078720 0.03869682 0.01886856
v -0.10078720 0.03869682 0.01886856
v -0.10078720 0.03869682 0.01886856
v -0.10078720 0.03869682 0.01886856
v -0.10078720 0.03869682 0.01886856
v -0.09956234 0.04260021 0.01890635
v -0.09956234 0.04260021 0.01890635
v -0.09965968 0.04228895 0.01890337
v -0.09965968 0.04228895 0.01890337
v -0.09965968 0.04228895 0.01890337
v -0.09965968 0.04228895 0.01890337
v -0.09965968 0.04228895 0.01890337
v -0.09918045 0.04268765 0.01893496
v -0.09918045 0.04268765 0.01893496
v -0.09918045 0.04268765 0.01893496
v -0.09918045 0.04268765 0.01893496
v -0.09918045 0.04268765 0.01893496
v -0.10081910 0.03859102 0.01886767
v -0.10081910 0.03859102 0.01886767
v -0.10085770 0.03848743 0.01886618
v -0.10085770 0.03848743 0.01886618
v -0.09957116 0.03815031 0.01897209
v -0.09957116 0.03815031 0.01897209
v -0.09957116 0.03815031 0.01897209
v -0.09957116 0.03815031 0.01897209
v -0.09957116 0.03815031 0.01897209
v -0.10086250 0.03845757 0.01886624
v -0.10086250 0.03845757 0.01886624
v -0.10086250 0.03845757 0.01886624
v -0.10086250 0.03845757 0.01886624
v -0.10020570 0.03826808 0.01892060
v -0.10020570 0.03826808 0.01892060
v -0.10069140 0.03900015 0.01887154
v -0.10069140 0.03900015 0.01887154
v -0.10069140 0.03900015 0.01887154
v -0.10069140 0.03900015 0.01887154
v -0.10084030 0.03838497 0.01886910
v -0.10084030 0.03838497 0.01886910
v -0.10084030 0.03838497 0.01886910
v -0.10086910 0.03842830 0.01886618
v -0.10086910 0.03842830 0.01886618
v -0.10086910 0.03842830 0.01886618
v -0.10086910 0.03842830 0.01886618
v -0.10086910 0.03842830 0.01886618
v -0.10085110 0.03838735 0.01886820
v -0.10085110 0.03838735 0.01886820
v -0.09938287 0.03849911 0.01898169
v -0.09938287 0.03849911 0.01898169
v -0.09930795 0.03873521 0.01898401
v -0.09930795 0.03873521 0.01898401
v -0.09930795 0.03873521 0.01898401
v -0.10059670 0.03930383 0.01887446
v -0.10059670 0.03930383 0.01887446
v -0.10059670 0.03930383 0.01887446
v -0.09921056 0.03904646 0.01898699
v -0.09921056 0.03904646 0.01898699
v -0.09921056 0.03904646 0.01898699
v -0.10038450 0.03997999 0.01888096
v -0.10038450 0.03997999 0.01888096
v -0.10038450 0.03997999 0.01888096
v -0.10038450 0.03997999 0.01888096
v -0.09896117 0.04264688 0.01895278
v -0.09896117 0.04264688 0.01895278
v -0.09896117 0.04264688 0.01895278
v -0.09896117 0.04264688 0.01895278
v -0.09950596 0.03818309 0.01897674
v -0.09950596 0.03818309 0.01897674
v -0.09816771 0.04236966 0.01901918
v -0.09816771 0.04236966 0.01901918
v -0.09816771 0.04236966 0.01901918
v -0.09816771 0.04236966 0.01901918
v -0.09815686 0.04244130 0.01901894
v -0.09816652 0.04247111 0.01901775
v -0.09816652 0.04247111 0.01901775
v -0.10087270 0.03840833 0.01886618
v -0.10087030 0.03839939 0.01886647
v -0.10087030 0.03839939 0.01886647
v -0.10086610 0.03839433 0.01886689
v -0.10086610 0.03839433 0.01886689
v -0.09819126 0.04249441 0.01901543
v -0.09819126 0.04249441 0.01901543
v -0.09825783 0.04251629 0.01900988
v -0.09825783 0.04251629 0.01900988
v -0.09825783 0.04251629 0.01900988
v -0.09826135 0.04206991 0.01901632
v -0.09826135 0.04206991 0.01901632
v -0.09826135 0.04206991 0.01901632
v -0.09835588 0.04177039 0.01901334
v -0.09835588 0.04177039 0.01901334
v -0.09835588 0.04177039 0.01901334
v -0.09846168 0.04143220 0.01901012
v -0.09846168 0.04143220 0.01901012
v -0.09846168 0.04143220 0.01901012
v -0.09975713 0.04197770 0.01890033
v -0.09975713 0.04197770 0.01890033
v -0.09975713 0.04197770 0.01890033
v -0.09856748 0.04109400 0.01900684
v -0.09856748 0.04109400 0.01900684
v -0.09856748 0.04109400 0.01900684
v -0.09984976 0.04168391 0.01889747
v -0.09984976 0.04168391 0.01889747
v -0.09984976 0.04168391 0.01889747
v -0.09865099 0.04082906 0.01900428
v -0.09865099 0.04082906 0.01900428
v -0.09865099 0.04082906 0.01900428
v -0.09994232 0.04139006 0.01889461
v -0.09994232 0.04139006 0.01889461
v -0.09994232 0.04139006 0.01889461
v -0.09873449 0.04056406 0.01900166
v -0.09873449 0.04056406 0.01900166
v -0.09873449 0.04056406 0.01900166
v -0.10004800 0.04105186 0.01889139
v -0.10004800 0.04105186 0.01889139
v -0.10004800 0.04105186 0.01889139
v -0.09884101 0.04022395 0.01899844
v -0.09884101 0.04022395 0.01899844
v -0.09884101 0.04022395 0.01899844
v -0.10015380 0.04071366 0.01888811
v -0.10015380 0.04071366 0.01888811
v -0.10015380 0.04071366 0.01888811
v -0.09894746 0.03988391 0.01899516
v -0.09894746 0.03988391 0.01899516
v -0.09894746 0.03988391 0.01899516
v -0.10026910 0.04034680 0.01888453
v -0.10026910 0.04034680 0.01888453
v -0.10026910 0.04034680 0.01888453
v -0.09903031 0.03962081 0.01899260
v -0.09903031 0.03962081 0.01899260
v -0.09903031 0.03962081 0.01899260
v -0.09911316 0.03935772 0.01898998
v -0.09911316 0.03935772 0.01898998
v -0.09947419 0.04272454 0.01891136
v -0.09951466 0.04269760 0.01890861
v -0.09951466 0.04269760 0.01890861
v -0.09939980 0.04272800 0.01891714
v -0.09939980 0.04272800 0.01891714
v -0.09939980 0.04272800 0.01891714
v -0.09954470 0.04264950 0.01890695
v -0.09954470 0.04264950 0.01890695
v -0.09954470 0.04264950 0.01890695
v -0.09955412 0.04262506 0.01890659
v -0.09955412 0.04262506 0.01890659
vn -0.07816000 0.01488000 0.99683000
vn -0.07817000 0.01488000 0.99683000
vn -0.07816000 0.01488000 0.99683000
vn -0.07819000 0.01490000 0.99683000
vn -0.07819000 0.01489000 0.99683000
vn -0.07816000 0.01488000 0.99683000
vn -0.07817000 0.01488000 0.99683000
vn -0.07819000 0.01488000 0.99683000
vn -0.07820000 0.01488000 0.99683000
vn -0.07819000 0.01489000 0.99683000
vn -0.07819000 0.01489000 0.99683000
vn -0.07815000 0.01486000 0.99683000
vn -0.07819000 0.01489000 0.99683000
vn -0.07820000 0.01489000 0.99683000
vn -0.07820000 0.01489000 0.99683000
vn -0.07818000 0.01490000 0.99683000
vn -0.07819000 0.01489000 0.99683000
vn -0.07820000 0.01487000 0.99683000
vn -0.07821000 0.01486000 0.99683000
vn -0.07815000 0.01486000 0.99683000
vn -0.07819000 0.01489000 0.99683000
vn -0.07820000 0.01489000 0.99683000
vn -0.07819000 0.01489000 0.99683000
vn -0.07820000 0.01488000 0.99683000
vn -0.07819000 0.01489000 0.99683000
vn -0.07821000 0.01491000 0.99683000
vn -0.07819000 0.01489000 0.99683000
vn -0.07819000 0.01488000 0.99683000
vn -0.07819000 0.01489000 0.99683000
vn -0.07820000 0.01488000 0.99683000
vn -0.07821000 0.01491000 0.99683000
vn -0.07819000 0.01489000 0.99683000
vn -0.07815000 0.01502000 0.99683000
vn -0.07818000 0.01492000 0.99683000
vn -0.07821000 0.01491000 0.99683000
vn -0.07818000 0.01492000 0.99683000
vn -0.07819000 0.01489000 0.99683000
vn -0.07819000 0.01489000 0.99683000
vn -0.07819000 0.01490000 0.99683000
vn -0.07819000 0.01488000 0.99683000
vn -0.07819000 0.01490000 0.99683000
vn -0.07815000 0.01502000 0.99683000
vn -0.07833000 0.01456000 0.99682000
vn -0.07818000 0.01492000 0.99683000
vn -0.07831000 0.01481000 0.99682000
vn -0.07815000 0.01502000 0.99683000
vn -0.07824000 0.01484000 0.99682000
vn -0.07865000 0.01484000 0.99679000
vn -0.07833000 0.01456000 0.99682000
vn -0.07831000 0.01481000 0.99682000
vn -0.07833000 0.01456000 0.99682000
vn -0.07819000 0.01488000 0.99683000
vn -0.07819000 0.01490000 0.99683000
vn -0.07819000 0.01490000 0.99683000
vn -0.07819000 0.01490000 0.99683000
vn -0.07819000 0.01488000 0.99683000
vn -0.07819000 0.01490000 0.99683000
vn -0.07819000 0.01490000 0.99683000
vn -0.07819000 0.01489000 0.99683000
vn -0.07818000 0.01489000 0.99683000
vn -0.07819000 0.01489000 0.99683000
vn -0.07819000 0.01490000 0.99683000
vn -0.07818000 0.01489000 0.99683000
vn -0.07819000 0.01489000 0.99683000
vn -0.07819000 0.01490000 0.99683000
vn -0.07819000 0.01489000 0.99683000
vn -0.07819000 0.01489000 0.99683000
vn -0.07820000 0.01489000 0.99683000
vn -0.07817000 0.01489000 0.99683000
vn -0.07818000 0.01490000 0.99683000
vn -0.07819000 0.01488000 0.99683000
vn -0.07817000 0.01488000 0.99683000
vn -0.07823000 0.01489000 0.99682000
vn -0.07821000 0.01490000 0.99683000
vn -0.07824000 0.01485000 0.99682000
vn -0.07799000 0.01487000 0.99684000
vn -0.07799000 0.01487000 0.99684000
vn -0.07824000 0.01485000 0.99682000
vn -0.07799000 0.01487000 0.99684000
vn -0.07865000 0.01484000 0.99679000
vn -0.07838000 0.01485000 0.99681000
vn -0.07832000 0.01485000 0.99682000
vn -0.07831000 0.01481000 0.99682000
vn -0.07819000 0.01483000 0.99683000
vn -0.07824000 0.01485000 0.99682000
vn -0.07823000 0.01489000 0.99682000
vn -0.07821000 0.01490000 0.99683000
vn -0.07818000 0.01490000 0.99683000
vn -0.07823000 0.01489000 0.99682000
vn -0.07817000 0.01489000 0.99683000
vn -0.07818000 0.01490000 0.99683000
vn -0.07821000 0.01490000 0.99683000
vn -0.07820000 0.01489000 0.99683000
vn -0.07819000 0.01489000 0.99683000
vn -0.07817000 0.01489000 0.99683000
vn -0.07818000 0.01490000 0.99683000
vn -0.07818000 0.01489000 0.99683000
vn -0.07820000 0.01489000 0.99683000
vn -0.07818000 0.01490000 0.99683000
vn -0.07819000 0.01490000 0.99683000
vn -0.07818000 0.01489000 0.99683000
vn -0.07819000 0.01489000 0.99683000
vn -0.07818000 0.01489000 0.99683000
vn -0.07819000 0.01490000 0.99683000
vn -0.07819000 0.01490000 0.99683000
vn -0.07819000 0.01489000 0.99683000
vn -0.07819000 0.01489000 0.99683000
vn -0.07819000 0.01489000 0.99683000
vn -0.07819000 0.01489000 0.99683000
vn -0.07818000 0.01489000 0.99683000
vn -0.07819000 0.01489000 0.99683000
vn -0.07818000 0.01489000 0.99683000
vn -0.07819000 0.01489000 0.99683000
vn -0.07819000 0.01489000 0.99683000
vn -0.07819000 0.01489000 0.99683000
vn -0.07818000 0.01489000 0.99683000
vn -0.07818000 0.01489000 0.99683000
vn -0.07819000 0.01489000 0.99683000
vn -0.07819000 0.01489000 0.99683000
vn -0.07818000 0.01489000 0.99683000
vn -0.07818000 0.01489000 0.99683000
vn -0.07819000 0.01489000 0.99683000
vn -0.07818000 0.01489000 0.99683000
vn -0.07818000 0.01489000 0.99683000
vn -0.07818000 0.01489000 0.99683000
vn -0.07818000 0.01489000 0.99683000
vn -0.07818000 0.01489000 0.99683000
vn -0.07818000 0.01489000 0.99683000
vn -0.07819000 0.01489000 0.99683000
vn -0.07818000 0.01489000 0.99683000
vn -0.07818000 0.01489000 0.99683000
vn -0.07819000 0.01490000 0.99683000
vn -0.07818000 0.01489000 0.99683000
vn -0.07819000 0.01489000 0.99683000
vn -0.07819000 0.01490000 0.99683000
vn -0.07818000 0.01489000 0.99683000
vn -0.07817000 0.01487000 0.99683000
vn -0.07817000 0.01487000 0.99683000
vn -0.07819000 0.01491000 0.99683000
vn -0.07819000 0.01491000 0.99683000
vn -0.07817000 0.01487000 0.99683000
vn -0.07820000 0.01487000 0.99683000
vn -0.07820000 0.01487000 0.99683000
vn -0.07819000 0.01491000 0.99683000
vn -0.07821000 0.01486000 0.99683000
vn -0.07821000 0.01486000 0.99683000
vn -0.07815000 0.01486000 0.99683000
f 1//1 3//3 6//6
f 11//11 17//17 21//21
f 23//23 25//25 29//29
f 31//31 26//26 35//35
f 27//27 32//32 37//37
f 10//10 5//5 38//38
f 36//36 34//34 44//44
f 42//42 33//33 46//46
f 43//43 49//49 51//51
f 4//4 53//53 41//41
f 40//40 52//52 56//56
f 39//39 54//54 58//58
f 57//57 55//55 62//62
f 59//59 61//61 64//64
f 22//22 15//15 68//68
f 24//24 30//30 9//9
f 8//8 28//28 71//71
f 7//7 72//72 2//2
f 76//76 77//77 79//79
f 80//80 82//82 48//48
f 47//47 81//81 84//84
f 45//45 83//83 50//50
f 78//78 85//85 75//75
f 73//73 86//86 89//89
f 74//74 87//87 92//92
f 91//91 88//88 70//70
f 90//90 69//69 95//95
f 94//94 67//67 13//13
f 93//93 14//14 98//98
f 96//96 16//16 99//99
f 97//97 101//101 103//103
f 104//104 100//100 105//105
f 102//102 106//106 108//108
f 109//109 107//107 113//113
f 110//110 112//112 116//116
f 115//115 111//111 118//118
f 114//114 119//119 122//122
f 120//120 117//117 123//123
f 121//121 124//124 126//126
f 127//127 125//125 131//131
f 128//128 130//130 133//133
f 134//134 129//129 66//66
f 132//132 65//65 135//135
f 136//136 63//63 60//60
f 137//137 138//138 141//141
f 140//140 139//139 144//144
f 142//142 143//143 18//18
f 19//19 145//145 146//146
f 20//20 147//147 12//12

