mtllib material.mtl
usemtl material_0
v -0.09021520 0.03645700 -0.01973128
v -0.09021520 0.03645700 -0.01973128
v -0.09021788 0.03651040 -0.01973026
v -0.09021788 0.03651040 -0.01973026
v -0.09021788 0.03651040 -0.01973026
v -0.08882129 0.03642708 -0.01984107
v -0.08882129 0.03642708 -0.01984107
v -0.08882129 0.03642708 -0.01984107
v -0.08882129 0.03642708 -0.01984107
v -0.08882129 0.03642708 -0.01984107
v -0.08883029 0.03631699 -0.01984196
v -0.08883029 0.03631699 -0.01984196
v -0.08883237 0.03620648 -0.01984345
v -0.08883237 0.03620648 -0.01984345
v -0.09015297 0.03636384 -0.01973754
v -0.09015297 0.03636384 -0.01973754
v -0.09015297 0.03636384 -0.01973754
v -0.09015297 0.03636384 -0.01973754
v -0.09015297 0.03636384 -0.01973754
v -0.08883881 0.03617691 -0.01984339
v -0.08883881 0.03617691 -0.01984339
v -0.08883881 0.03617691 -0.01984339
v -0.08883881 0.03617691 -0.01984339
v -0.08951944 0.03624111 -0.01978909
v -0.08951944 0.03624111 -0.01978909
v -0.08879923 0.03674441 -0.01983803
v -0.08879923 0.03674441 -0.01983803
v -0.08879923 0.03674441 -0.01983803
v -0.08879923 0.03674441 -0.01983803
v -0.08888608 0.03611743 -0.01984059
v -0.08888608 0.03611743 -0.01984059
v -0.08888608 0.03611743 -0.01984059
v -0.08884334 0.03614723 -0.01984351
v -0.08884334 0.03614723 -0.01984351
v -0.08884334 0.03614723 -0.01984351
v -0.08884334 0.03614723 -0.01984351
v -0.08884334 0.03614723 -0.01984351
v -0.08887505 0.03611576 -0.01984149
v -0.08887505 0.03611576 -0.01984149
v -0.09020161 0.03641825 -0.01973289
v -0.09020161 0.03641825 -0.01973289
v -0.08884733 0.03612732 -0.01984351
v -0.08885282 0.03611987 -0.01984316
v -0.08885282 0.03611987 -0.01984316
v -0.08885866 0.03611671 -0.01984274
v -0.08885866 0.03611671 -0.01984274
v -0.08991384 0.04080402 -0.01968997
v -0.08991384 0.04080402 -0.01968997
v -0.08991384 0.04080402 -0.01968997
v -0.08991384 0.04080402 -0.01968997
v -0.08989763 0.04087466 -0.01969015
v -0.08987772 0.04089891 -0.01969140
v -0.08987772 0.04089891 -0.01969140
v -0.08995813 0.04017746 -0.01969587
v -0.08995813 0.04017746 -0.01969587
v -0.08995813 0.04017746 -0.01969587
v -0.08995813 0.04017746 -0.01969587
v -0.08855503 0.04018259 -0.01980584
v -0.08855503 0.04018259 -0.01980584
v -0.08855503 0.04018259 -0.01980584
v -0.08855503 0.04018259 -0.01980584
v -0.08855503 0.04018259 -0.01980584
v -0.08998358 0.03982406 -0.01969915
v -0.08998358 0.03982406 -0.01969915
v -0.08998358 0.03982406 -0.01969915
v -0.08857834 0.03985726 -0.01980888
v -0.08857834 0.03985726 -0.01980888
v -0.08857834 0.03985726 -0.01980888
v -0.09000897 0.03947061 -0.01970243
v -0.09000897 0.03947061 -0.01970243
v -0.09000897 0.03947061 -0.01970243
v -0.08859974 0.03954994 -0.01981174
v -0.08859974 0.03954994 -0.01981174
v -0.08859974 0.03954994 -0.01981174
v -0.09002828 0.03919345 -0.01970505
v -0.09002828 0.03919345 -0.01970505
v -0.09002828 0.03919345 -0.01970505
v -0.08862119 0.03924262 -0.01981467
v -0.08862119 0.03924262 -0.01981467
v -0.08862119 0.03924262 -0.01981467
v -0.09004759 0.03891628 -0.01970767
v -0.09004759 0.03891628 -0.01970767
v -0.09004759 0.03891628 -0.01970767
v -0.08864665 0.03888922 -0.01981794
v -0.08864665 0.03888922 -0.01981794
v -0.08864665 0.03888922 -0.01981794
v -0.09007304 0.03856086 -0.01971101
v -0.09007304 0.03856086 -0.01971101
v -0.09007304 0.03856086 -0.01971101
v -0.08867216 0.03853577 -0.01982122
v -0.08867216 0.03853577 -0.01982122
v -0.08867216 0.03853577 -0.01982122
v -0.09009850 0.03820544 -0.01971429
v -0.09009850 0.03820544 -0.01971429
v -0.09009850 0.03820544 -0.01971429
v -0.08869916 0.03815221 -0.01982486
v -0.08869916 0.03815221 -0.01982486
v -0.08869916 0.03815221 -0.01982486
v -0.09011775 0.03793025 -0.01971691
v -0.09011775 0.03793025 -0.01971691
v -0.09011775 0.03793025 -0.01971691
v -0.08872604 0.03776860 -0.01982849
v -0.08872604 0.03776860 -0.01982849
v -0.08872604 0.03776860 -0.01982849
v -0.09013700 0.03765511 -0.01971948
v -0.09013700 0.03765511 -0.01971948
v -0.09013700 0.03765511 -0.01971948
v -0.08875107 0.03741514 -0.01983177
v -0.08875107 0.03741514 -0.01983177
v -0.08875107 0.03741514 -0.01983177
v -0.09016036 0.03732979 -0.01972252
v -0.09016036 0.03732979 -0.01972252
v -0.09016036 0.03732979 -0.01972252
v -0.08877623 0.03706169 -0.01983511
v -0.08877623 0.03706169 -0.01983511
v -0.08877623 0.03706169 -0.01983511
v -0.09018367 0.03700447 -0.01972556
v -0.09018367 0.03700447 -0.01972556
v -0.09018367 0.03700447 -0.01972556
v -0.09020048 0.03675740 -0.01972794
v -0.09020048 0.03675740 -0.01972794
v -0.08984619 0.04091149 -0.01969367
v -0.08984619 0.04091149 -0.01969367
v -0.08977627 0.04090750 -0.01969921
v -0.08977627 0.04090750 -0.01969921
v -0.08977627 0.04090750 -0.01969921
v -0.08993643 0.04049080 -0.01969289
v -0.08993643 0.04049080 -0.01969289
v -0.08993643 0.04049080 -0.01969289
v -0.08942508 0.04083949 -0.01972776
v -0.08942508 0.04083949 -0.01972776
v -0.08942508 0.04083949 -0.01972776
v -0.08907395 0.04077142 -0.01975631
v -0.08907395 0.04077142 -0.01975631
v -0.08907395 0.04077142 -0.01975631
v -0.08885496 0.04072910 -0.01977413
v -0.08885496 0.04072910 -0.01977413
v -0.08885496 0.04072910 -0.01977413
v -0.08885496 0.04072910 -0.01977413
v -0.08885496 0.04072910 -0.01977413
v -0.08853161 0.04050791 -0.01980280
v -0.08853161 0.04050791 -0.01980280
v -0.08856815 0.04065585 -0.01979774
v -0.08854031 0.04061603 -0.01980048
v -0.08854031 0.04061603 -0.01980048
v -0.08863604 0.04068630 -0.01979196
v -0.08863604 0.04068630 -0.01979196
v -0.08863604 0.04068630 -0.01979196
v -0.08852994 0.04056018 -0.01980215
v -0.08852994 0.04056018 -0.01980215
v -0.08852994 0.04056018 -0.01980215
v -0.08853012 0.04053401 -0.01980251
v -0.08853012 0.04053401 -0.01980251
vn -0.07819000 0.01488000 -0.99683000
vn -0.07820000 0.01483000 -0.99683000
vn -0.07819000 0.01488000 -0.99683000
vn -0.07819000 0.01489000 -0.99683000
vn -0.07819000 0.01490000 -0.99683000
vn -0.07819000 0.01486000 -0.99683000
vn -0.07819000 0.01493000 -0.99683000
vn -0.07820000 0.01483000 -0.99683000
vn -0.07819000 0.01490000 -0.99683000
vn -0.07819000 0.01488000 -0.99683000
vn -0.07819000 0.01491000 -0.99683000
vn -0.07819000 0.01486000 -0.99683000
vn -0.07815000 0.01489000 -0.99683000
vn -0.07819000 0.01491000 -0.99683000
vn -0.07819000 0.01495000 -0.99683000
vn -0.07819000 0.01493000 -0.99683000
vn -0.07819000 0.01491000 -0.99683000
vn -0.07819000 0.01486000 -0.99683000
vn -0.07815000 0.01489000 -0.99683000
vn -0.07808000 0.01488000 -0.99684000
vn -0.07819000 0.01487000 -0.99683000
vn -0.07819000 0.01495000 -0.99683000
vn -0.07815000 0.01489000 -0.99683000
vn -0.07819000 0.01487000 -0.99683000
vn -0.07819000 0.01495000 -0.99683000
vn -0.07819000 0.01489000 -0.99683000
vn -0.07819000 0.01489000 -0.99683000
vn -0.07819000 0.01490000 -0.99683000
vn -0.07819000 0.01490000 -0.99683000
vn -0.07819000 0.01487000 -0.99683000
vn -0.07807000 0.01485000 -0.99684000
vn -0.07840000 0.01495000 -0.99681000
vn -0.07807000 0.01485000 -0.99684000
vn -0.07823000 0.01490000 -0.99682000
vn -0.07829000 0.01490000 -0.99682000
vn -0.07799000 0.01481000 -0.99684000
vn -0.07840000 0.01495000 -0.99681000
vn -0.07799000 0.01481000 -0.99684000
vn -0.07807000 0.01485000 -0.99684000
vn -0.07820000 0.01483000 -0.99683000
vn -0.07819000 0.01493000 -0.99683000
vn -0.07811000 0.01485000 -0.99683000
vn -0.07814000 0.01489000 -0.99683000
vn -0.07820000 0.01490000 -0.99683000
vn -0.07871000 0.01493000 -0.99679000
vn -0.07799000 0.01481000 -0.99684000
vn -0.07816000 0.01489000 -0.99683000
vn -0.07815000 0.01490000 -0.99683000
vn -0.07822000 0.01491000 -0.99682000
vn -0.07814000 0.01488000 -0.99683000
vn -0.07815000 0.01490000 -0.99683000
vn -0.07822000 0.01491000 -0.99682000
vn -0.07815000 0.01490000 -0.99683000
vn -0.07819000 0.01490000 -0.99683000
vn -0.07819000 0.01489000 -0.99683000
vn -0.07819000 0.01490000 -0.99683000
vn -0.07817000 0.01488000 -0.99683000
vn -0.07819000 0.01490000 -0.99683000
vn -0.07818000 0.01488000 -0.99683000
vn -0.07819000 0.01489000 -0.99683000
vn -0.07819000 0.01490000 -0.99683000
vn -0.07819000 0.01490000 -0.99683000
vn -0.07819000 0.01489000 -0.99683000
vn -0.07819000 0.01490000 -0.99683000
vn -0.07819000 0.01490000 -0.99683000
vn -0.07819000 0.01489000 -0.99683000
vn -0.07819000 0.01489000 -0.99683000
vn -0.07819000 0.01490000 -0.99683000
vn -0.07819000 0.01490000 -0.99683000
vn -0.07819000 0.01489000 -0.99683000
vn -0.07819000 0.01489000 -0.99683000
vn -0.07819000 0.01490000 -0.99683000
vn -0.07819000 0.01489000 -0.99683000
vn -0.07819000 0.01489000 -0.99683000
vn -0.07819000 0.01490000 -0.99683000
vn -0.07819000 0.01489000 -0.99683000
vn -0.07818000 0.01489000 -0.99683000
vn -0.07818000 0.01489000 -0.99683000
vn -0.07819000 0.01489000 -0.99683000
vn -0.07819000 0.01489000 -0.99683000
vn -0.07818000 0.01489000 -0.99683000
vn -0.07819000 0.01489000 -0.99683000
vn -0.07818000 0.01489000 -0.99683000
vn -0.07819000 0.01489000 -0.99683000
vn -0.07819000 0.01489000 -0.99683000
vn -0.07818000 0.01489000 -0.99683000
vn -0.07819000 0.01489000 -0.99683000
vn -0.07819000 0.01489000 -0.99683000
vn -0.07818000 0.01489000 -0.99683000
vn -0.07819000 0.01489000 -0.99683000
vn -0.07819000 0.01489000 -0.99683000
vn -0.07819000 0.01489000 -0.99683000
vn -0.07819000 0.01489000 -0.99683000
vn -0.07819000 0.01489000 -0.99683000
vn -0.07819000 0.01489000 -0.99683000
vn -0.07819000 0.01489000 -0.99683000
vn -0.07819000 0.01489000 -0.99683000
vn -0.07819000 0.01490000 -0.99683000
vn -0.07819000 0.01489000 -0.99683000
vn -0.07819000 0.01490000 -0.99683000
vn -0.07819000 0.01490000 -0.99683000
vn -0.07819000 0.01490000 -0.99683000
vn -0.07819000 0.01488000 -0.99683000
vn -0.07819000 0.01490000 -0.99683000
vn -0.07819000 0.01488000 -0.99683000
vn -0.07819000 0.01490000 -0.99683000
vn -0.07819000 0.01489000 -0.99683000
vn -0.07819000 0.01488000 -0.99683000
vn -0.07819000 0.01489000 -0.99683000
vn -0.07818000 0.01490000 -0.99683000
vn -0.07819000 0.01489000 -0.99683000
vn -0.07819000 0.01489000 -0.99683000
vn -0.07818000 0.01490000 -0.99683000
vn -0.07819000 0.01490000 -0.99683000
vn -0.07818000 0.01490000 -0.99683000
vn -0.07819000 0.01489000 -0.99683000
vn -0.07819000 0.01489000 -0.99683000
vn -0.07819000 0.01489000 -0.99683000
vn -0.07819000 0.01490000 -0.99683000
vn -0.07819000 0.01489000 -0.99683000
vn -0.07819000 0.01489000 -0.99683000
vn -0.07814000 0.01488000 -0.99683000
vn -0.07822000 0.01491000 -0.99682000
vn -0.07814000 0.01488000 -0.99683000
vn -0.07816000 0.01489000 -0.99683000
vn -0.07819000 0.01489000 -0.99683000
vn -0.07819000 0.01489000 -0.99683000
vn -0.07817000 0.01488000 -0.99683000
vn -0.07816000 0.01489000 -0.99683000
vn -0.07819000 0.01490000 -0.99683000
vn -0.07819000 0.01489000 -0.99683000
vn -0.07817000 0.01488000 -0.99683000
vn -0.07819000 0.01490000 -0.99683000
vn -0.07819000 0.01489000 -0.99683000
vn -0.07818000 0.01488000 -0.99683000
vn -0.07818000 0.01488000 -0.99683000
vn -0.07819000 0.01490000 -0.99683000
vn -0.07823000 0.01476000 -0.99683000
vn -0.07819000 0.01487000 -0.99683000
vn -0.07819000 0.01491000 -0.99683000
vn -0.07823000 0.01476000 -0.99683000
vn -0.07819000 0.01490000 -0.99683000
vn -0.07823000 0.01487000 -0.99682000
vn -0.07823000 0.01487000 -0.99682000
vn -0.07810000 0.01493000 -0.99683000
vn -0.07810000 0.01493000 -0.99683000
vn -0.07819000 0.01491000 -0.99683000
vn -0.07823000 0.01487000 -0.99682000
vn -0.07819000 0.01491000 -0.99683000
vn -0.07819000 0.01487000 -0.99683000
vn -0.07810000 0.01493000 -0.99683000
vn -0.07819000 0.01487000 -0.99683000
vn -0.07823000 0.01476000 -0.99683000
f 1//1 3//3 10//10
f 11//11 14//14 17//17
f 19//19 13//13 23//23
f 15//15 22//22 25//25
f 9//9 5//5 29//29
f 24//24 21//21 30//30
f 32//32 20//20 37//37
f 31//31 33//33 39//39
f 12//12 18//18 6//6
f 7//7 16//16 41//41
f 8//8 40//40 2//2
f 42//42 44//44 35//35
f 34//34 43//43 45//45
f 36//36 46//46 38//38
f 48//48 51//51 53//53
f 54//54 61//61 64//64
f 65//65 58//58 68//68
f 63//63 66//66 71//71
f 70//70 67//67 73//73
f 69//69 72//72 75//75
f 76//76 74//74 80//80
f 77//77 78//78 83//83
f 82//82 79//79 85//85
f 81//81 86//86 89//89
f 88//88 84//84 91//91
f 87//87 90//90 94//94
f 93//93 92//92 96//96
f 95//95 97//97 99//99
f 100//100 98//98 102//102
f 101//101 104//104 106//106
f 105//105 103//103 108//108
f 107//107 109//109 111//111
f 113//113 110//110 115//115
f 112//112 116//116 118//118
f 119//119 114//114 28//28
f 117//117 26//26 121//121
f 120//120 27//27 4//4
f 52//52 123//123 49//49
f 50//50 122//122 124//124
f 47//47 125//125 129//129
f 127//127 126//126 131//131
f 128//128 132//132 57//57
f 56//56 130//130 133//133
f 55//55 134//134 60//60
f 59//59 135//135 136//136
f 62//62 137//137 142//142
f 143//143 144//144 148//148
f 146//146 145//145 151//151
f 147//147 149//149 140//140
f 139//139 150//150 152//152
f 138//138 153//153 141//141

