mtllib material.mtl
usemtl material_0
v -0.09630793 0.04102861 0.01918506
v -0.09630793 0.04102861 0.01918506
v -0.09630793 0.04102861 0.01918506
v -0.09630793 0.04102861 0.01918506
v -0.09631270 0.04103541 0.01918458
v -0.09631270 0.04103541 0.01918458
v -0.09755808 0.04176366 0.01907604
v -0.09755808 0.04176366 0.01907604
v -0.09755808 0.04176366 0.01907604
v -0.09755808 0.04176366 0.01907604
v -0.09755808 0.04176366 0.01907604
v -0.09755808 0.04176366 0.01907604
v -0.09755808 0.04176366 0.01907604
v -0.09631395 0.04104709 0.01918435
v -0.09631395 0.04104709 0.01918435
v -0.09692651 0.04376631 0.01909565
v -0.09692651 0.04376631 0.01909565
v -0.09587830 0.04241687 0.01919806
v -0.09587830 0.04241687 0.01919806
v -0.09587830 0.04241687 0.01919806
v -0.09587830 0.04241687 0.01919806
v -0.09587830 0.04241687 0.01919806
v -0.09692120 0.04378175 0.01909583
v -0.09692120 0.04378175 0.01909583
v -0.09692120 0.04378175 0.01909583
v -0.09692120 0.04378175 0.01909583
v -0.09585934 0.04242610 0.01919937
v -0.09585934 0.04242610 0.01919937
v -0.09585934 0.04242610 0.01919937
v -0.09585934 0.04242610 0.01919937
v -0.09458982 0.04209434 0.01930391
v -0.09458982 0.04209434 0.01930391
v -0.09458982 0.04209434 0.01930391
v -0.09458982 0.04209434 0.01930391
v -0.09443026 0.04184240 0.01932018
v -0.09443026 0.04184240 0.01932018
v -0.09443026 0.04184240 0.01932018
v -0.09443026 0.04184240 0.01932018
v -0.09325587 0.04279989 0.01939803
v -0.09325587 0.04279989 0.01939803
v -0.09325587 0.04279989 0.01939803
v -0.09735393 0.03779935 0.01915127
v -0.09735393 0.03779935 0.01915127
v -0.09735393 0.03779935 0.01915127
v -0.09735393 0.03779935 0.01915127
v -0.09732252 0.03785401 0.01915293
v -0.09732252 0.03785401 0.01915293
v -0.09732252 0.03785401 0.01915293
v -0.09870612 0.03812110 0.01904040
v -0.09870612 0.03812110 0.01904040
v -0.09870612 0.03812110 0.01904040
v -0.09860110 0.03845322 0.01904368
v -0.09860110 0.03845322 0.01904368
v -0.09860110 0.03845322 0.01904368
v -0.09860110 0.03845322 0.01904368
v -0.09729045 0.03795576 0.01915389
v -0.09729045 0.03795576 0.01915389
v -0.09725892 0.03805774 0.01915484
v -0.09725892 0.03805774 0.01915484
v -0.09725892 0.03805774 0.01915484
v -0.09849667 0.03878545 0.01904690
v -0.09849667 0.03878545 0.01904690
v -0.09849667 0.03878545 0.01904690
v -0.09715199 0.03840392 0.01915806
v -0.09715199 0.03840392 0.01915806
v -0.09715199 0.03840392 0.01915806
v -0.09839171 0.03911757 0.01905018
v -0.09839171 0.03911757 0.01905018
v -0.09839171 0.03911757 0.01905018
v -0.09704458 0.03874999 0.01916134
v -0.09704458 0.03874999 0.01916134
v -0.09704458 0.03874999 0.01916134
v -0.09828680 0.03944969 0.01905345
v -0.09828680 0.03944969 0.01905345
v -0.09828680 0.03944969 0.01905345
v -0.09692889 0.03911876 0.01916491
v -0.09692889 0.03911876 0.01916491
v -0.09692889 0.03911876 0.01916491
v -0.09818291 0.03978002 0.01905667
v -0.09818291 0.03978002 0.01905667
v -0.09818291 0.03978002 0.01905667
v -0.09681296 0.03948748 0.01916849
v -0.09681296 0.03948748 0.01916849
v -0.09681296 0.03948748 0.01916849
v -0.09807908 0.04011040 0.01905989
v -0.09807908 0.04011040 0.01905989
v -0.09807908 0.04011040 0.01905989
v -0.09675896 0.03966253 0.01917010
v -0.09675896 0.03966253 0.01917010
v -0.09675896 0.03966253 0.01917010
v -0.09797418 0.04044252 0.01906311
v -0.09797418 0.04044252 0.01906311
v -0.09797418 0.04044252 0.01906311
v -0.09670466 0.03983747 0.01917177
v -0.09670466 0.03983747 0.01917177
v -0.09670466 0.03983747 0.01917177
v -0.09786921 0.04077464 0.01906639
v -0.09786921 0.04077464 0.01906639
v -0.09786921 0.04077464 0.01906639
v -0.09668415 0.03988307 0.01917266
v -0.09668415 0.03988307 0.01917266
v -0.09668415 0.03988307 0.01917266
v -0.09776532 0.04110497 0.01906961
v -0.09776532 0.04110497 0.01906961
v -0.09776532 0.04110497 0.01906961
v -0.09666746 0.03989666 0.01917380
v -0.09666746 0.03989666 0.01917380
v -0.09666746 0.03989666 0.01917380
v -0.09666746 0.03989666 0.01917380
v -0.09666746 0.03989666 0.01917380
v -0.09766149 0.04143530 0.01907283
v -0.09766149 0.04143530 0.01907283
v -0.09529179 0.04084253 0.01926755
v -0.09529179 0.04084253 0.01926755
v -0.09529179 0.04084253 0.01926755
v -0.09529179 0.04084253 0.01926755
v -0.09483462 0.03968656 0.01932066
v -0.09483462 0.03968656 0.01932066
v -0.09483462 0.03968656 0.01932066
v -0.09493994 0.04088860 0.01929450
v -0.09493994 0.04088860 0.01929450
v -0.09493994 0.04088860 0.01929450
v -0.09443628 0.03977310 0.01935064
v -0.09443628 0.03977310 0.01935064
v -0.09443628 0.03977310 0.01935064
v -0.09464079 0.04108095 0.01931506
v -0.09464079 0.04108095 0.01931506
v -0.09464079 0.04108095 0.01931506
v -0.09388422 0.04004067 0.01938992
v -0.09388422 0.04004067 0.01938992
v -0.09388422 0.04004067 0.01938992
v -0.09449565 0.04128569 0.01932340
v -0.09449565 0.04128569 0.01932340
v -0.09449565 0.04128569 0.01932340
v -0.09343820 0.04046154 0.01941865
v -0.09343820 0.04046154 0.01941865
v -0.09343820 0.04046154 0.01941865
v -0.09441643 0.04152387 0.01932603
v -0.09441643 0.04152387 0.01932603
v -0.09441643 0.04152387 0.01932603
v -0.09309440 0.04107409 0.01943647
v -0.09309440 0.04107409 0.01943647
v -0.09309440 0.04107409 0.01943647
v -0.09440153 0.04168415 0.01932483
v -0.09440153 0.04168415 0.01932483
v -0.09440153 0.04168415 0.01932483
v -0.09295141 0.04176163 0.01943737
v -0.09295141 0.04176163 0.01943737
v -0.09295141 0.04176163 0.01943737
v -0.09300440 0.04230922 0.01942503
v -0.09300440 0.04230922 0.01942503
v -0.09724396 0.04276025 0.01908576
v -0.09724396 0.04276025 0.01908576
v -0.09724396 0.04276025 0.01908576
v -0.09724396 0.04276025 0.01908576
v -0.09590131 0.04237526 0.01919686
v -0.09590131 0.04237526 0.01919686
v -0.09590131 0.04237526 0.01919686
v -0.09714877 0.04306167 0.01908874
v -0.09714877 0.04306167 0.01908874
v -0.09714877 0.04306167 0.01908874
v -0.09589517 0.04239201 0.01919710
v -0.09589517 0.04239201 0.01919710
v -0.09589517 0.04239201 0.01919710
v -0.09705358 0.04336303 0.01909172
v -0.09705358 0.04336303 0.01909172
v -0.09705358 0.04336303 0.01909172
v -0.09698992 0.04356467 0.01909369
v -0.09698992 0.04356467 0.01909369
v -0.09867012 0.03798311 0.01904529
v -0.09742921 0.03775286 0.01914608
v -0.09742921 0.03775286 0.01914608
v -0.09870654 0.03802227 0.01904183
v -0.09870654 0.03802227 0.01904183
v -0.09870654 0.03802227 0.01904183
v -0.09871786 0.03805327 0.01904052
v -0.09871786 0.03805327 0.01904052
v -0.09663856 0.03990101 0.01917600
v -0.09663856 0.03990101 0.01917600
v -0.09663856 0.03990101 0.01917600
v -0.09629333 0.04102122 0.01918631
v -0.09629333 0.04102122 0.01918631
v -0.09629333 0.04102122 0.01918631
v -0.09660398 0.03989678 0.01917874
v -0.09660398 0.03989678 0.01917874
v -0.09660398 0.03989678 0.01917874
v -0.09660398 0.03989678 0.01917874
v -0.09626096 0.04101389 0.01918900
v -0.09626096 0.04101389 0.01918900
v -0.09348070 0.04303199 0.01937693
v -0.09348070 0.04303199 0.01937693
v -0.09374815 0.04321271 0.01935321
v -0.09374815 0.04321271 0.01935321
v -0.09374815 0.04321271 0.01935321
v -0.09469783 0.04217362 0.01929426
v -0.09469783 0.04217362 0.01929426
v -0.09469783 0.04217362 0.01929426
v -0.09407186 0.04334938 0.01932579
v -0.09407186 0.04334938 0.01932579
v -0.09407186 0.04334938 0.01932579
v -0.09491187 0.04225379 0.01927626
v -0.09491187 0.04225379 0.01927626
v -0.09491187 0.04225379 0.01927626
v -0.09441232 0.04343354 0.01929783
v -0.09441232 0.04343354 0.01929783
v -0.09441232 0.04343354 0.01929783
v -0.09582030 0.04242491 0.01920247
v -0.09582030 0.04242491 0.01920247
v -0.09582030 0.04242491 0.01920247
v -0.09675925 0.04386997 0.01910722
v -0.09675925 0.04386997 0.01910722
v -0.09675925 0.04386997 0.01910722
v -0.09683561 0.04386943 0.01910126
v -0.09683561 0.04386943 0.01910126
v -0.09683561 0.04386943 0.01910126
v -0.09688162 0.04384428 0.01909798
v -0.09630495 0.04108393 0.01918447
v -0.09630495 0.04108393 0.01918447
v -0.09619557 0.04143363 0.01918780
v -0.09619557 0.04143363 0.01918780
v -0.09619557 0.04143363 0.01918780
v -0.09745460 0.04209202 0.01907926
v -0.09745460 0.04209202 0.01907926
v -0.09745460 0.04209202 0.01907926
v -0.09608614 0.04178333 0.01919120
v -0.09608614 0.04178333 0.01919120
v -0.09608614 0.04178333 0.01919120
v -0.09599381 0.04207932 0.01919400
v -0.09599381 0.04207932 0.01919400
v -0.09603351 0.04097157 0.01920747
v -0.09603351 0.04097157 0.01920747
v -0.09603351 0.04097157 0.01920747
v -0.09604519 0.03979259 0.01922416
v -0.09604519 0.03979259 0.01922416
v -0.09604519 0.03979259 0.01922416
v -0.09578078 0.04092472 0.01922798
v -0.09578078 0.04092472 0.01922798
v -0.09578078 0.04092472 0.01922798
v -0.09548497 0.03969562 0.01926952
v -0.09548497 0.03969562 0.01926952
v -0.09548497 0.03969562 0.01926952
v -0.09554970 0.04088044 0.01924675
v -0.09554970 0.04088044 0.01924675
v -0.09554970 0.04088044 0.01924675
v -0.09536331 0.03968065 0.01927930
v -0.09536331 0.03968065 0.01927930
v -0.09536331 0.03968065 0.01927930
v -0.09524148 0.03967189 0.01928901
v -0.09524148 0.03967189 0.01928901
vn -0.07838000 0.01489000 0.99681000
vn -0.07817000 0.01487000 0.99683000
vn -0.07819000 0.01489000 0.99683000
vn -0.07812000 0.01491000 0.99683000
vn -0.07871000 0.01487000 0.99679000
vn -0.07797000 0.01514000 0.99684000
vn -0.07819000 0.01489000 0.99683000
vn -0.07828000 0.01482000 0.99682000
vn -0.07818000 0.01491000 0.99683000
vn -0.07819000 0.01489000 0.99683000
vn -0.07818000 0.01489000 0.99683000
vn -0.07871000 0.01487000 0.99679000
vn -0.07797000 0.01514000 0.99684000
vn -0.07797000 0.01514000 0.99684000
vn -0.07828000 0.01482000 0.99682000
vn -0.07819000 0.01489000 0.99683000
vn -0.07823000 0.01498000 0.99682000
vn -0.07813000 0.01490000 0.99683000
vn -0.07822000 0.01491000 0.99682000
vn -0.07818000 0.01490000 0.99683000
vn -0.07823000 0.01498000 0.99682000
vn -0.07819000 0.01489000 0.99683000
vn -0.07823000 0.01498000 0.99682000
vn -0.07828000 0.01492000 0.99682000
vn -0.07819000 0.01488000 0.99683000
vn -0.07813000 0.01490000 0.99683000
vn -0.07819000 0.01488000 0.99683000
vn -0.07824000 0.01489000 0.99682000
vn -0.07819000 0.01486000 0.99683000
vn -0.07813000 0.01490000 0.99683000
vn -0.07818000 0.01489000 0.99683000
vn -0.07819000 0.01489000 0.99683000
vn -0.07819000 0.01489000 0.99683000
vn -0.07819000 0.01490000 0.99683000
vn -0.07819000 0.01490000 0.99683000
vn -0.07819000 0.01489000 0.99683000
vn -0.07819000 0.01489000 0.99683000
vn -0.07819000 0.01490000 0.99683000
vn -0.07819000 0.01489000 0.99683000
vn -0.07819000 0.01490000 0.99683000
vn -0.07819000 0.01490000 0.99683000
vn -0.07818000 0.01489000 0.99683000
vn -0.07818000 0.01490000 0.99683000
vn -0.07819000 0.01490000 0.99683000
vn -0.07818000 0.01484000 0.99683000
vn -0.07818000 0.01489000 0.99683000
vn -0.07818000 0.01489000 0.99683000
vn -0.07819000 0.01490000 0.99683000
vn -0.07818000 0.01490000 0.99683000
vn -0.07818000 0.01489000 0.99683000
vn -0.07819000 0.01490000 0.99683000
vn -0.07819000 0.01490000 0.99683000
vn -0.07818000 0.01489000 0.99683000
vn -0.07819000 0.01489000 0.99683000
vn -0.07818000 0.01489000 0.99683000
vn -0.07818000 0.01489000 0.99683000
vn -0.07818000 0.01489000 0.99683000
vn -0.07818000 0.01489000 0.99683000
vn -0.07819000 0.01489000 0.99683000
vn -0.07819000 0.01489000 0.99683000
vn -0.07819000 0.01489000 0.99683000
vn -0.07819000 0.01489000 0.99683000
vn -0.07819000 0.01489000 0.99683000
vn -0.07819000 0.01489000 0.99683000
vn -0.07818000 0.01489000 0.99683000
vn -0.07819000 0.01489000 0.99683000
vn -0.07819000 0.01489000 0.99683000
vn -0.07818000 0.01489000 0.99683000
vn -0.07819000 0.01489000 0.99683000
vn -0.07818000 0.01489000 0.99683000
vn -0.07818000 0.01489000 0.99683000
vn -0.07819000 0.01489000 0.99683000
vn -0.07819000 0.01489000 0.99683000
vn -0.07818000 0.01489000 0.99683000
vn -0.07818000 0.01490000 0.99683000
vn -0.07819000 0.01489000 0.99683000
vn -0.07818000 0.01490000 0.99683000
vn -0.07818000 0.01489000 0.99683000
vn -0.07818000 0.01490000 0.99683000
vn -0.07819000 0.01489000 0.99683000
vn -0.07819000 0.01489000 0.99683000
vn -0.07819000 0.01489000 0.99683000
vn -0.07818000 0.01490000 0.99683000
vn -0.07819000 0.01489000 0.99683000
vn -0.07819000 0.01489000 0.99683000
vn -0.07818000 0.01490000 0.99683000
vn -0.07819000 0.01489000 0.99683000
vn -0.07817000 0.01490000 0.99683000
vn -0.07819000 0.01489000 0.99683000
vn -0.07818000 0.01490000 0.99683000
vn -0.07819000 0.01489000 0.99683000
vn -0.07819000 0.01489000 0.99683000
vn -0.07817000 0.01490000 0.99683000
vn -0.07819000 0.01489000 0.99683000
vn -0.07814000 0.01490000 0.99683000
vn -0.07817000 0.01490000 0.99683000
vn -0.07819000 0.01489000 0.99683000
vn -0.07814000 0.01490000 0.99683000
vn -0.07820000 0.01489000 0.99683000
vn -0.07814000 0.01490000 0.99683000
vn -0.07808000 0.01484000 0.99684000
vn -0.07820000 0.01489000 0.99683000
vn -0.07820000 0.01489000 0.99683000
vn -0.07820000 0.01490000 0.99683000
vn -0.07808000 0.01484000 0.99684000
vn -0.07819000 0.01489000 0.99683000
vn -0.07818000 0.01489000 0.99683000
vn -0.07817000 0.01487000 0.99683000
vn -0.07820000 0.01490000 0.99683000
vn -0.07808000 0.01484000 0.99684000
vn -0.07820000 0.01490000 0.99683000
vn -0.07818000 0.01489000 0.99683000
vn -0.07821000 0.01489000 0.99683000
vn -0.07817000 0.01489000 0.99683000
vn -0.07820000 0.01489000 0.99683000
vn -0.07819000 0.01489000 0.99683000
vn -0.07819000 0.01489000 0.99683000
vn -0.07818000 0.01490000 0.99683000
vn -0.07820000 0.01489000 0.99683000
vn -0.07820000 0.01489000 0.99683000
vn -0.07818000 0.01490000 0.99683000
vn -0.07819000 0.01489000 0.99683000
vn -0.07819000 0.01489000 0.99683000
vn -0.07818000 0.01490000 0.99683000
vn -0.07819000 0.01489000 0.99683000
vn -0.07819000 0.01489000 0.99683000
vn -0.07819000 0.01489000 0.99683000
vn -0.07818000 0.01489000 0.99683000
vn -0.07819000 0.01489000 0.99683000
vn -0.07818000 0.01489000 0.99683000
vn -0.07819000 0.01489000 0.99683000
vn -0.07819000 0.01489000 0.99683000
vn -0.07818000 0.01489000 0.99683000
vn -0.07819000 0.01489000 0.99683000
vn -0.07819000 0.01489000 0.99683000
vn -0.07819000 0.01489000 0.99683000
vn -0.07819000 0.01489000 0.99683000
vn -0.07819000 0.01489000 0.99683000
vn -0.07818000 0.01490000 0.99683000
vn -0.07819000 0.01489000 0.99683000
vn -0.07819000 0.01489000 0.99683000
vn -0.07818000 0.01490000 0.99683000
vn -0.07819000 0.01489000 0.99683000
vn -0.07818000 0.01490000 0.99683000
vn -0.07819000 0.01489000 0.99683000
vn -0.07819000 0.01489000 0.99683000
vn -0.07819000 0.01489000 0.99683000
vn -0.07819000 0.01489000 0.99683000
vn -0.07819000 0.01489000 0.99683000
vn -0.07819000 0.01490000 0.99683000
vn -0.07819000 0.01489000 0.99683000
vn -0.07819000 0.01489000 0.99683000
vn -0.07819000 0.01489000 0.99683000
vn -0.07819000 0.01489000 0.99683000
vn -0.07819000 0.01489000 0.99683000
vn -0.07827000 0.01491000 0.99682000
vn -0.07819000 0.01489000 0.99683000
vn -0.07819000 0.01489000 0.99683000
vn -0.07827000 0.01491000 0.99682000
vn -0.07819000 0.01489000 0.99683000
vn -0.07819000 0.01489000 0.99683000
vn -0.07822000 0.01491000 0.99682000
vn -0.07819000 0.01489000 0.99683000
vn -0.07827000 0.01491000 0.99682000
vn -0.07819000 0.01489000 0.99683000
vn -0.07822000 0.01491000 0.99682000
vn -0.07818000 0.01490000 0.99683000
vn -0.07818000 0.01490000 0.99683000
vn -0.07819000 0.01489000 0.99683000
vn -0.07819000 0.01486000 0.99683000
vn -0.07819000 0.01486000 0.99683000
vn -0.07819000 0.01490000 0.99683000
vn -0.07818000 0.01484000 0.99683000
vn -0.07819000 0.01486000 0.99683000
vn -0.07819000 0.01490000 0.99683000
vn -0.07818000 0.01490000 0.99683000
vn -0.07818000 0.01484000 0.99683000
vn -0.07815000 0.01489000 0.99683000
vn -0.07812000 0.01491000 0.99683000
vn -0.07817000 0.01487000 0.99683000
vn -0.07815000 0.01489000 0.99683000
vn -0.07812000 0.01489000 0.99683000
vn -0.07812000 0.01491000 0.99683000
vn -0.07815000 0.01489000 0.99683000
vn -0.07820000 0.01489000 0.99683000
vn -0.07819000 0.01489000 0.99683000
vn -0.07812000 0.01489000 0.99683000
vn -0.07820000 0.01489000 0.99683000
vn -0.07812000 0.01489000 0.99683000
vn -0.07819000 0.01489000 0.99683000
vn -0.07819000 0.01489000 0.99683000
vn -0.07819000 0.01489000 0.99683000
vn -0.07818000 0.01489000 0.99683000
vn -0.07819000 0.01489000 0.99683000
vn -0.07819000 0.01489000 0.99683000
vn -0.07818000 0.01489000 0.99683000
vn -0.07820000 0.01490000 0.99683000
vn -0.07820000 0.01490000 0.99683000
vn -0.07819000 0.01489000 0.99683000
vn -0.07819000 0.01489000 0.99683000
vn -0.07820000 0.01490000 0.99683000
vn -0.07819000 0.01489000 0.99683000
vn -0.07819000 0.01489000 0.99683000
vn -0.07819000 0.01489000 0.99683000
vn -0.07819000 0.01489000 0.99683000
vn -0.07819000 0.01489000 0.99683000
vn -0.07819000 0.01489000 0.99683000
vn -0.07819000 0.01489000 0.99683000
vn -0.07819000 0.01486000 0.99683000
vn -0.07819000 0.01489000 0.99683000
vn -0.07819000 0.01486000 0.99683000
vn -0.07824000 0.01489000 0.99682000
vn -0.07828000 0.01492000 0.99682000
vn -0.07819000 0.01488000 0.99683000
vn -0.07824000 0.01489000 0.99682000
vn -0.07828000 0.01492000 0.99682000
vn -0.07828000 0.01482000 0.99682000
vn -0.07818000 0.01491000 0.99683000
vn -0.07819000 0.01489000 0.99683000
vn -0.07818000 0.01491000 0.99683000
vn -0.07819000 0.01489000 0.99683000
vn -0.07819000 0.01489000 0.99683000
vn -0.07819000 0.01489000 0.99683000
vn -0.07819000 0.01489000 0.99683000
vn -0.07819000 0.01489000 0.99683000
vn -0.07819000 0.01489000 0.99683000
vn -0.07819000 0.01489000 0.99683000
vn -0.07819000 0.01489000 0.99683000
vn -0.07819000 0.01489000 0.99683000
vn -0.07820000 0.01489000 0.99683000
vn -0.07819000 0.01489000 0.99683000
vn -0.07817000 0.01489000 0.99683000
vn -0.07819000 0.01489000 0.99683000
vn -0.07817000 0.01489000 0.99683000
vn -0.07819000 0.01489000 0.99683000
vn -0.07819000 0.01489000 0.99683000
vn -0.07818000 0.01489000 0.99683000
vn -0.07817000 0.01489000 0.99683000
vn -0.07818000 0.01489000 0.99683000
vn -0.07819000 0.01489000 0.99683000
vn -0.07818000 0.01489000 0.99683000
vn -0.07818000 0.01489000 0.99683000
vn -0.07818000 0.01489000 0.99683000
vn -0.07821000 0.01489000 0.99683000
vn -0.07818000 0.01489000 0.99683000
vn -0.07821000 0.01489000 0.99683000
vn -0.07817000 0.01489000 0.99683000
vn -0.07817000 0.01489000 0.99683000
vn -0.07819000 0.01489000 0.99683000
f 1//1 5//5 12//12
f 13//13 6//6 14//14
f 17//17 21//21 23//23
f 26//26 18//18 30//30
f 34//34 38//38 40//40
f 42//42 46//46 50//50
f 51//51 48//48 52//52
f 47//47 57//57 53//53
f 55//55 56//56 58//58
f 54//54 59//59 61//61
f 62//62 60//60 66//66
f 63//63 64//64 67//67
f 68//68 65//65 71//71
f 69//69 72//72 73//73
f 74//74 70//70 78//78
f 75//75 77//77 79//79
f 81//81 76//76 84//84
f 80//80 82//82 87//87
f 86//86 83//83 90//90
f 85//85 89//89 92//92
f 93//93 88//88 96//96
f 91//91 94//94 97//97
f 98//98 95//95 100//100
f 99//99 102//102 103//103
f 105//105 101//101 110//110
f 104//104 109//109 111//111
f 112//112 107//107 11//11
f 115//115 119//119 120//120
f 121//121 118//118 124//124
f 122//122 125//125 126//126
f 127//127 123//123 129//129
f 128//128 130//130 133//133
f 132//132 131//131 135//135
f 134//134 136//136 138//138
f 140//140 137//137 141//141
f 139//139 142//142 144//144
f 146//146 143//143 149//149
f 145//145 148//148 37//37
f 36//36 147//147 151//151
f 35//35 150//150 41//41
f 153//153 157//157 160//160
f 159//159 156//156 164//164
f 161//161 163//163 165//165
f 166//166 162//162 19//19
f 167//167 20//20 168//168
f 169//169 22//22 16//16
f 170//170 171//171 174//174
f 175//175 172//172 44//44
f 173//173 45//45 177//177
f 176//176 43//43 49//49
f 7//7 106//106 3//3
f 2//2 108//108 180//180
f 4//4 179//179 183//183
f 181//181 178//178 184//184
f 182//182 187//187 189//189
f 39//39 191//191 33//33
f 32//32 190//190 192//192
f 31//31 193//193 196//196
f 195//195 194//194 200//200
f 197//197 198//198 201//201
f 202//202 199//199 205//205
f 203//203 206//206 207//207
f 208//208 204//204 210//210
f 209//209 211//211 29//29
f 28//28 212//212 215//215
f 27//27 214//214 25//25
f 24//24 213//213 216//216
f 15//15 217//217 8//8
f 9//9 218//218 220//220
f 10//10 219//219 223//223
f 222//222 221//221 225//225
f 224//224 226//226 154//154
f 152//152 227//227 228//228
f 155//155 229//229 158//158
f 188//188 185//185 230//230
f 231//231 186//186 233//233
f 232//232 234//234 238//238
f 236//236 235//235 240//240
f 237//237 241//241 242//242
f 243//243 239//239 245//245
f 244//244 246//246 113//113
f 114//114 247//247 248//248
f 116//116 249//249 117//117

