mtllib material.mtl
usemtl material_0
v -0.09887033 0.04305267 0.01895385
v -0.09887033 0.04305267 0.01895385
v -0.09887033 0.04305267 0.01895385
v -0.09887033 0.04305267 0.01895385
v -0.09887033 0.04305267 0.01895385
v -0.09887033 0.04305267 0.01895385
v -0.09887033 0.04305267 0.01895385
v -0.09867203 0.04299545 0.01897025
v -0.09832322 0.04301190 0.01899737
v -0.09832322 0.04301190 0.01899737
v -0.09832322 0.04301190 0.01899737
v -0.09832322 0.04301190 0.01899737
v -0.09832322 0.04301190 0.01899737
v -0.09832322 0.04301190 0.01899737
v -0.09832322 0.04301190 0.01899737
v -0.09832322 0.04301190 0.01899737
v -0.09832322 0.04301190 0.01899737
v -0.09832322 0.04301190 0.01899737
v -0.09812378 0.04445165 0.01899152
v -0.09812378 0.04445165 0.01899152
v -0.09812378 0.04445165 0.01899152
v -0.09833717 0.04449123 0.01897418
v -0.09834706 0.04448986 0.01897341
v -0.09834706 0.04448986 0.01897341
v -0.09834706 0.04448986 0.01897341
v -0.09799951 0.04439610 0.01900207
v -0.09799951 0.04439610 0.01900207
v -0.09794813 0.04323452 0.01902347
v -0.09776902 0.04348504 0.01903378
v -0.09776902 0.04348504 0.01903378
v -0.09768974 0.04378360 0.01903551
v -0.09768974 0.04378360 0.01903551
v -0.09771913 0.04407709 0.01902884
v -0.09771913 0.04407709 0.01902884
v -0.09788656 0.04431980 0.01901209
v -0.09788656 0.04431980 0.01901209
v -0.09835696 0.04448920 0.01897263
v -0.09835696 0.04448920 0.01897263
v -0.09835696 0.04448920 0.01897263
v -0.09860563 0.04446196 0.01895356
v -0.09860563 0.04446196 0.01895356
v -0.09883397 0.04435950 0.01893717
v -0.09883397 0.04435950 0.01893717
v -0.09920185 0.04342371 0.01892232
v -0.09903854 0.04316210 0.01893901
v -0.09903854 0.04316210 0.01893901
v -0.09922170 0.04375052 0.01891589
v -0.09922170 0.04375052 0.01891589
v -0.09922170 0.04375052 0.01891589
v -0.09908688 0.04411119 0.01892107
v -0.09908688 0.04411119 0.01892107
vn -0.07819000 0.01491000 0.99683000
vn -0.07818000 0.01489000 0.99683000
vn -0.07820000 0.01489000 0.99683000
vn -0.07820000 0.01489000 0.99683000
vn -0.07819000 0.01489000 0.99683000
vn -0.07818000 0.01489000 0.99683000
vn -0.07820000 0.01489000 0.99683000
vn -0.07819000 0.01491000 0.99683000
vn -0.07816000 0.01490000 0.99683000
vn -0.07819000 0.01491000 0.99683000
vn -0.07822000 0.01490000 0.99682000
vn -0.07819000 0.01489000 0.99683000
vn -0.07818000 0.01489000 0.99683000
vn -0.07819000 0.01490000 0.99683000
vn -0.07821000 0.01489000 0.99683000
vn -0.07821000 0.01489000 0.99683000
vn -0.07818000 0.01488000 0.99683000
vn -0.07819000 0.01489000 0.99683000
vn -0.07821000 0.01489000 0.99683000
vn -0.07816000 0.01490000 0.99683000
vn -0.07824000 0.01476000 0.99683000
vn -0.07830000 0.01458000 0.99682000
vn -0.07821000 0.01475000 0.99683000
vn -0.07821000 0.01489000 0.99683000
vn -0.07787000 0.01489000 0.99685000
vn -0.07816000 0.01490000 0.99683000
vn -0.07822000 0.01490000 0.99682000
vn -0.07819000 0.01489000 0.99683000
vn -0.07819000 0.01489000 0.99683000
vn -0.07819000 0.01490000 0.99683000
vn -0.07819000 0.01490000 0.99683000
vn -0.07818000 0.01488000 0.99683000
vn -0.07818000 0.01488000 0.99683000
vn -0.07819000 0.01489000 0.99683000
vn -0.07822000 0.01490000 0.99682000
vn -0.07819000 0.01489000 0.99683000
vn -0.07819000 0.01489000 0.99683000
vn -0.07818000 0.01489000 0.99683000
vn -0.07787000 0.01489000 0.99685000
vn -0.07820000 0.01489000 0.99683000
vn -0.07819000 0.01489000 0.99683000
vn -0.07820000 0.01489000 0.99683000
vn -0.07818000 0.01489000 0.99683000
vn -0.07824000 0.01490000 0.99682000
vn -0.07824000 0.01490000 0.99682000
vn -0.07820000 0.01489000 0.99683000
vn -0.07824000 0.01490000 0.99682000
vn -0.07820000 0.01489000 0.99683000
vn -0.07820000 0.01489000 0.99683000
vn -0.07820000 0.01489000 0.99683000
vn -0.07818000 0.01489000 0.99683000
f 1//1 8//8 10//10
f 21//21 22//22 23//23
f 9//9 26//26 20//20
f 28//28 29//29 12//12
f 14//14 30//30 31//31
f 32//32 33//33 17//17
f 18//18 34//34 36//36
f 11//11 35//35 27//27
f 19//19 24//24 16//16
f 15//15 25//25 39//39
f 13//13 38//38 2//2
f 5//5 37//37 41//41
f 3//3 40//40 42//42
f 44//44 45//45 47//47
f 48//48 46//46 4//4
f 49//49 7//7 50//50
f 51//51 6//6 43//43

