mtllib material.mtl
usemtl material_0
v 0.28506700 0.01028597 0.04719996
v 0.28506700 0.01028597 0.04719996
v 0.28357830 0.01022595 0.04719996
v 0.28357830 0.01022595 0.04719996
v 0.28357830 0.01022595 0.04719996
v 0.28357830 0.01022595 0.04699999
v 0.28357830 0.01022595 0.04699999
v 0.28357830 0.01022595 0.04699999
v 0.28208970 0.01028597 0.04699999
v 0.28208970 0.01028597 0.04699999
v 0.28208970 0.01028597 0.04699999
v 0.28208970 0.01028597 0.04719996
v 0.28208970 0.01028597 0.04719996
v 0.28208970 0.01028597 0.04719996
v 0.27915100 0.01076352 0.04719996
v 0.27915100 0.01076352 0.04719996
v 0.27915100 0.01076352 0.04719996
v 0.27915100 0.01076352 0.04699999
v 0.27915100 0.01076352 0.04699999
v 0.27915100 0.01076352 0.04699999
v 0.27632700 0.01170635 0.04719996
v 0.27632700 0.01170635 0.04719996
v 0.27632700 0.01170635 0.04719996
v 0.27632700 0.01170635 0.04699999
v 0.27632700 0.01170635 0.04699999
v 0.27632700 0.01170635 0.04699999
v 0.27369070 0.01308995 0.04719996
v 0.27369070 0.01308995 0.04719996
v 0.27369070 0.01308995 0.04719996
v 0.27369070 0.01308995 0.04699999
v 0.27369070 0.01308995 0.04699999
v 0.27369070 0.01308995 0.04699999
v 0.27131060 0.01487851 0.04719996
v 0.27131060 0.01487851 0.04719996
v 0.27131060 0.01487851 0.04719996
v 0.27131060 0.01487851 0.04699999
v 0.27131060 0.01487851 0.04699999
v 0.27131060 0.01487851 0.04699999
v 0.26924810 0.01702570 0.04719996
v 0.26924810 0.01702570 0.04719996
v 0.26924810 0.01702570 0.04719996
v 0.26924810 0.01702570 0.04699999
v 0.26924810 0.01702570 0.04699999
v 0.26924810 0.01702570 0.04699999
v 0.26755690 0.01947593 0.04719996
v 0.26755690 0.01947593 0.04719996
v 0.26755690 0.01947593 0.04719996
v 0.26755690 0.01947593 0.04699999
v 0.26755690 0.01947593 0.04699999
v 0.26755690 0.01947593 0.04699999
v 0.26628050 0.02216577 0.04719996
v 0.26628050 0.02216577 0.04719996
v 0.26628050 0.02216577 0.04719996
v 0.26628050 0.02216577 0.04699999
v 0.26628050 0.02216577 0.04699999
v 0.26545220 0.02502548 0.04719996
v 0.26545220 0.02502548 0.04719996
v 0.26545220 0.02502548 0.04699999
v 0.26545220 0.02502548 0.04699999
v 0.26545220 0.02502548 0.04699999
v 0.26509330 0.02798104 0.04719996
v 0.26509330 0.02798104 0.04719996
v 0.26509330 0.02798104 0.04699999
v 0.26509330 0.02798104 0.04699999
v 0.26509330 0.02798104 0.04699999
v 0.26521320 0.03095591 0.04719996
v 0.26521320 0.03095591 0.04719996
v 0.26521320 0.03095591 0.04699999
v 0.26521320 0.03095591 0.04699999
v 0.26521320 0.03095591 0.04699999
v 0.26580880 0.03387296 0.04719996
v 0.26580880 0.03387296 0.04719996
v 0.26580880 0.03387296 0.04699999
v 0.26580880 0.03387296 0.04699999
v 0.26580880 0.03387296 0.04699999
v 0.26686450 0.03665679 0.04719996
v 0.26686450 0.03665679 0.04719996
v 0.26686450 0.03665679 0.04719996
v 0.26686450 0.03665679 0.04699999
v 0.26686450 0.03665679 0.04699999
v 0.26835310 0.03923517 0.04719996
v 0.26835310 0.03923517 0.04719996
v 0.26835310 0.03923517 0.04719996
v 0.26835310 0.03923517 0.04699999
v 0.26835310 0.03923517 0.04699999
v 0.26835310 0.03923517 0.04699999
v 0.27023610 0.04154133 0.04719996
v 0.27023610 0.04154133 0.04719996
v 0.27023610 0.04154133 0.04719996
v 0.27023610 0.04154133 0.04699999
v 0.27023610 0.04154133 0.04699999
v 0.27023610 0.04154133 0.04699999
v 0.27246460 0.04351562 0.04719996
v 0.27246460 0.04351562 0.04719996
v 0.27246460 0.04351562 0.04719996
v 0.27246460 0.04351562 0.04699999
v 0.27246460 0.04351562 0.04699999
v 0.27246460 0.04351562 0.04699999
v 0.27498100 0.04510688 0.04719996
v 0.27498100 0.04510688 0.04719996
v 0.27498100 0.04510688 0.04719996
v 0.27498100 0.04510688 0.04699999
v 0.27498100 0.04510688 0.04699999
v 0.27498100 0.04510688 0.04699999
v 0.27772000 0.04627388 0.04719996
v 0.27772000 0.04627388 0.04719996
v 0.27772000 0.04627388 0.04719996
v 0.27772000 0.04627388 0.04699999
v 0.27772000 0.04627388 0.04699999
v 0.27772000 0.04627388 0.04699999
v 0.28061070 0.04698640 0.04719996
v 0.28061070 0.04698640 0.04719996
v 0.28061070 0.04698640 0.04719996
v 0.28061070 0.04698640 0.04699999
v 0.28061070 0.04698640 0.04699999
v 0.28061070 0.04698640 0.04699999
v 0.28357830 0.04722595 0.04719996
v 0.28357830 0.04722595 0.04719996
v 0.28357830 0.04722595 0.04719996
v 0.28357830 0.04722595 0.04699999
v 0.28357830 0.04722595 0.04699999
v 0.28357830 0.04722595 0.04699999
v 0.28654590 0.04698640 0.04719996
v 0.28654590 0.04698640 0.04719996
v 0.28654590 0.04698640 0.04719996
v 0.28654590 0.04698640 0.04699999
v 0.28654590 0.04698640 0.04699999
v 0.28654590 0.04698640 0.04699999
v 0.28943670 0.04627388 0.04719996
v 0.28943670 0.04627388 0.04719996
v 0.28943670 0.04627388 0.04719996
v 0.28943670 0.04627388 0.04699999
v 0.28943670 0.04627388 0.04699999
v 0.28943670 0.04627388 0.04699999
v 0.29217570 0.04510688 0.04719996
v 0.29217570 0.04510688 0.04719996
v 0.29217570 0.04510688 0.04719996
v 0.29217570 0.04510688 0.04699999
v 0.29217570 0.04510688 0.04699999
v 0.29217570 0.04510688 0.04699999
v 0.29469200 0.04351562 0.04719996
v 0.29469200 0.04351562 0.04719996
v 0.29469200 0.04351562 0.04719996
v 0.29469200 0.04351562 0.04699999
v 0.29469200 0.04351562 0.04699999
v 0.29469200 0.04351562 0.04699999
v 0.29692060 0.04154133 0.04719996
v 0.29692060 0.04154133 0.04719996
v 0.29692060 0.04154133 0.04719996
v 0.29692060 0.04154133 0.04699999
v 0.29692060 0.04154133 0.04699999
v 0.29692060 0.04154133 0.04699999
v 0.29880350 0.03923517 0.04719996
v 0.29880350 0.03923517 0.04719996
v 0.29880350 0.03923517 0.04719996
v 0.29880350 0.03923517 0.04699999
v 0.29880350 0.03923517 0.04699999
v 0.29880350 0.03923517 0.04699999
v 0.30029210 0.03665679 0.04719996
v 0.30029210 0.03665679 0.04719996
v 0.30029210 0.03665679 0.04699999
v 0.30029210 0.03665679 0.04699999
v 0.30029210 0.03665679 0.04699999
v 0.30134790 0.03387296 0.04719996
v 0.30134790 0.03387296 0.04719996
v 0.30134790 0.03387296 0.04699999
v 0.30134790 0.03387296 0.04699999
v 0.30134790 0.03387296 0.04699999
v 0.30194340 0.03095591 0.04719996
v 0.30194340 0.03095591 0.04719996
v 0.30194340 0.03095591 0.04699999
v 0.30194340 0.03095591 0.04699999
v 0.30194340 0.03095591 0.04699999
v 0.30206340 0.02798104 0.04719996
v 0.30206340 0.02798104 0.04719996
v 0.30206340 0.02798104 0.04699999
v 0.30206340 0.02798104 0.04699999
v 0.30206340 0.02798104 0.04699999
v 0.30170450 0.02502548 0.04719996
v 0.30170450 0.02502548 0.04719996
v 0.30170450 0.02502548 0.04719996
v 0.30170450 0.02502548 0.04699999
v 0.30170450 0.02502548 0.04699999
v 0.30170450 0.02502548 0.04699999
v 0.30087620 0.02216577 0.04719996
v 0.30087620 0.02216577 0.04719996
v 0.30087620 0.02216577 0.04719996
v 0.30087620 0.02216577 0.04699999
v 0.30087620 0.02216577 0.04699999
v 0.30087620 0.02216577 0.04699999
v 0.29959980 0.01947593 0.04719996
v 0.29959980 0.01947593 0.04719996
v 0.29959980 0.01947593 0.04719996
v 0.29959980 0.01947593 0.04699999
v 0.29959980 0.01947593 0.04699999
v 0.29959980 0.01947593 0.04699999
v 0.29790850 0.01702570 0.04719996
v 0.29790850 0.01702570 0.04719996
v 0.29790850 0.01702570 0.04719996
v 0.29790850 0.01702570 0.04699999
v 0.29790850 0.01702570 0.04699999
v 0.29790850 0.01702570 0.04699999
v 0.29584610 0.01487851 0.04719996
v 0.29584610 0.01487851 0.04719996
v 0.29584610 0.01487851 0.04719996
v 0.29584610 0.01487851 0.04699999
v 0.29584610 0.01487851 0.04699999
v 0.29584610 0.01487851 0.04699999
v 0.29346600 0.01308995 0.04719996
v 0.29346600 0.01308995 0.04719996
v 0.29346600 0.01308995 0.04719996
v 0.29346600 0.01308995 0.04699999
v 0.29346600 0.01308995 0.04699999
v 0.29346600 0.01308995 0.04699999
v 0.29082970 0.01170635 0.04719996
v 0.29082970 0.01170635 0.04719996
v 0.29082970 0.01170635 0.04719996
v 0.29082970 0.01170635 0.04699999
v 0.29082970 0.01170635 0.04699999
v 0.29082970 0.01170635 0.04699999
v 0.28800570 0.01076352 0.04719996
v 0.28800570 0.01076352 0.04719996
v 0.28800570 0.01076352 0.04719996
v 0.28800570 0.01076352 0.04699999
v 0.28800570 0.01076352 0.04699999
v 0.28800570 0.01076352 0.04699999
v 0.28506700 0.01028597 0.04699999
v 0.28506700 0.01028597 0.04699999
v 0.28506700 0.01028597 0.04699999
v 0.28357830 0.02872598 0.04719996
v 0.28357830 0.02872598 0.04719996
v 0.28357830 0.02872598 0.04719996
v 0.28357830 0.02872598 0.04719996
v 0.28357830 0.02872598 0.04719996
v 0.28357830 0.02872598 0.04719996
v 0.28357830 0.02872598 0.04719996
v 0.28357830 0.02872598 0.04719996
v 0.28357830 0.02872598 0.04719996
v 0.28357830 0.02872598 0.04719996
v 0.28357830 0.02872598 0.04719996
v 0.28357830 0.02872598 0.04719996
v 0.28357830 0.02872598 0.04719996
v 0.28357830 0.02872598 0.04719996
v 0.28357830 0.02872598 0.04719996
v 0.28357830 0.02872598 0.04719996
v 0.28357830 0.02872598 0.04719996
v 0.28357830 0.02872598 0.04719996
v 0.28357830 0.02872598 0.04719996
v 0.28357830 0.02872598 0.04719996
v 0.28357830 0.02872598 0.04719996
v 0.28357830 0.02872598 0.04699999
v 0.28357830 0.02872598 0.04699999
v 0.28357830 0.02872598 0.04699999
v 0.28357830 0.02872598 0.04699999
v 0.28357830 0.02872598 0.04699999
v 0.28357830 0.02872598 0.04699999
v 0.28357830 0.02872598 0.04699999
v 0.28357830 0.02872598 0.04699999
v 0.28357830 0.02872598 0.04699999
v 0.28357830 0.02872598 0.04699999
v 0.28357830 0.02872598 0.04699999
v 0.28357830 0.02872598 0.04699999
v 0.28357830 0.02872598 0.04699999
v 0.28357830 0.02872598 0.04699999
v 0.28357830 0.02872598 0.04699999
v 0.28357830 0.02872598 0.04699999
v 0.28357830 0.02872598 0.04699999
v 0.28357830 0.02872598 0.04699999
v 0.28357830 0.02872598 0.04699999
v 0.28357830 0.02872598 0.04699999
v 0.28357830 0.02872598 0.04699999
v 0.28357830 0.02872598 0.04699999
v 0.28357830 0.02872598 0.04699999
v 0.28357830 0.02872598 0.04699999
v 0.28357830 0.02872598 0.04699999
vn 0.10052000 -0.99493000 0.00000000
vn 0.00000000 0.00000000 1.00000000
vn -0.01343000 -0.99991000 0.00000000
vn -0.00000000 0.00000000 1.00000000
vn 0.00000000 0.00000000 1.00000000
vn 0.01344000 -0.99991000 0.00000000
vn 0.00000000 0.00000000 -1.00000000
vn -0.00000000 0.00000000 -1.00000000
vn -0.10052000 -0.99494000 0.00000000
vn 0.00000000 0.00000000 -1.00000000
vn -0.00000000 0.00000000 -1.00000000
vn -0.00000000 0.00000000 1.00000000
vn -0.00000000 0.00000000 1.00000000
vn -0.10052000 -0.99494000 0.00000000
vn 0.00000000 0.00000000 1.00000000
vn -0.21313000 -0.97702000 0.00000000
vn -0.00000000 0.00000000 1.00000000
vn 0.00000000 0.00000000 -1.00000000
vn -0.26533000 -0.96416000 -0.00000000
vn -0.00000000 0.00000000 -1.00000000
vn -0.00000000 0.00000000 1.00000000
vn 0.00000000 0.00000000 1.00000000
vn -0.36711000 -0.93018000 0.00000000
vn -0.00000000 0.00000000 -1.00000000
vn -0.41656000 -0.90911000 0.00000000
vn 0.00000000 0.00000000 -1.00000000
vn -0.00000000 0.00000000 1.00000000
vn -0.00000000 0.00000000 1.00000000
vn -0.51154000 -0.85926000 0.00000000
vn 0.00000000 0.00000000 -1.00000000
vn -0.00000000 0.00000000 -1.00000000
vn -0.55702000 -0.83050000 0.00000000
vn -0.64276000 -0.76607000 0.00000000
vn -0.00000000 0.00000000 1.00000000
vn 0.00000000 0.00000000 1.00000000
vn 0.00000000 0.00000000 -1.00000000
vn 0.00000000 0.00000000 -1.00000000
vn -0.68300000 -0.73042000 0.00001000
vn 0.00000000 0.00000000 1.00000000
vn 0.00000000 0.00000000 1.00000000
vn -0.75733000 -0.65303000 0.00000000
vn 0.00000000 0.00000000 -1.00000000
vn -0.79133000 -0.61139000 0.00000000
vn 0.00000000 0.00000000 -1.00000000
vn -0.85227000 -0.52310000 0.00000000
vn 0.00000000 0.00000000 1.00000000
vn -0.00000000 0.00000000 1.00000000
vn 0.00000000 0.00000000 -1.00000000
vn -0.87915000 -0.47654000 0.00000000
vn 0.00000000 0.00000000 -1.00000000
vn 0.00000000 0.00000000 1.00000000
vn -0.92515000 -0.37961000 0.00000000
vn -0.00000000 0.00000000 1.00000000
vn 0.00000000 0.00000000 -1.00000000
vn -0.94421000 -0.32934000 0.00001000
vn 0.00000000 0.00000000 1.00000000
vn -0.97405000 -0.22633000 0.00000000
vn -0.00000000 0.00000000 -1.00000000
vn -0.98482000 -0.17361000 -0.00000000
vn 0.00000000 0.00000000 -1.00000000
vn -0.99775000 -0.06711000 0.00000000
vn 0.00000000 0.00000000 1.00000000
vn 0.00000000 0.00000000 -1.00000000
vn -0.00000000 0.00000000 -1.00000000
vn -0.99991000 -0.01340000 0.00000000
vn -0.99559000 0.09380000 0.00000000
vn 0.00000000 0.00000000 1.00000000
vn 0.00000000 0.00000000 -1.00000000
vn -0.98911000 0.14717000 0.00000000
vn 0.00000000 0.00000000 -1.00000000
vn -0.96765000 0.25230000 0.00000000
vn 0.00000000 0.00000000 1.00000000
vn 0.00000000 0.00000000 -1.00000000
vn 0.00000000 0.00000000 -1.00000000
vn -0.95269000 0.30394000 0.00000000
vn 0.00000000 0.00000000 1.00000000
vn 0.00000000 0.00000000 1.00000000
vn -0.91465000 0.40425000 0.00000000
vn 0.00000000 0.00000000 -1.00000000
vn -0.89160000 0.45282000 0.00001000
vn 0.00000000 0.00000000 1.00000000
vn -0.83795000 0.54575000 0.00000000
vn 0.00000000 0.00000000 1.00000000
vn -0.00000000 0.00000000 -1.00000000
vn 0.00000000 0.00000000 -1.00000000
vn -0.80741000 0.58999000 0.00001000
vn 0.00000000 0.00000000 1.00000000
vn -0.00000000 0.00000000 1.00000000
vn -0.73956000 0.67309000 0.00000000
vn 0.00000000 0.00000000 -1.00000000
vn -0.00000000 0.00000000 -1.00000000
vn -0.70232000 0.71186000 0.00000000
vn 0.00000000 0.00000000 1.00000000
vn -0.62202000 0.78300000 -0.00001000
vn -0.00000000 0.00000000 1.00000000
vn 0.00000000 0.00000000 -1.00000000
vn 0.00000000 0.00000000 -1.00000000
vn -0.57904000 0.81530000 0.00000000
vn 0.00000000 0.00000000 1.00000000
vn 0.00000000 0.00000000 1.00000000
vn -0.48835000 0.87265000 0.00000000
vn -0.00000000 0.00000000 -1.00000000
vn -0.44075000 0.89763000 0.00001000
vn 0.00000000 0.00000000 -1.00000000
vn 0.00000000 0.00000000 1.00000000
vn -0.34205000 0.93968000 0.00000000
vn 0.00000000 0.00000000 1.00000000
vn -0.29106000 0.95671000 -0.00000000
vn -0.00000000 0.00000000 -1.00000000
vn -0.00000000 0.00000000 -1.00000000
vn -0.18689000 0.98238000 0.00000000
vn 0.00000000 0.00000000 1.00000000
vn -0.00000000 0.00000000 1.00000000
vn 0.00000000 0.00000000 -1.00000000
vn -0.13383000 0.99100000 0.00000000
vn -0.00000000 0.00000000 -1.00000000
vn -0.00000000 0.00000000 1.00000000
vn -0.02688000 0.99964000 0.00000000
vn 0.00000000 0.00000000 1.00000000
vn 0.02688000 0.99964000 0.00000000
vn 0.00000000 0.00000000 -1.00000000
vn 0.00000000 0.00000000 -1.00000000
vn 0.13382000 0.99101000 0.00000000
vn 0.00000000 0.00000000 1.00000000
vn -0.00000000 0.00000000 1.00000000
vn 0.00000000 0.00000000 -1.00000000
vn 0.00000000 0.00000000 -1.00000000
vn 0.18688000 0.98238000 0.00001000
vn 0.00000000 0.00000000 1.00000000
vn -0.00000000 0.00000000 1.00000000
vn 0.29107000 0.95670000 0.00000000
vn 0.00000000 0.00000000 -1.00000000
vn 0.34206000 0.93968000 0.00000000
vn 0.00000000 0.00000000 -1.00000000
vn 0.44076000 0.89763000 0.00000000
vn 0.00000000 0.00000000 1.00000000
vn -0.00000000 0.00000000 1.00000000
vn 0.00000000 0.00000000 -1.00000000
vn 0.48836000 0.87264000 -0.00000000
vn 0.00000000 0.00000000 -1.00000000
vn -0.00000000 0.00000000 1.00000000
vn 0.00000000 0.00000000 1.00000000
vn 0.57904000 0.81530000 -0.00001000
vn -0.00000000 0.00000000 -1.00000000
vn 0.62201000 0.78301000 0.00000000
vn 0.00000000 0.00000000 -1.00000000
vn 0.00000000 0.00000000 1.00000000
vn 0.00000000 0.00000000 1.00000000
vn 0.70232000 0.71186000 0.00000000
vn 0.00000000 0.00000000 -1.00000000
vn -0.00000000 0.00000000 -1.00000000
vn 0.73959000 0.67306000 0.00000000
vn 0.80742000 0.58998000 0.00000000
vn 0.00000000 0.00000000 1.00000000
vn 0.00000000 0.00000000 1.00000000
vn -0.00000000 0.00000000 -1.00000000
vn 0.00000000 0.00000000 -1.00000000
vn 0.83796000 0.54574000 -0.00000000
vn 0.00000000 0.00000000 1.00000000
vn 0.89160000 0.45283000 0.00000000
vn -0.00000000 0.00000000 -1.00000000
vn 0.00000000 0.00000000 -1.00000000
vn 0.91466000 0.40422000 0.00000000
vn 0.95269000 0.30393000 0.00000000
vn 0.00000000 0.00000000 1.00000000
vn 0.00000000 0.00000000 -1.00000000
vn 0.96765000 0.25230000 0.00000000
vn -0.00000000 0.00000000 -1.00000000
vn 0.00000000 0.00000000 1.00000000
vn 0.98911000 0.14717000 0.00000000
vn -0.00000000 0.00000000 -1.00000000
vn 0.99559000 0.09381000 0.00000000
vn 0.00000000 0.00000000 -1.00000000
vn 0.00000000 0.00000000 1.00000000
vn 0.99991000 -0.01339000 0.00000000
vn 0.00000000 0.00000000 -1.00000000
vn 0.00000000 0.00000000 -1.00000000
vn 0.99775000 -0.06711000 0.00000000
vn 0.00000000 0.00000000 1.00000000
vn -0.00000000 0.00000000 1.00000000
vn 0.98481000 -0.17362000 0.00000000
vn 0.00000000 0.00000000 -1.00000000
vn 0.97406000 -0.22629000 0.00000000
vn 0.00000000 0.00000000 -1.00000000
vn 0.00000000 0.00000000 1.00000000
vn 0.94421000 -0.32935000 0.00000000
vn -0.00000000 0.00000000 1.00000000
vn 0.92514000 -0.37962000 0.00000000
vn 0.00000000 0.00000000 -1.00000000
vn -0.00000000 0.00000000 -1.00000000
vn 0.87915000 -0.47654000 0.00000000
vn 0.00000000 0.00000000 1.00000000
vn -0.00000000 0.00000000 1.00000000
vn 0.85228000 -0.52309000 0.00000000
vn -0.00000000 0.00000000 -1.00000000
vn -0.00000000 0.00000000 -1.00000000
vn 0.79133000 -0.61139000 0.00000000
vn 0.00000000 0.00000000 1.00000000
vn -0.00000000 0.00000000 1.00000000
vn -0.00000000 0.00000000 -1.00000000
vn 0.00000000 0.00000000 -1.00000000
vn 0.75733000 -0.65303000 0.00001000
vn 0.68300000 -0.73042000 0.00000000
vn 0.00000000 0.00000000 1.00000000
vn 0.00000000 0.00000000 1.00000000
vn 0.00000000 0.00000000 -1.00000000
vn 0.64276000 -0.76606000 0.00000000
vn -0.00000000 0.00000000 -1.00000000
vn 0.00000000 0.00000000 1.00000000
vn 0.00000000 0.00000000 1.00000000
vn 0.55700000 -0.83051000 0.00000000
vn 0.00000000 0.00000000 -1.00000000
vn -0.00000000 0.00000000 -1.00000000
vn 0.51156000 -0.85925000 0.00001000
vn 0.41654000 -0.90912000 0.00000000
vn -0.00000000 0.00000000 1.00000000
vn 0.00000000 0.00000000 1.00000000
vn 0.00000000 0.00000000 -1.00000000
vn 0.00000000 0.00000000 -1.00000000
vn 0.36709000 -0.93019000 0.00000000
vn 0.00000000 0.00000000 1.00000000
vn -0.00000000 0.00000000 1.00000000
vn 0.26533000 -0.96416000 0.00000000
vn 0.21314000 -0.97702000 0.00000000
vn 0.00000000 0.00000000 -1.00000000
vn 0.00000000 0.00000000 -1.00000000
vn 0.00000000 0.00000000 -1.00000000
vn 0.10052000 -0.99493000 0.00000000
vn -0.00000000 0.00000000 -1.00000000
vn 0.00000000 0.00000000 1.00000000
vn -0.00000000 0.00000000 1.00000000
vn 0.00000000 0.00000000 1.00000000
vn 0.00000000 0.00000000 1.00000000
vn -0.00000000 0.00000000 1.00000000
vn 0.00000000 0.00000000 1.00000000
vn 0.00000000 0.00000000 1.00000000
vn -0.00000000 0.00000000 1.00000000
vn -0.00000000 0.00000000 1.00000000
vn -0.00000000 0.00000000 1.00000000
vn 0.00000000 0.00000000 1.00000000
vn -0.00000000 0.00000000 1.00000000
vn -0.00000000 0.00000000 1.00000000
vn 0.00000000 0.00000000 1.00000000
vn -0.00000000 0.00000000 1.00000000
vn 0.00000000 0.00000000 1.00000000
vn 0.00000000 0.00000000 1.00000000
vn 0.00000000 0.00000000 1.00000000
vn -0.00000000 0.00000000 1.00000000
vn -0.00000000 0.00000000 1.00000000
vn -0.00000000 0.00000000 1.00000000
vn 0.00000000 0.00000000 -1.00000000
vn -0.00000000 0.00000000 -1.00000000
vn 0.00000000 0.00000000 -1.00000000
vn 0.00000000 0.00000000 -1.00000000
vn -0.00000000 0.00000000 -1.00000000
vn -0.00000000 0.00000000 -1.00000000
vn 0.00000000 0.00000000 -1.00000000
vn 0.00000000 0.00000000 -1.00000000
vn 0.00000000 0.00000000 -1.00000000
vn -0.00000000 0.00000000 -1.00000000
vn -0.00000000 0.00000000 -1.00000000
vn 0.00000000 0.00000000 -1.00000000
vn -0.00000000 0.00000000 -1.00000000
vn 0.00000000 0.00000000 -1.00000000
vn -0.00000000 0.00000000 -1.00000000
vn 0.00000000 0.00000000 -1.00000000
vn -0.00000000 0.00000000 -1.00000000
vn 0.00000000 0.00000000 -1.00000000
vn -0.00000000 0.00000000 -1.00000000
vn 0.00000000 0.00000000 -1.00000000
vn -0.00000000 0.00000000 -1.00000000
vn -0.00000000 0.00000000 -1.00000000
vn -0.00000000 0.00000000 -1.00000000
vn 0.00000000 0.00000000 -1.00000000
vn -0.00000000 0.00000000 -1.00000000
f 1//1 3//3 6//6
f 6//6 3//3 9//9
f 3//3 14//14 9//9
f 9//9 14//14 16//16
f 9//9 16//16 19//19
f 19//19 16//16 23//23
f 19//19 23//23 25//25
f 25//25 23//23 29//29
f 25//25 29//29 32//32
f 32//32 29//29 33//33
f 32//32 33//33 38//38
f 38//38 33//33 41//41
f 38//38 41//41 43//43
f 43//43 41//41 45//45
f 43//43 45//45 49//49
f 49//49 45//45 52//52
f 49//49 52//52 55//55
f 55//55 52//52 57//57
f 55//55 57//57 59//59
f 59//59 57//57 61//61
f 59//59 61//61 65//65
f 65//65 61//61 66//66
f 65//65 66//66 69//69
f 69//69 66//66 71//71
f 69//69 71//71 75//75
f 75//75 71//71 78//78
f 75//75 78//78 80//80
f 80//80 78//78 82//82
f 80//80 82//82 86//86
f 86//86 82//82 89//89
f 86//86 89//89 92//92
f 92//92 89//89 94//94
f 92//92 94//94 98//98
f 98//98 94//94 101//101
f 98//98 101//101 103//103
f 103//103 101//101 106//106
f 103//103 106//106 108//108
f 108//108 106//106 111//111
f 108//108 111//111 115//115
f 115//115 111//111 118//118
f 115//115 118//118 120//120
f 120//120 118//118 123//123
f 120//120 123//123 128//128
f 128//128 123//123 131//131
f 128//128 131//131 133//133
f 133//133 131//131 135//135
f 133//133 135//135 139//139
f 139//139 135//135 143//143
f 139//139 143//143 145//145
f 145//145 143//143 149//149
f 145//145 149//149 152//152
f 152//152 149//149 153//153
f 152//152 153//153 158//158
f 158//158 153//153 160//160
f 158//158 160//160 163//163
f 163//163 160//160 164//164
f 163//163 164//164 167//167
f 167//167 164//164 170//170
f 167//167 170//170 172//172
f 172//172 170//170 175//175
f 172//172 175//175 178//178
f 178//178 175//175 181//181
f 178//178 181//181 183//183
f 183//183 181//181 186//186
f 183//183 186//186 188//188
f 188//188 186//186 191//191
f 188//188 191//191 194//194
f 194//194 191//191 197//197
f 194//194 197//197 202//202
f 202//202 197//197 203//203
f 202//202 203//203 207//207
f 207//207 203//203 211//211
f 207//207 211//211 214//214
f 214//214 211//211 215//215
f 214//214 215//215 220//220
f 220//220 215//215 223//223
f 220//220 223//223 224//224
f 224//224 223//223 1//1
f 224//224 1//1 228//228
f 228//228 1//1 6//6
f 5//5 2//2 246//246
f 22//22 15//15 246//246
f 250//250 17//17 13//13
f 249//249 12//12 4//4
f 40//40 35//35 246//246
f 248//248 34//34 27//27
f 239//239 28//28 21//21
f 56//56 51//51 246//246
f 238//238 53//53 47//47
f 243//243 46//46 39//39
f 72//72 67//67 246//246
f 246//246 67//67 62//62
f 246//246 62//62 56//56
f 87//87 81//81 246//246
f 236//236 83//83 76//76
f 246//246 77//77 72//72
f 107//107 100//100 246//246
f 233//233 99//99 93//93
f 239//239 95//95 88//88
f 124//124 119//119 246//246
f 231//231 117//117 113//113
f 230//230 112//112 105//105
f 141//141 137//137 234//234
f 235//235 136//136 129//129
f 237//237 130//130 125//125
f 159//159 154//154 246//246
f 232//232 155//155 147//147
f 247//247 148//148 142//142
f 174//174 169//169 246//246
f 246//246 169//169 165//165
f 246//246 165//165 159//159
f 192//192 185//185 240//240
f 241//241 187//187 180//180
f 246//246 179//179 174//174
f 209//209 204//204 246//246
f 235//235 205//205 198//198
f 242//242 199//199 193//193
f 2//2 221//221 246//246
f 244//244 222//222 216//216
f 245//245 217//217 210//210
f 7//7 10//10 264//264
f 218//218 226//226 264//264
f 262//262 225//225 227//227
f 260//260 229//229 8//8
f 201//201 206//206 264//264
f 256//256 208//208 213//213
f 259//259 212//212 219//219
f 182//182 189//189 264//264
f 261//261 190//190 195//195
f 263//263 196//196 200//200
f 168//168 171//171 265//265
f 264//264 173//173 177//177
f 266//266 176//176 184//184
f 150//150 157//157 264//264
f 267//267 156//156 161//161
f 264//264 162//162 166//166
f 134//134 138//138 264//264
f 268//268 140//140 146//146
f 269//269 144//144 151//151
f 114//114 122//122 264//264
f 270//270 121//121 126//126
f 257//257 127//127 132//132
f 96//96 104//104 264//264
f 271//271 102//102 109//109
f 272//272 110//110 116//116
f 79//79 85//85 264//264
f 273//273 84//84 91//91
f 258//258 90//90 97//97
f 63//63 70//70 268//268
f 274//274 68//68 73//73
f 264//264 74//74 79//79
f 50//50 54//54 264//264
f 264//264 54//54 60//60
f 252//252 58//58 64//64
f 30//30 36//36 254//254
f 264//264 37//37 44//44
f 253//253 42//42 48//48
f 11//11 20//20 255//255
f 251//251 18//18 26//26
f 275//275 24//24 31//31

