mtllib material.mtl
usemtl material_0
v 0.28208970 0.01028597 -0.04719996
v 0.28208970 0.01028597 -0.04719996
v 0.28357830 0.01022595 -0.04719996
v 0.28357830 0.01022595 -0.04719996
v 0.28357830 0.01022595 -0.04719996
v 0.28357830 0.01022595 -0.04699999
v 0.28357830 0.01022595 -0.04699999
v 0.28357830 0.01022595 -0.04699999
v 0.28506700 0.01028597 -0.04699999
v 0.28506700 0.01028597 -0.04699999
v 0.28506700 0.01028597 -0.04699999
v 0.28506700 0.01028597 -0.04719996
v 0.28506700 0.01028597 -0.04719996
v 0.28506700 0.01028597 -0.04719996
v 0.28800570 0.01076352 -0.04719996
v 0.28800570 0.01076352 -0.04719996
v 0.28800570 0.01076352 -0.04719996
v 0.28800570 0.01076352 -0.04699999
v 0.28800570 0.01076352 -0.04699999
v 0.28800570 0.01076352 -0.04699999
v 0.29082970 0.01170635 -0.04719996
v 0.29082970 0.01170635 -0.04719996
v 0.29082970 0.01170635 -0.04719996
v 0.29082970 0.01170635 -0.04699999
v 0.29082970 0.01170635 -0.04699999
v 0.29082970 0.01170635 -0.04699999
v 0.29346600 0.01308995 -0.04719996
v 0.29346600 0.01308995 -0.04719996
v 0.29346600 0.01308995 -0.04719996
v 0.29346600 0.01308995 -0.04699999
v 0.29346600 0.01308995 -0.04699999
v 0.29346600 0.01308995 -0.04699999
v 0.29584610 0.01487851 -0.04719996
v 0.29584610 0.01487851 -0.04719996
v 0.29584610 0.01487851 -0.04719996
v 0.29584610 0.01487851 -0.04699999
v 0.29584610 0.01487851 -0.04699999
v 0.29584610 0.01487851 -0.04699999
v 0.29790850 0.01702570 -0.04719996
v 0.29790850 0.01702570 -0.04719996
v 0.29790850 0.01702570 -0.04719996
v 0.29790850 0.01702570 -0.04699999
v 0.29790850 0.01702570 -0.04699999
v 0.29790850 0.01702570 -0.04699999
v 0.29959980 0.01947593 -0.04719996
v 0.29959980 0.01947593 -0.04719996
v 0.29959980 0.01947593 -0.04719996
v 0.29959980 0.01947593 -0.04699999
v 0.29959980 0.01947593 -0.04699999
v 0.29959980 0.01947593 -0.04699999
v 0.30087620 0.02216577 -0.04719996
v 0.30087620 0.02216577 -0.04719996
v 0.30087620 0.02216577 -0.04719996
v 0.30087620 0.02216577 -0.04699999
v 0.30087620 0.02216577 -0.04699999
v 0.30170450 0.02502548 -0.04719996
v 0.30170450 0.02502548 -0.04719996
v 0.30170450 0.02502548 -0.04699999
v 0.30170450 0.02502548 -0.04699999
v 0.30170450 0.02502548 -0.04699999
v 0.30206340 0.02798104 -0.04719996
v 0.30206340 0.02798104 -0.04719996
v 0.30206340 0.02798104 -0.04699999
v 0.30206340 0.02798104 -0.04699999
v 0.30206340 0.02798104 -0.04699999
v 0.30194340 0.03095591 -0.04719996
v 0.30194340 0.03095591 -0.04719996
v 0.30194340 0.03095591 -0.04699999
v 0.30194340 0.03095591 -0.04699999
v 0.30194340 0.03095591 -0.04699999
v 0.30134790 0.03387296 -0.04719996
v 0.30134790 0.03387296 -0.04719996
v 0.30134790 0.03387296 -0.04699999
v 0.30134790 0.03387296 -0.04699999
v 0.30134790 0.03387296 -0.04699999
v 0.30029210 0.03665679 -0.04719996
v 0.30029210 0.03665679 -0.04719996
v 0.30029210 0.03665679 -0.04719996
v 0.30029210 0.03665679 -0.04699999
v 0.30029210 0.03665679 -0.04699999
v 0.29880350 0.03923517 -0.04719996
v 0.29880350 0.03923517 -0.04719996
v 0.29880350 0.03923517 -0.04719996
v 0.29880350 0.03923517 -0.04699999
v 0.29880350 0.03923517 -0.04699999
v 0.29880350 0.03923517 -0.04699999
v 0.29692060 0.04154133 -0.04719996
v 0.29692060 0.04154133 -0.04719996
v 0.29692060 0.04154133 -0.04719996
v 0.29692060 0.04154133 -0.04699999
v 0.29692060 0.04154133 -0.04699999
v 0.29692060 0.04154133 -0.04699999
v 0.29469200 0.04351562 -0.04719996
v 0.29469200 0.04351562 -0.04719996
v 0.29469200 0.04351562 -0.04719996
v 0.29469200 0.04351562 -0.04699999
v 0.29469200 0.04351562 -0.04699999
v 0.29469200 0.04351562 -0.04699999
v 0.29217570 0.04510688 -0.04719996
v 0.29217570 0.04510688 -0.04719996
v 0.29217570 0.04510688 -0.04719996
v 0.29217570 0.04510688 -0.04699999
v 0.29217570 0.04510688 -0.04699999
v 0.29217570 0.04510688 -0.04699999
v 0.28943670 0.04627388 -0.04719996
v 0.28943670 0.04627388 -0.04719996
v 0.28943670 0.04627388 -0.04719996
v 0.28943670 0.04627388 -0.04699999
v 0.28943670 0.04627388 -0.04699999
v 0.28654590 0.04698640 -0.04719996
v 0.28654590 0.04698640 -0.04719996
v 0.28654590 0.04698640 -0.04719996
v 0.28654590 0.04698640 -0.04699999
v 0.28654590 0.04698640 -0.04699999
v 0.28654590 0.04698640 -0.04699999
v 0.28357830 0.04722595 -0.04719996
v 0.28357830 0.04722595 -0.04719996
v 0.28357830 0.04722595 -0.04719996
v 0.28357830 0.04722595 -0.04699999
v 0.28357830 0.04722595 -0.04699999
v 0.28357830 0.04722595 -0.04699999
v 0.28061070 0.04698640 -0.04719996
v 0.28061070 0.04698640 -0.04719996
v 0.28061070 0.04698640 -0.04719996
v 0.28061070 0.04698640 -0.04699999
v 0.28061070 0.04698640 -0.04699999
v 0.28061070 0.04698640 -0.04699999
v 0.27772000 0.04627388 -0.04719996
v 0.27772000 0.04627388 -0.04719996
v 0.27772000 0.04627388 -0.04719996
v 0.27772000 0.04627388 -0.04699999
v 0.27772000 0.04627388 -0.04699999
v 0.27772000 0.04627388 -0.04699999
v 0.27498100 0.04510688 -0.04719996
v 0.27498100 0.04510688 -0.04719996
v 0.27498100 0.04510688 -0.04719996
v 0.27498100 0.04510688 -0.04699999
v 0.27498100 0.04510688 -0.04699999
v 0.27498100 0.04510688 -0.04699999
v 0.27246460 0.04351562 -0.04719996
v 0.27246460 0.04351562 -0.04719996
v 0.27246460 0.04351562 -0.04719996
v 0.27246460 0.04351562 -0.04699999
v 0.27246460 0.04351562 -0.04699999
v 0.27246460 0.04351562 -0.04699999
v 0.27023610 0.04154133 -0.04719996
v 0.27023610 0.04154133 -0.04719996
v 0.27023610 0.04154133 -0.04719996
v 0.27023610 0.04154133 -0.04699999
v 0.27023610 0.04154133 -0.04699999
v 0.27023610 0.04154133 -0.04699999
v 0.26835310 0.03923517 -0.04719996
v 0.26835310 0.03923517 -0.04719996
v 0.26835310 0.03923517 -0.04719996
v 0.26835310 0.03923517 -0.04699999
v 0.26835310 0.03923517 -0.04699999
v 0.26835310 0.03923517 -0.04699999
v 0.26686450 0.03665679 -0.04719996
v 0.26686450 0.03665679 -0.04719996
v 0.26686450 0.03665679 -0.04699999
v 0.26686450 0.03665679 -0.04699999
v 0.26686450 0.03665679 -0.04699999
v 0.26580880 0.03387296 -0.04719996
v 0.26580880 0.03387296 -0.04719996
v 0.26580880 0.03387296 -0.04699999
v 0.26580880 0.03387296 -0.04699999
v 0.26580880 0.03387296 -0.04699999
v 0.26521320 0.03095591 -0.04719996
v 0.26521320 0.03095591 -0.04719996
v 0.26521320 0.03095591 -0.04699999
v 0.26521320 0.03095591 -0.04699999
v 0.26521320 0.03095591 -0.04699999
v 0.26509330 0.02798104 -0.04719996
v 0.26509330 0.02798104 -0.04719996
v 0.26509330 0.02798104 -0.04699999
v 0.26509330 0.02798104 -0.04699999
v 0.26509330 0.02798104 -0.04699999
v 0.26545220 0.02502548 -0.04719996
v 0.26545220 0.02502548 -0.04719996
v 0.26545220 0.02502548 -0.04719996
v 0.26545220 0.02502548 -0.04699999
v 0.26545220 0.02502548 -0.04699999
v 0.26545220 0.02502548 -0.04699999
v 0.26628050 0.02216577 -0.04719996
v 0.26628050 0.02216577 -0.04719996
v 0.26628050 0.02216577 -0.04719996
v 0.26628050 0.02216577 -0.04699999
v 0.26628050 0.02216577 -0.04699999
v 0.26628050 0.02216577 -0.04699999
v 0.26755690 0.01947593 -0.04719996
v 0.26755690 0.01947593 -0.04719996
v 0.26755690 0.01947593 -0.04719996
v 0.26755690 0.01947593 -0.04699999
v 0.26755690 0.01947593 -0.04699999
v 0.26755690 0.01947593 -0.04699999
v 0.26924810 0.01702570 -0.04719996
v 0.26924810 0.01702570 -0.04719996
v 0.26924810 0.01702570 -0.04719996
v 0.26924810 0.01702570 -0.04699999
v 0.26924810 0.01702570 -0.04699999
v 0.26924810 0.01702570 -0.04699999
v 0.27131060 0.01487851 -0.04719996
v 0.27131060 0.01487851 -0.04719996
v 0.27131060 0.01487851 -0.04719996
v 0.27131060 0.01487851 -0.04699999
v 0.27131060 0.01487851 -0.04699999
v 0.27131060 0.01487851 -0.04699999
v 0.27369070 0.01308995 -0.04719996
v 0.27369070 0.01308995 -0.04719996
v 0.27369070 0.01308995 -0.04719996
v 0.27369070 0.01308995 -0.04699999
v 0.27369070 0.01308995 -0.04699999
v 0.27369070 0.01308995 -0.04699999
v 0.27632700 0.01170635 -0.04719996
v 0.27632700 0.01170635 -0.04719996
v 0.27632700 0.01170635 -0.04719996
v 0.27632700 0.01170635 -0.04699999
v 0.27632700 0.01170635 -0.04699999
v 0.27632700 0.01170635 -0.04699999
v 0.27915100 0.01076352 -0.04719996
v 0.27915100 0.01076352 -0.04719996
v 0.27915100 0.01076352 -0.04719996
v 0.27915100 0.01076352 -0.04699999
v 0.27915100 0.01076352 -0.04699999
v 0.27915100 0.01076352 -0.04699999
v 0.28208970 0.01028597 -0.04699999
v 0.28208970 0.01028597 -0.04699999
v 0.28208970 0.01028597 -0.04699999
v 0.28357830 0.02872598 -0.04719996
v 0.28357830 0.02872598 -0.04719996
v 0.28357830 0.02872598 -0.04719996
v 0.28357830 0.02872598 -0.04719996
v 0.28357830 0.02872598 -0.04719996
v 0.28357830 0.02872598 -0.04719996
v 0.28357830 0.02872598 -0.04719996
v 0.28357830 0.02872598 -0.04719996
v 0.28357830 0.02872598 -0.04719996
v 0.28357830 0.02872598 -0.04719996
v 0.28357830 0.02872598 -0.04719996
v 0.28357830 0.02872598 -0.04719996
v 0.28357830 0.02872598 -0.04719996
v 0.28357830 0.02872598 -0.04719996
v 0.28357830 0.02872598 -0.04719996
v 0.28357830 0.02872598 -0.04719996
v 0.28357830 0.02872598 -0.04719996
v 0.28357830 0.02872598 -0.04719996
v 0.28357830 0.02872598 -0.04719996
v 0.28357830 0.02872598 -0.04719996
v 0.28357830 0.02872598 -0.04719996
v 0.28357830 0.02872598 -0.04699999
v 0.28357830 0.02872598 -0.04699999
v 0.28357830 0.02872598 -0.04699999
v 0.28357830 0.02872598 -0.04699999
v 0.28357830 0.02872598 -0.04699999
v 0.28357830 0.02872598 -0.04699999
v 0.28357830 0.02872598 -0.04699999
v 0.28357830 0.02872598 -0.04699999
v 0.28357830 0.02872598 -0.04699999
v 0.28357830 0.02872598 -0.04699999
v 0.28357830 0.02872598 -0.04699999
v 0.28357830 0.02872598 -0.04699999
v 0.28357830 0.02872598 -0.04699999
v 0.28357830 0.02872598 -0.04699999
v 0.28357830 0.02872598 -0.04699999
v 0.28357830 0.02872598 -0.04699999
v 0.28357830 0.02872598 -0.04699999
v 0.28357830 0.02872598 -0.04699999
v 0.28357830 0.02872598 -0.04699999
v 0.28357830 0.02872598 -0.04699999
v 0.28357830 0.02872598 -0.04699999
v 0.28357830 0.02872598 -0.04699999
v 0.28357830 0.02872598 -0.04699999
vn -0.10052000 -0.99493000 0.00000000
vn 0.00000000 0.00000000 -1.00000000
vn 0.01344000 -0.99991000 0.00000000
vn 0.00000000 0.00000000 -1.00000000
vn 0.00000000 0.00000000 -1.00000000
vn -0.01343000 -0.99991000 0.00000000
vn 0.00000000 0.00000000 1.00000000
vn 0.00000000 0.00000000 1.00000000
vn 0.10052000 -0.99494000 0.00000000
vn 0.00000000 0.00000000 1.00000000
vn 0.00000000 0.00000000 1.00000000
vn 0.10052000 -0.99494000 0.00000000
vn 0.00000000 0.00000000 -1.00000000
vn 0.00000000 0.00000000 -1.00000000
vn 0.00000000 0.00000000 -1.00000000
vn 0.00000000 0.00000000 -1.00000000
vn 0.21313000 -0.97702000 0.00001000
vn 0.26533000 -0.96416000 0.00000000
vn -0.00000000 0.00000000 1.00000000
vn 0.00000000 0.00000000 1.00000000
vn 0.00000000 0.00000000 -1.00000000
vn 0.00000000 0.00000000 -1.00000000
vn 0.36710000 -0.93018000 0.00000000
vn -0.00000000 0.00000000 1.00000000
vn 0.41656000 -0.90911000 0.00000000
vn 0.00000000 0.00000000 1.00000000
vn 0.00000000 0.00000000 -1.00000000
vn 0.51155000 -0.85925000 0.00000000
vn 0.00000000 0.00000000 -1.00000000
vn -0.00000000 0.00000000 1.00000000
vn 0.55699000 -0.83052000 0.00000000
vn 0.00000000 0.00000000 1.00000000
vn 0.00000000 0.00000000 -1.00000000
vn 0.00000000 0.00000000 -1.00000000
vn 0.64276000 -0.76607000 -0.00000000
vn -0.00000000 0.00000000 1.00000000
vn 0.68300000 -0.73042000 0.00000000
vn 0.00000000 0.00000000 1.00000000
vn 0.75733000 -0.65303000 0.00000000
vn -0.00000000 0.00000000 -1.00000000
vn 0.00000000 0.00000000 -1.00000000
vn 0.00000000 0.00000000 1.00000000
vn -0.00000000 0.00000000 1.00000000
vn 0.79133000 -0.61139000 0.00000000
vn 0.00000000 0.00000000 -1.00000000
vn -0.00000000 0.00000000 -1.00000000
vn 0.85227000 -0.52310000 0.00000000
vn 0.00000000 0.00000000 1.00000000
vn 0.87915000 -0.47654000 0.00000000
vn -0.00000000 0.00000000 1.00000000
vn 0.92515000 -0.37961000 0.00000000
vn 0.00000000 0.00000000 -1.00000000
vn 0.00000000 0.00000000 -1.00000000
vn 0.00000000 0.00000000 1.00000000
vn 0.94421000 -0.32935000 0.00000000
vn 0.97406000 -0.22628000 -0.00000000
vn 0.00000000 0.00000000 -1.00000000
vn 0.98481000 -0.17361000 0.00000000
vn 0.00000000 0.00000000 1.00000000
vn 0.00000000 0.00000000 1.00000000
vn 0.00000000 0.00000000 -1.00000000
vn 0.99775000 -0.06711000 0.00000000
vn -0.00000000 0.00000000 1.00000000
vn 0.99991000 -0.01339000 0.00000000
vn 0.00000000 0.00000000 1.00000000
vn 0.99559000 0.09381000 0.00000000
vn 0.00000000 0.00000000 -1.00000000
vn -0.00000000 0.00000000 1.00000000
vn 0.98911000 0.14717000 0.00000000
vn -0.00000000 0.00000000 1.00000000
vn 0.00000000 0.00000000 -1.00000000
vn 0.96765000 0.25230000 0.00000000
vn -0.00000000 0.00000000 1.00000000
vn 0.00000000 0.00000000 1.00000000
vn 0.95269000 0.30394000 0.00000000
vn 0.00000000 0.00000000 -1.00000000
vn -0.00000000 0.00000000 -1.00000000
vn 0.91465000 0.40425000 0.00000000
vn 0.89160000 0.45282000 0.00000000
vn 0.00000000 0.00000000 1.00000000
vn -0.00000000 0.00000000 -1.00000000
vn 0.00000000 0.00000000 -1.00000000
vn 0.83795000 0.54575000 0.00000000
vn 0.80741000 0.58999000 0.00000000
vn 0.00000000 0.00000000 1.00000000
vn 0.00000000 0.00000000 1.00000000
vn 0.73957000 0.67308000 0.00001000
vn 0.00000000 0.00000000 -1.00000000
vn 0.00000000 0.00000000 -1.00000000
vn -0.00000000 0.00000000 1.00000000
vn 0.70233000 0.71185000 -0.00001000
vn 0.00000000 0.00000000 1.00000000
vn -0.00000000 0.00000000 -1.00000000
vn 0.62201000 0.78301000 0.00000000
vn 0.00000000 0.00000000 -1.00000000
vn 0.00000000 0.00000000 1.00000000
vn -0.00000000 0.00000000 1.00000000
vn 0.57904000 0.81530000 0.00000000
vn 0.00000000 0.00000000 -1.00000000
vn -0.00000000 0.00000000 -1.00000000
vn 0.48835000 0.87265000 0.00000000
vn 0.00000000 0.00000000 1.00000000
vn 0.00000000 0.00000000 1.00000000
vn 0.44075000 0.89763000 0.00000000
vn -0.00000000 0.00000000 -1.00000000
vn 0.34205000 0.93968000 0.00001000
vn 0.00000000 0.00000000 -1.00000000
vn 0.29106000 0.95670000 0.00000000
vn 0.00000000 0.00000000 1.00000000
vn -0.00000000 0.00000000 -1.00000000
vn 0.00000000 0.00000000 -1.00000000
vn 0.18689000 0.98238000 0.00000000
vn 0.00000000 0.00000000 1.00000000
vn 0.00000000 0.00000000 1.00000000
vn 0.13382000 0.99100000 0.00000000
vn 0.00000000 0.00000000 -1.00000000
vn 0.00000000 0.00000000 -1.00000000
vn 0.02688000 0.99964000 0.00000000
vn -0.02688000 0.99964000 0.00000000
vn 0.00000000 0.00000000 1.00000000
vn -0.00000000 0.00000000 1.00000000
vn -0.13382000 0.99101000 0.00001000
vn 0.00000000 0.00000000 -1.00000000
vn 0.00000000 0.00000000 -1.00000000
vn -0.00000000 0.00000000 1.00000000
vn -0.18689000 0.98238000 0.00000000
vn -0.00000000 0.00000000 1.00000000
vn -0.00000000 0.00000000 -1.00000000
vn 0.00000000 0.00000000 -1.00000000
vn -0.29106000 0.95670000 0.00001000
vn -0.00000000 0.00000000 1.00000000
vn -0.34205000 0.93968000 0.00000000
vn 0.00000000 0.00000000 1.00000000
vn -0.00000000 0.00000000 -1.00000000
vn -0.44076000 0.89763000 0.00000000
vn 0.00000000 0.00000000 -1.00000000
vn -0.48836000 0.87264000 0.00000000
vn 0.00000000 0.00000000 1.00000000
vn -0.00000000 0.00000000 1.00000000
vn -0.00000000 0.00000000 -1.00000000
vn 0.00000000 0.00000000 -1.00000000
vn -0.57904000 0.81530000 0.00000000
vn -0.00000000 0.00000000 1.00000000
vn -0.62201000 0.78301000 0.00000000
vn 0.00000000 0.00000000 1.00000000
vn -0.00000000 0.00000000 -1.00000000
vn -0.70231000 0.71187000 0.00000000
vn -0.00000000 0.00000000 -1.00000000
vn -0.73959000 0.67306000 0.00000000
vn 0.00000000 0.00000000 1.00000000
vn 0.00000000 0.00000000 1.00000000
vn -0.00000000 0.00000000 -1.00000000
vn 0.00000000 0.00000000 -1.00000000
vn -0.80742000 0.58998000 0.00001000
vn 0.00000000 0.00000000 1.00000000
vn -0.83796000 0.54574000 0.00000000
vn 0.00000000 0.00000000 1.00000000
vn -0.89160000 0.45283000 0.00000000
vn 0.00000000 0.00000000 -1.00000000
vn -0.91466000 0.40422000 0.00000000
vn 0.00000000 0.00000000 1.00000000
vn 0.00000000 0.00000000 1.00000000
vn 0.00000000 0.00000000 -1.00000000
vn -0.95269000 0.30393000 0.00000000
vn 0.00000000 0.00000000 1.00000000
vn -0.96765000 0.25230000 0.00000000
vn 0.00000000 0.00000000 1.00000000
vn 0.00000000 0.00000000 -1.00000000
vn -0.98911000 0.14717000 0.00000000
vn -0.99559000 0.09380000 0.00000000
vn 0.00000000 0.00000000 1.00000000
vn 0.00000000 0.00000000 1.00000000
vn 0.00000000 0.00000000 -1.00000000
vn -0.99991000 -0.01340000 0.00000000
vn 0.00000000 0.00000000 1.00000000
vn -0.99775000 -0.06711000 0.00000000
vn -0.00000000 0.00000000 1.00000000
vn 0.00000000 0.00000000 -1.00000000
vn -0.98481000 -0.17362000 0.00001000
vn 0.00000000 0.00000000 -1.00000000
vn -0.97406000 -0.22629000 0.00000000
vn 0.00000000 0.00000000 1.00000000
vn -0.00000000 0.00000000 1.00000000
vn -0.94421000 -0.32935000 0.00001000
vn 0.00000000 0.00000000 -1.00000000
vn -0.00000000 0.00000000 -1.00000000
vn -0.92515000 -0.37961000 -0.00001000
vn 0.00000000 0.00000000 1.00000000
vn 0.00000000 0.00000000 1.00000000
vn 0.00000000 0.00000000 -1.00000000
vn -0.00000000 0.00000000 -1.00000000
vn -0.87915000 -0.47654000 0.00000000
vn -0.85228000 -0.52309000 0.00000000
vn 0.00000000 0.00000000 1.00000000
vn 0.00000000 0.00000000 1.00000000
vn -0.00000000 0.00000000 -1.00000000
vn -0.79133000 -0.61140000 0.00000000
vn 0.00000000 0.00000000 -1.00000000
vn 0.00000000 0.00000000 1.00000000
vn -0.75733000 -0.65304000 0.00000000
vn 0.00000000 0.00000000 1.00000000
vn 0.00000000 0.00000000 -1.00000000
vn -0.00000000 0.00000000 -1.00000000
vn -0.68300000 -0.73041000 0.00000000
vn 0.00000000 0.00000000 1.00000000
vn 0.00000000 0.00000000 1.00000000
vn -0.64277000 -0.76606000 0.00000000
vn 0.00000000 0.00000000 -1.00000000
vn -0.00000000 0.00000000 -1.00000000
vn -0.55699000 -0.83052000 -0.00000000
vn 0.00000000 0.00000000 1.00000000
vn -0.00000000 0.00000000 1.00000000
vn -0.51155000 -0.85925000 -0.00000000
vn 0.00000000 0.00000000 -1.00000000
vn -0.00000000 0.00000000 -1.00000000
vn -0.41655000 -0.90911000 0.00000000
vn 0.00000000 0.00000000 1.00000000
vn -0.36710000 -0.93018000 0.00000000
vn -0.00000000 0.00000000 1.00000000
vn -0.26533000 -0.96416000 0.00000000
vn 0.00000000 0.00000000 -1.00000000
vn 0.00000000 0.00000000 -1.00000000
vn 0.00000000 0.00000000 1.00000000
vn -0.00000000 0.00000000 1.00000000
vn -0.21314000 -0.97702000 0.00000000
vn -0.00000000 0.00000000 1.00000000
vn -0.10052000 -0.99493000 0.00000000
vn 0.00000000 0.00000000 1.00000000
vn 0.00000000 0.00000000 -1.00000000
vn 0.00000000 0.00000000 -1.00000000
vn -0.00000000 0.00000000 -1.00000000
vn 0.00000000 0.00000000 -1.00000000
vn -0.00000000 0.00000000 -1.00000000
vn -0.00000000 0.00000000 -1.00000000
vn 0.00000000 0.00000000 -1.00000000
vn -0.00000000 0.00000000 -1.00000000
vn 0.00000000 0.00000000 -1.00000000
vn 0.00000000 0.00000000 -1.00000000
vn 0.00000000 0.00000000 -1.00000000
vn 0.00000000 0.00000000 -1.00000000
vn -0.00000000 0.00000000 -1.00000000
vn 0.00000000 0.00000000 -1.00000000
vn -0.00000000 0.00000000 -1.00000000
vn -0.00000000 0.00000000 -1.00000000
vn -0.00000000 0.00000000 -1.00000000
vn 0.00000000 0.00000000 -1.00000000
vn 0.00000000 0.00000000 -1.00000000
vn 0.00000000 0.00000000 -1.00000000
vn 0.00000000 0.00000000 -1.00000000
vn -0.00000000 0.00000000 1.00000000
vn 0.00000000 0.00000000 1.00000000
vn 0.00000000 0.00000000 1.00000000
vn -0.00000000 0.00000000 1.00000000
vn -0.00000000 0.00000000 1.00000000
vn 0.00000000 0.00000000 1.00000000
vn -0.00000000 0.00000000 1.00000000
vn -0.00000000 0.00000000 1.00000000
vn 0.00000000 0.00000000 1.00000000
vn -0.00000000 0.00000000 1.00000000
vn -0.00000000 0.00000000 1.00000000
vn 0.00000000 0.00000000 1.00000000
vn -0.00000000 0.00000000 1.00000000
vn 0.00000000 0.00000000 1.00000000
vn 0.00000000 0.00000000 1.00000000
vn 0.00000000 0.00000000 1.00000000
vn -0.00000000 0.00000000 1.00000000
vn -0.00000000 0.00000000 1.00000000
vn 0.00000000 0.00000000 1.00000000
vn 0.00000000 0.00000000 1.00000000
vn 0.00000000 0.00000000 1.00000000
vn -0.00000000 0.00000000 1.00000000
vn 0.00000000 0.00000000 1.00000000
f 1//1 3//3 6//6
f 6//6 3//3 9//9
f 3//3 12//12 9//9
f 9//9 12//12 17//17
f 9//9 17//17 18//18
f 18//18 17//17 23//23
f 18//18 23//23 25//25
f 25//25 23//23 28//28
f 25//25 28//28 31//31
f 31//31 28//28 35//35
f 31//31 35//35 37//37
f 37//37 35//35 39//39
f 37//37 39//39 44//44
f 44//44 39//39 47//47
f 44//44 47//47 49//49
f 49//49 47//47 51//51
f 49//49 51//51 55//55
f 55//55 51//51 56//56
f 55//55 56//56 58//58
f 58//58 56//56 62//62
f 58//58 62//62 64//64
f 64//64 62//62 66//66
f 64//64 66//66 69//69
f 69//69 66//66 72//72
f 69//69 72//72 75//75
f 75//75 72//72 78//78
f 75//75 78//78 79//79
f 79//79 78//78 83//83
f 79//79 83//83 84//84
f 84//84 83//83 87//87
f 84//84 87//87 91//91
f 91//91 87//87 94//94
f 91//91 94//94 98//98
f 98//98 94//94 101//101
f 98//98 101//101 104//104
f 104//104 101//101 106//106
f 104//104 106//106 108//108
f 108//108 106//106 112//112
f 108//108 112//112 115//115
f 115//115 112//112 118//118
f 115//115 118//118 119//119
f 119//119 118//118 122//122
f 119//119 122//122 126//126
f 126//126 122//122 130//130
f 126//126 130//130 132//132
f 132//132 130//130 135//135
f 132//132 135//135 137//137
f 137//137 135//135 142//142
f 137//137 142//142 144//144
f 144//144 142//142 147//147
f 144//144 147//147 149//149
f 149//149 147//147 154//154
f 149//149 154//154 156//156
f 156//156 154//154 158//158
f 156//156 158//158 160//160
f 160//160 158//158 164//164
f 160//160 164//164 166//166
f 166//166 164//164 169//169
f 166//166 169//169 170//170
f 170//170 169//169 174//174
f 170//170 174//174 176//176
f 176//176 174//174 179//179
f 176//176 179//179 181//181
f 181//181 179//179 184//184
f 181//181 184//184 187//187
f 187//187 184//184 192//192
f 187//187 192//192 193//193
f 193//193 192//192 197//197
f 193//193 197//197 200//200
f 200//200 197//197 204//204
f 200//200 204//204 207//207
f 207//207 204//204 210//210
f 207//207 210//210 213//213
f 213//213 210//210 216//216
f 213//213 216//216 218//218
f 218//218 216//216 220//220
f 218//218 220//220 225//225
f 225//225 220//220 1//1
f 225//225 1//1 227//227
f 227//227 1//1 6//6
f 5//5 2//2 229//229
f 22//22 15//15 229//229
f 230//230 16//16 14//14
f 249//249 13//13 4//4
f 41//41 33//33 229//229
f 248//248 34//34 27//27
f 247//247 29//29 21//21
f 57//57 53//53 229//229
f 246//246 52//52 45//45
f 245//245 46//46 40//40
f 71//71 67//67 229//229
f 229//229 67//67 61//61
f 229//229 61//61 57//57
f 89//89 82//82 229//229
f 244//244 81//81 77//77
f 229//229 76//76 71//71
f 107//107 99//99 229//229
f 243//243 100//100 93//93
f 239//239 95//95 88//88
f 123//123 117//117 229//229
f 235//235 116//116 111//111
f 241//241 110//110 105//105
f 141//141 136//136 242//242
f 231//231 134//134 128//128
f 232//232 129//129 124//124
f 159//159 153//153 229//229
f 233//233 152//152 148//148
f 234//234 146//146 140//140
f 173//173 168//168 229//229
f 229//229 168//168 163//163
f 229//229 163//163 159//159
f 191//191 186//186 236//236
f 237//237 185//185 180//180
f 229//229 178//178 173//173
f 208//208 202//202 229//229
f 231//231 203//203 196//196
f 238//238 198//198 190//190
f 2//2 221//221 229//229
f 240//240 222//222 214//214
f 234//234 215//215 209//209
f 7//7 10//10 261//261
f 217//217 223//223 261//261
f 262//262 224//224 226//226
f 264//264 228//228 8//8
f 199//199 206//206 261//261
f 265//265 205//205 211//211
f 267//267 212//212 219//219
f 182//182 189//189 261//261
f 268//268 188//188 195//195
f 269//269 194//194 201//201
f 165//165 172//172 270//270
f 261//261 171//171 175//175
f 257//257 177//177 183//183
f 151//151 157//157 261//261
f 255//255 155//155 161//161
f 261//261 162//162 167//167
f 133//133 138//138 261//261
f 266//266 139//139 143//143
f 263//263 145//145 150//150
f 114//114 120//120 261//261
f 260//260 121//121 127//127
f 259//259 125//125 131//131
f 96//96 102//102 261//261
f 258//258 103//103 109//109
f 258//258 109//109 113//113
f 80//80 85//85 261//261
f 255//255 86//86 92//92
f 256//256 90//90 97//97
f 63//63 68//68 266//266
f 271//271 70//70 73//73
f 261//261 74//74 80//80
f 48//48 54//54 261//261
f 261//261 54//54 59//59
f 252//252 60//60 65//65
f 30//30 36//36 254//254
f 261//261 38//38 42//42
f 250//250 43//43 50//50
f 11//11 20//20 251//251
f 253//253 19//19 24//24
f 272//272 26//26 32//32

