mtllib material.mtl
usemtl material_0
v -0.08900988 0.04118233 -0.01975524
v -0.08900988 0.04118233 -0.01975524
v -0.08900988 0.04118233 -0.01975524
v -0.08900988 0.04118233 -0.01975524
v -0.08900988 0.04118233 -0.01975524
v -0.08900988 0.04118233 -0.01975524
v -0.08900988 0.04118233 -0.01975524
v -0.08921533 0.04120165 -0.01973879
v -0.08953392 0.04134470 -0.01971167
v -0.08953392 0.04134470 -0.01971167
v -0.08953392 0.04134470 -0.01971167
v -0.08953392 0.04134470 -0.01971167
v -0.08953392 0.04134470 -0.01971167
v -0.08953392 0.04134470 -0.01971167
v -0.08953392 0.04134470 -0.01971167
v -0.08953392 0.04134470 -0.01971167
v -0.08953392 0.04134470 -0.01971167
v -0.08953392 0.04134470 -0.01971167
v -0.08919227 0.04275751 -0.01971739
v -0.08919227 0.04275751 -0.01971739
v -0.08919227 0.04275751 -0.01971739
v -0.08897918 0.04271620 -0.01973468
v -0.08897048 0.04271125 -0.01973545
v -0.08897048 0.04271125 -0.01973545
v -0.08897048 0.04271125 -0.01973545
v -0.08932822 0.04275137 -0.01970678
v -0.08932822 0.04275137 -0.01970678
v -0.08980143 0.04168921 -0.01968556
v -0.08987641 0.04198795 -0.01967519
v -0.08987641 0.04198795 -0.01967519
v -0.08984082 0.04229480 -0.01967340
v -0.08984082 0.04229480 -0.01967340
v -0.08970600 0.04255717 -0.01968008
v -0.08970600 0.04255717 -0.01968008
v -0.08946126 0.04272174 -0.01969683
v -0.08946126 0.04272174 -0.01969683
v -0.08896154 0.04270708 -0.01973623
v -0.08896154 0.04270708 -0.01973623
v -0.08896154 0.04270708 -0.01973623
v -0.08874011 0.04259067 -0.01975536
v -0.08874011 0.04259067 -0.01975536
v -0.08856517 0.04241168 -0.01977175
v -0.08856517 0.04241168 -0.01977175
v -0.08856546 0.04140621 -0.01978671
v -0.08881330 0.04122257 -0.01977002
v -0.08881330 0.04122257 -0.01977002
v -0.08842736 0.04170298 -0.01979315
v -0.08842736 0.04170298 -0.01979315
v -0.08842736 0.04170298 -0.01979315
v -0.08842074 0.04208803 -0.01978790
v -0.08842074 0.04208803 -0.01978790
vn -0.07819000 0.01487000 -0.99683000
vn -0.07819000 0.01489000 -0.99683000
vn -0.07820000 0.01489000 -0.99683000
vn -0.07818000 0.01490000 -0.99683000
vn -0.07820000 0.01489000 -0.99683000
vn -0.07818000 0.01490000 -0.99683000
vn -0.07819000 0.01489000 -0.99683000
vn -0.07819000 0.01487000 -0.99683000
vn -0.07821000 0.01490000 -0.99683000
vn -0.07819000 0.01487000 -0.99683000
vn -0.07818000 0.01489000 -0.99683000
vn -0.07815000 0.01488000 -0.99683000
vn -0.07819000 0.01489000 -0.99683000
vn -0.07820000 0.01490000 -0.99683000
vn -0.07833000 0.01494000 -0.99682000
vn -0.07817000 0.01489000 -0.99683000
vn -0.07821000 0.01489000 -0.99683000
vn -0.07817000 0.01489000 -0.99683000
vn -0.07817000 0.01489000 -0.99683000
vn -0.07821000 0.01490000 -0.99683000
vn -0.07837000 0.01494000 -0.99681000
vn -0.07837000 0.01494000 -0.99681000
vn -0.07837000 0.01494000 -0.99681000
vn -0.07817000 0.01489000 -0.99683000
vn -0.07801000 0.01482000 -0.99684000
vn -0.07821000 0.01490000 -0.99683000
vn -0.07818000 0.01489000 -0.99683000
vn -0.07815000 0.01488000 -0.99683000
vn -0.07815000 0.01488000 -0.99683000
vn -0.07820000 0.01490000 -0.99683000
vn -0.07820000 0.01490000 -0.99683000
vn -0.07821000 0.01489000 -0.99683000
vn -0.07821000 0.01489000 -0.99683000
vn -0.07817000 0.01489000 -0.99683000
vn -0.07818000 0.01489000 -0.99683000
vn -0.07817000 0.01489000 -0.99683000
vn -0.07820000 0.01489000 -0.99683000
vn -0.07819000 0.01489000 -0.99683000
vn -0.07801000 0.01482000 -0.99684000
vn -0.07820000 0.01489000 -0.99683000
vn -0.07820000 0.01489000 -0.99683000
vn -0.07820000 0.01489000 -0.99683000
vn -0.07818000 0.01490000 -0.99683000
vn -0.07826000 0.01489000 -0.99682000
vn -0.07826000 0.01489000 -0.99682000
vn -0.07818000 0.01490000 -0.99683000
vn -0.07826000 0.01489000 -0.99682000
vn -0.07818000 0.01490000 -0.99683000
vn -0.07819000 0.01489000 -0.99683000
vn -0.07819000 0.01489000 -0.99683000
vn -0.07818000 0.01490000 -0.99683000
f 1//1 8//8 10//10
f 21//21 22//22 23//23
f 9//9 26//26 20//20
f 28//28 29//29 12//12
f 14//14 30//30 31//31
f 32//32 33//33 17//17
f 18//18 34//34 36//36
f 11//11 35//35 27//27
f 19//19 24//24 16//16
f 15//15 25//25 39//39
f 13//13 38//38 2//2
f 5//5 37//37 41//41
f 3//3 40//40 42//42
f 44//44 45//45 47//47
f 48//48 46//46 4//4
f 49//49 7//7 50//50
f 51//51 6//6 43//43

