mtllib material.mtl
usemtl material_0
v -0.09189563 0.04289799 0.01950323
v -0.09189563 0.04289799 0.01950323
v -0.09191346 0.04286032 0.01950240
v -0.09191346 0.04286032 0.01950240
v -0.09086501 0.04149788 0.01960498
v -0.09086501 0.04149788 0.01960498
v -0.09086501 0.04149788 0.01960498
v -0.09086501 0.04149788 0.01960498
v -0.09086501 0.04149788 0.01960498
v -0.09086501 0.04149788 0.01960498
v -0.09086501 0.04149788 0.01960498
v -0.09086501 0.04149788 0.01960498
v -0.09192621 0.04281967 0.01950198
v -0.09192621 0.04281967 0.01950198
v -0.09192621 0.04281967 0.01950198
v -0.09088093 0.04148733 0.01960390
v -0.09088093 0.04148733 0.01960390
v -0.09088093 0.04148733 0.01960390
v -0.09088093 0.04148733 0.01960390
v -0.09119784 0.04039019 0.01959544
v -0.09119784 0.04039019 0.01959544
v -0.09119784 0.04039019 0.01959544
v -0.09119784 0.04039019 0.01959544
v -0.09121119 0.04040068 0.01959425
v -0.09121119 0.04040068 0.01959425
v -0.09276044 0.04017394 0.01947611
v -0.09276044 0.04017394 0.01947611
v -0.09276044 0.04017394 0.01947611
v -0.09276044 0.04017394 0.01947611
v -0.09276044 0.04017394 0.01947611
v -0.09276044 0.04017394 0.01947611
v -0.09276044 0.04017394 0.01947611
v -0.09121632 0.04041260 0.01959365
v -0.09121632 0.04041260 0.01959365
v -0.09121632 0.04041260 0.01959365
v -0.09264612 0.04053473 0.01947969
v -0.09264612 0.04053473 0.01947969
v -0.09264612 0.04053473 0.01947969
v -0.09121268 0.04044765 0.01959341
v -0.09121268 0.04044765 0.01959341
v -0.09121268 0.04044765 0.01959341
v -0.09253174 0.04089552 0.01948326
v -0.09253174 0.04089552 0.01948326
v -0.09253174 0.04089552 0.01948326
v -0.09253174 0.04089552 0.01948326
v -0.09361189 0.03746604 0.01944977
v -0.09361189 0.03746604 0.01944977
v -0.09370100 0.03719019 0.01944690
v -0.09370100 0.03719019 0.01944690
v -0.09196257 0.03801631 0.01957094
v -0.09196257 0.03801631 0.01957094
v -0.09196257 0.03801631 0.01957094
v -0.09196257 0.03801631 0.01957094
v -0.09196257 0.03801631 0.01957094
v -0.09196257 0.03801631 0.01957094
v -0.09196257 0.03801631 0.01957094
v -0.09371000 0.03712505 0.01944714
v -0.09371000 0.03712505 0.01944714
v -0.09177839 0.04294377 0.01951175
v -0.09177839 0.04294377 0.01951175
v -0.09171885 0.04293459 0.01951652
v -0.09171885 0.04293459 0.01951652
v -0.09171885 0.04293459 0.01951652
v -0.09171885 0.04293459 0.01951652
v -0.09171885 0.04293459 0.01951652
v -0.09171885 0.04293459 0.01951652
v -0.09171885 0.04293459 0.01951652
v -0.09171885 0.04293459 0.01951652
v -0.09171885 0.04293459 0.01951652
v -0.09171885 0.04293459 0.01951652
v -0.09083884 0.04150021 0.01960700
v -0.09083884 0.04150021 0.01960700
v -0.09081304 0.04149627 0.01960909
v -0.09081304 0.04149627 0.01960909
v -0.09189385 0.03798937 0.01957672
v -0.09189385 0.03798937 0.01957672
v -0.09194713 0.03800427 0.01957231
v -0.09194713 0.03800427 0.01957231
v -0.09366691 0.03705477 0.01945161
v -0.09366691 0.03705477 0.01945161
v -0.09366691 0.03705477 0.01945161
v -0.09366691 0.03705477 0.01945161
v -0.09366691 0.03705477 0.01945161
v -0.09369575 0.03708589 0.01944887
v -0.09369575 0.03708589 0.01944887
v -0.09352546 0.03774273 0.01945239
v -0.09352546 0.03774273 0.01945239
v -0.09352546 0.03774273 0.01945239
v -0.09196841 0.03802955 0.01957029
v -0.09196841 0.03802955 0.01957029
v -0.09196841 0.03802955 0.01957029
v -0.09340137 0.03813844 0.01945626
v -0.09340137 0.03813844 0.01945626
v -0.09340137 0.03813844 0.01945626
v -0.09196656 0.03806048 0.01956993
v -0.09196656 0.03806048 0.01956993
v -0.09196656 0.03806048 0.01956993
v -0.09327715 0.03853416 0.01946008
v -0.09327715 0.03853416 0.01946008
v -0.09327715 0.03853416 0.01946008
v -0.09327715 0.03853416 0.01946008
v -0.08961462 0.03942555 0.01973402
v -0.08961462 0.03942555 0.01973402
v -0.08961462 0.03942555 0.01973402
v -0.08951729 0.03973680 0.01973700
v -0.08951729 0.03973680 0.01973700
v -0.09115219 0.04037737 0.01959919
v -0.09115219 0.04037737 0.01959919
v -0.09115219 0.04037737 0.01959919
v -0.09115219 0.04037737 0.01959919
v -0.09115219 0.04037737 0.01959919
v -0.09115219 0.04037737 0.01959919
v -0.08948278 0.03984624 0.01973807
v -0.08948278 0.03984624 0.01973807
v -0.08948278 0.03984624 0.01973807
v -0.08948278 0.03984624 0.01973807
v -0.08809036 0.04111152 0.01982837
v -0.08809036 0.04111152 0.01982837
v -0.08809036 0.04111152 0.01982837
v -0.08809036 0.04111152 0.01982837
v -0.08805185 0.04122602 0.01982969
v -0.08805185 0.04122602 0.01982969
v -0.08936101 0.03751909 0.01978242
v -0.08936101 0.03751909 0.01978242
v -0.08936101 0.03751909 0.01978242
v -0.08936101 0.03751909 0.01978242
v -0.08936101 0.03751909 0.01978242
v -0.08941966 0.03688359 0.01978731
v -0.08941966 0.03688359 0.01978731
v -0.08933752 0.03714686 0.01978981
v -0.08933752 0.03714686 0.01978981
v -0.08933752 0.03714686 0.01978981
v -0.08933752 0.03714686 0.01978981
v -0.09062743 0.03775423 0.01967954
v -0.09062743 0.03775423 0.01967954
v -0.09062743 0.03775423 0.01967954
v -0.09062743 0.03775423 0.01967954
v -0.09062743 0.03775423 0.01967954
v -0.09062743 0.03775423 0.01967954
v -0.08967536 0.03631412 0.01977574
v -0.08967536 0.03631412 0.01977574
v -0.08961403 0.03634196 0.01978015
v -0.08961403 0.03634196 0.01978015
v -0.08971202 0.03911429 0.01973104
v -0.08971202 0.03911429 0.01973104
v -0.08971202 0.03911429 0.01973104
v -0.09151428 0.03918939 0.01958853
v -0.09151428 0.03918939 0.01958853
v -0.09151428 0.03918939 0.01958853
v -0.09151428 0.03918939 0.01958853
v -0.09071016 0.03904020 0.01965385
v -0.09071016 0.03904020 0.01965385
v -0.09071016 0.03904020 0.01965385
v -0.09071016 0.03904020 0.01965385
v -0.09157413 0.03919631 0.01958376
v -0.09157413 0.03919631 0.01958376
v -0.09157413 0.03919631 0.01958376
v -0.09159606 0.03919064 0.01958209
v -0.09159606 0.03919064 0.01958209
v -0.09159606 0.03919064 0.01958209
v -0.09202098 0.04251819 0.01949906
v -0.09202098 0.04251819 0.01949906
v -0.09211570 0.04221665 0.01949614
v -0.09211570 0.04221665 0.01949614
v -0.09211570 0.04221665 0.01949614
v -0.09089374 0.04146414 0.01960325
v -0.09089374 0.04146414 0.01960325
v -0.09089374 0.04146414 0.01960325
v -0.09220981 0.04191911 0.01949322
v -0.09220981 0.04191911 0.01949322
v -0.09220981 0.04191911 0.01949322
v -0.09098565 0.04117017 0.01960045
v -0.09098565 0.04117017 0.01960045
v -0.09098565 0.04117017 0.01960045
v -0.09230387 0.04162156 0.01949030
v -0.09230387 0.04162156 0.01949030
v -0.09230387 0.04162156 0.01949030
v -0.09107762 0.04087626 0.01959758
v -0.09107762 0.04087626 0.01959758
v -0.09107762 0.04087626 0.01959758
v -0.09241777 0.04125851 0.01948678
v -0.09241777 0.04125851 0.01948678
v -0.09241777 0.04125851 0.01948678
v -0.09114146 0.04067260 0.01959562
v -0.09114146 0.04067260 0.01959562
v -0.09114146 0.04067260 0.01959562
v -0.09120625 0.04046928 0.01959359
v -0.09120625 0.04046928 0.01959359
v -0.09184437 0.04293799 0.01950663
v -0.09184437 0.04293799 0.01950663
v -0.09188455 0.04291200 0.01950389
v -0.09188455 0.04291200 0.01950389
v -0.08957439 0.03639310 0.01978248
v -0.08957439 0.03639310 0.01978248
v -0.08956164 0.03642600 0.01978302
v -0.08956164 0.03642600 0.01978302
v -0.08956164 0.03642600 0.01978302
v -0.08949095 0.03665488 0.01978510
v -0.08949095 0.03665488 0.01978510
v -0.08778136 0.04216980 0.01983684
v -0.08780795 0.04219651 0.01983433
v -0.08780795 0.04219651 0.01983433
v -0.08777225 0.04213565 0.01983803
v -0.08777225 0.04213565 0.01983803
v -0.08777225 0.04213565 0.01983803
v -0.08789515 0.04222500 0.01982706
v -0.08789515 0.04222500 0.01982706
v -0.08789515 0.04222500 0.01982706
v -0.08779007 0.04204273 0.01983803
v -0.08779007 0.04204273 0.01983803
v -0.08779007 0.04204273 0.01983803
v -0.08790570 0.04222697 0.01982623
v -0.08790570 0.04222697 0.01982623
v -0.08790570 0.04222697 0.01982623
v -0.08790332 0.04169213 0.01983439
v -0.08790332 0.04169213 0.01983439
v -0.08790332 0.04169213 0.01983439
v -0.08801525 0.04134112 0.01983088
v -0.08801525 0.04134112 0.01983088
v -0.08816766 0.04102355 0.01982367
v -0.08812534 0.04105085 0.01982659
v -0.08812534 0.04105085 0.01982659
v -0.08825051 0.04102092 0.01981717
v -0.08825051 0.04102092 0.01981717
v -0.08825051 0.04102092 0.01981717
v -0.08951890 0.04125618 0.01971417
v -0.08951890 0.04125618 0.01971417
v -0.08951890 0.04125618 0.01971417
v -0.09078735 0.04149150 0.01961117
v -0.09078735 0.04149150 0.01961117
v -0.09195685 0.03809463 0.01957017
v -0.09195685 0.03809463 0.01957017
v -0.09190303 0.03826338 0.01957190
v -0.09190303 0.03826338 0.01957190
v -0.09190303 0.03826338 0.01957190
v -0.09314244 0.03896027 0.01946425
v -0.09314244 0.03896027 0.01946425
v -0.09314244 0.03896027 0.01946425
v -0.09185022 0.03843247 0.01957350
v -0.09185022 0.03843247 0.01957350
v -0.09185022 0.03843247 0.01957350
v -0.09300768 0.03938639 0.01946848
v -0.09300768 0.03938639 0.01946848
v -0.09300768 0.03938639 0.01946848
v -0.09174269 0.03877645 0.01957678
v -0.09174269 0.03877645 0.01957678
v -0.09174269 0.03877645 0.01957678
v -0.09288406 0.03978013 0.01947230
v -0.09288406 0.03978013 0.01947230
v -0.09288406 0.03978013 0.01947230
v -0.09163439 0.03912007 0.01958018
v -0.09163439 0.03912007 0.01958018
v -0.09163439 0.03912007 0.01958018
v -0.09161072 0.03917676 0.01958119
v -0.09161072 0.03917676 0.01958119
v -0.08945006 0.03995615 0.01973903
v -0.08945006 0.03995615 0.01973903
v -0.08945006 0.03995615 0.01973903
v -0.08945006 0.03995615 0.01973903
v -0.08944678 0.04000687 0.01973849
v -0.08946216 0.04004061 0.01973682
v -0.08946216 0.04004061 0.01973682
v -0.08925575 0.03741019 0.01979231
v -0.08925575 0.03741019 0.01979231
v -0.08925575 0.03741019 0.01979231
v -0.08925575 0.03741019 0.01979231
v -0.08925372 0.03744798 0.01979190
v -0.08926939 0.03748130 0.01979017
v -0.08926939 0.03748130 0.01979017
v -0.08990603 0.03889119 0.01971918
v -0.08990603 0.03889119 0.01971918
v -0.08990603 0.03889119 0.01971918
v -0.08990603 0.03889119 0.01971918
v -0.08983331 0.03889191 0.01972484
v -0.08979219 0.03891515 0.01972770
v -0.08979219 0.03891515 0.01972770
v -0.08949601 0.04006582 0.01973378
v -0.08949601 0.04006582 0.01973378
v -0.08950126 0.04006797 0.01973330
v -0.08950126 0.04006797 0.01973330
v -0.08950126 0.04006797 0.01973330
v -0.08955585 0.04008096 0.01972883
v -0.08955585 0.04008096 0.01972883
v -0.08930033 0.03750491 0.01978737
v -0.08930033 0.03750491 0.01978737
v -0.08930987 0.03750848 0.01978659
v -0.08930987 0.03750848 0.01978659
v -0.08930987 0.03750848 0.01978659
v -0.08933520 0.03751450 0.01978451
v -0.08933520 0.03751450 0.01978451
v -0.08975654 0.03897327 0.01972967
v -0.08975654 0.03897327 0.01972967
v -0.08975297 0.03898370 0.01972979
v -0.08975297 0.03898370 0.01972979
v -0.08975297 0.03898370 0.01972979
v -0.08973240 0.03904896 0.01973038
v -0.08973240 0.03904896 0.01973038
vn -0.07827000 0.01487000 0.99682000
vn -0.07794000 0.01490000 0.99685000
vn -0.07795000 0.01498000 0.99684000
vn -0.07815000 0.01494000 0.99683000
vn -0.07827000 0.01487000 0.99682000
vn -0.07815000 0.01494000 0.99683000
vn -0.07798000 0.01492000 0.99684000
vn -0.07830000 0.01481000 0.99682000
vn -0.07818000 0.01489000 0.99683000
vn -0.07794000 0.01490000 0.99685000
vn -0.07809000 0.01493000 0.99683000
vn -0.07807000 0.01492000 0.99684000
vn -0.07818000 0.01489000 0.99683000
vn -0.07815000 0.01494000 0.99683000
vn -0.07790000 0.01509000 0.99685000
vn -0.07818000 0.01489000 0.99683000
vn -0.07819000 0.01489000 0.99683000
vn -0.07815000 0.01490000 0.99683000
vn -0.07830000 0.01481000 0.99682000
vn -0.07817000 0.01460000 0.99683000
vn -0.07820000 0.01489000 0.99683000
vn -0.07806000 0.01488000 0.99684000
vn -0.07819000 0.01489000 0.99683000
vn -0.07817000 0.01460000 0.99683000
vn -0.07819000 0.01503000 0.99682000
vn -0.07819000 0.01503000 0.99682000
vn -0.07817000 0.01460000 0.99683000
vn -0.07810000 0.01491000 0.99683000
vn -0.07819000 0.01489000 0.99683000
vn -0.07819000 0.01491000 0.99683000
vn -0.07819000 0.01489000 0.99683000
vn -0.07819000 0.01489000 0.99683000
vn -0.07819000 0.01503000 0.99682000
vn -0.07819000 0.01494000 0.99683000
vn -0.07819000 0.01489000 0.99683000
vn -0.07819000 0.01489000 0.99683000
vn -0.07819000 0.01490000 0.99683000
vn -0.07819000 0.01494000 0.99683000
vn -0.07813000 0.01489000 0.99683000
vn -0.07819000 0.01490000 0.99683000
vn -0.07819000 0.01494000 0.99683000
vn -0.07819000 0.01489000 0.99683000
vn -0.07813000 0.01489000 0.99683000
vn -0.07819000 0.01489000 0.99683000
vn -0.07819000 0.01490000 0.99683000
vn -0.07818000 0.01489000 0.99683000
vn -0.07819000 0.01490000 0.99683000
vn -0.07818000 0.01489000 0.99683000
vn -0.07819000 0.01491000 0.99683000
vn -0.07815000 0.01483000 0.99683000
vn -0.07819000 0.01491000 0.99683000
vn -0.07819000 0.01492000 0.99683000
vn -0.07818000 0.01489000 0.99683000
vn -0.07819000 0.01490000 0.99683000
vn -0.07819000 0.01493000 0.99683000
vn -0.07818000 0.01488000 0.99683000
vn -0.07819000 0.01491000 0.99683000
vn -0.07819000 0.01492000 0.99683000
vn -0.07798000 0.01493000 0.99684000
vn -0.07807000 0.01492000 0.99684000
vn -0.07819000 0.01489000 0.99683000
vn -0.07819000 0.01489000 0.99683000
vn -0.07819000 0.01489000 0.99683000
vn -0.07819000 0.01489000 0.99683000
vn -0.07803000 0.01495000 0.99684000
vn -0.07818000 0.01489000 0.99683000
vn -0.07819000 0.01490000 0.99683000
vn -0.07807000 0.01492000 0.99684000
vn -0.07809000 0.01493000 0.99683000
vn -0.07832000 0.01487000 0.99682000
vn -0.07809000 0.01493000 0.99683000
vn -0.07832000 0.01487000 0.99682000
vn -0.07803000 0.01495000 0.99684000
vn -0.07832000 0.01487000 0.99682000
vn -0.07822000 0.01491000 0.99682000
vn -0.07818000 0.01489000 0.99683000
vn -0.07815000 0.01483000 0.99683000
vn -0.07822000 0.01491000 0.99682000
vn -0.07822000 0.01491000 0.99682000
vn -0.07818000 0.01488000 0.99683000
vn -0.07815000 0.01483000 0.99683000
vn -0.07818000 0.01489000 0.99683000
vn -0.07819000 0.01489000 0.99683000
vn -0.07819000 0.01492000 0.99683000
vn -0.07818000 0.01488000 0.99683000
vn -0.07819000 0.01489000 0.99683000
vn -0.07819000 0.01493000 0.99683000
vn -0.07819000 0.01490000 0.99683000
vn -0.07819000 0.01489000 0.99683000
vn -0.07819000 0.01493000 0.99683000
vn -0.07817000 0.01489000 0.99683000
vn -0.07818000 0.01490000 0.99683000
vn -0.07819000 0.01489000 0.99683000
vn -0.07817000 0.01489000 0.99683000
vn -0.07817000 0.01489000 0.99683000
vn -0.07824000 0.01484000 0.99682000
vn -0.07818000 0.01490000 0.99683000
vn -0.07819000 0.01489000 0.99683000
vn -0.07818000 0.01490000 0.99683000
vn -0.07824000 0.01484000 0.99682000
vn -0.07818000 0.01490000 0.99683000
vn -0.07818000 0.01490000 0.99683000
vn -0.07819000 0.01489000 0.99683000
vn -0.07819000 0.01489000 0.99683000
vn -0.07819000 0.01489000 0.99683000
vn -0.07818000 0.01491000 0.99683000
vn -0.07819000 0.01489000 0.99683000
vn -0.07820000 0.01488000 0.99683000
vn -0.07818000 0.01491000 0.99683000
vn -0.07825000 0.01490000 0.99682000
vn -0.07820000 0.01489000 0.99683000
vn -0.07819000 0.01489000 0.99683000
vn -0.07819000 0.01488000 0.99683000
vn -0.07818000 0.01491000 0.99683000
vn -0.07820000 0.01488000 0.99683000
vn -0.07815000 0.01490000 0.99683000
vn -0.07819000 0.01491000 0.99683000
vn -0.07819000 0.01489000 0.99683000
vn -0.07811000 0.01485000 0.99683000
vn -0.07818000 0.01489000 0.99683000
vn -0.07818000 0.01489000 0.99683000
vn -0.07819000 0.01490000 0.99683000
vn -0.07819000 0.01489000 0.99683000
vn -0.07819000 0.01489000 0.99683000
vn -0.07820000 0.01489000 0.99683000
vn -0.07819000 0.01490000 0.99683000
vn -0.07818000 0.01489000 0.99683000
vn -0.07820000 0.01489000 0.99683000
vn -0.07818000 0.01489000 0.99683000
vn -0.07819000 0.01490000 0.99683000
vn -0.07818000 0.01488000 0.99683000
vn -0.07818000 0.01489000 0.99683000
vn -0.07818000 0.01488000 0.99683000
vn -0.07841000 0.01493000 0.99681000
vn -0.07818000 0.01489000 0.99683000
vn -0.07820000 0.01489000 0.99683000
vn -0.07819000 0.01489000 0.99683000
vn -0.07818000 0.01489000 0.99683000
vn -0.07819000 0.01489000 0.99683000
vn -0.07818000 0.01489000 0.99683000
vn -0.07819000 0.01489000 0.99683000
vn -0.07818000 0.01489000 0.99683000
vn -0.07820000 0.01489000 0.99683000
vn -0.07819000 0.01488000 0.99683000
vn -0.07818000 0.01490000 0.99683000
vn -0.07818000 0.01488000 0.99683000
vn -0.07825000 0.01490000 0.99682000
vn -0.07819000 0.01488000 0.99683000
vn -0.07818000 0.01490000 0.99683000
vn -0.07819000 0.01489000 0.99683000
vn -0.07818000 0.01488000 0.99683000
vn -0.07820000 0.01489000 0.99683000
vn -0.07819000 0.01488000 0.99683000
vn -0.07817000 0.01488000 0.99683000
vn -0.07806000 0.01488000 0.99684000
vn -0.07820000 0.01489000 0.99683000
vn -0.07825000 0.01490000 0.99682000
vn -0.07819000 0.01489000 0.99683000
vn -0.07806000 0.01488000 0.99684000
vn -0.07810000 0.01491000 0.99683000
vn -0.07818000 0.01489000 0.99683000
vn -0.07819000 0.01489000 0.99683000
vn -0.07819000 0.01489000 0.99683000
vn -0.07819000 0.01489000 0.99683000
vn -0.07815000 0.01490000 0.99683000
vn -0.07815000 0.01490000 0.99683000
vn -0.07819000 0.01489000 0.99683000
vn -0.07820000 0.01489000 0.99683000
vn -0.07819000 0.01489000 0.99683000
vn -0.07819000 0.01489000 0.99683000
vn -0.07820000 0.01489000 0.99683000
vn -0.07819000 0.01489000 0.99683000
vn -0.07820000 0.01489000 0.99683000
vn -0.07818000 0.01490000 0.99683000
vn -0.07818000 0.01490000 0.99683000
vn -0.07819000 0.01489000 0.99683000
vn -0.07819000 0.01489000 0.99683000
vn -0.07818000 0.01490000 0.99683000
vn -0.07819000 0.01489000 0.99683000
vn -0.07819000 0.01489000 0.99683000
vn -0.07819000 0.01489000 0.99683000
vn -0.07819000 0.01489000 0.99683000
vn -0.07819000 0.01489000 0.99683000
vn -0.07819000 0.01489000 0.99683000
vn -0.07819000 0.01489000 0.99683000
vn -0.07819000 0.01489000 0.99683000
vn -0.07819000 0.01489000 0.99683000
vn -0.07813000 0.01489000 0.99683000
vn -0.07818000 0.01489000 0.99683000
vn -0.07798000 0.01492000 0.99684000
vn -0.07794000 0.01490000 0.99685000
vn -0.07818000 0.01489000 0.99683000
vn -0.07808000 0.01487000 0.99684000
vn -0.07820000 0.01489000 0.99683000
vn -0.07819000 0.01489000 0.99683000
vn -0.07819000 0.01489000 0.99683000
vn -0.07808000 0.01487000 0.99684000
vn -0.07819000 0.01489000 0.99683000
vn -0.07820000 0.01489000 0.99683000
vn -0.07854000 0.01485000 0.99680000
vn -0.07821000 0.01489000 0.99683000
vn -0.07813000 0.01492000 0.99683000
vn -0.07813000 0.01492000 0.99683000
vn -0.07821000 0.01491000 0.99683000
vn -0.07854000 0.01485000 0.99680000
vn -0.07813000 0.01492000 0.99683000
vn -0.07827000 0.01491000 0.99682000
vn -0.07821000 0.01491000 0.99683000
vn -0.07827000 0.01490000 0.99682000
vn -0.07821000 0.01491000 0.99683000
vn -0.07822000 0.01489000 0.99682000
vn -0.07808000 0.01490000 0.99684000
vn -0.07819000 0.01489000 0.99683000
vn -0.07822000 0.01489000 0.99682000
vn -0.07819000 0.01489000 0.99683000
vn -0.07819000 0.01489000 0.99683000
vn -0.07822000 0.01489000 0.99682000
vn -0.07819000 0.01490000 0.99683000
vn -0.07819000 0.01489000 0.99683000
vn -0.07823000 0.01498000 0.99682000
vn -0.07823000 0.01498000 0.99682000
vn -0.07811000 0.01485000 0.99683000
vn -0.07823000 0.01498000 0.99682000
vn -0.07819000 0.01491000 0.99683000
vn -0.07811000 0.01485000 0.99683000
vn -0.07819000 0.01489000 0.99683000
vn -0.07819000 0.01489000 0.99683000
vn -0.07819000 0.01491000 0.99683000
vn -0.07819000 0.01489000 0.99683000
vn -0.07835000 0.01485000 0.99682000
vn -0.07824000 0.01484000 0.99682000
vn -0.07818000 0.01490000 0.99683000
vn -0.07819000 0.01489000 0.99683000
vn -0.07819000 0.01489000 0.99683000
vn -0.07818000 0.01490000 0.99683000
vn -0.07819000 0.01489000 0.99683000
vn -0.07819000 0.01489000 0.99683000
vn -0.07820000 0.01489000 0.99683000
vn -0.07819000 0.01489000 0.99683000
vn -0.07820000 0.01489000 0.99683000
vn -0.07819000 0.01489000 0.99683000
vn -0.07819000 0.01489000 0.99683000
vn -0.07819000 0.01489000 0.99683000
vn -0.07820000 0.01489000 0.99683000
vn -0.07819000 0.01489000 0.99683000
vn -0.07819000 0.01489000 0.99683000
vn -0.07819000 0.01489000 0.99683000
vn -0.07819000 0.01489000 0.99683000
vn -0.07819000 0.01489000 0.99683000
vn -0.07819000 0.01489000 0.99683000
vn -0.07819000 0.01489000 0.99683000
vn -0.07819000 0.01491000 0.99683000
vn -0.07819000 0.01489000 0.99683000
vn -0.07810000 0.01491000 0.99683000
vn -0.07819000 0.01491000 0.99683000
vn -0.07806000 0.01490000 0.99684000
vn -0.07796000 0.01488000 0.99685000
vn -0.07815000 0.01490000 0.99683000
vn -0.07820000 0.01489000 0.99683000
vn -0.07820000 0.01489000 0.99683000
vn -0.07840000 0.01489000 0.99681000
vn -0.07820000 0.01489000 0.99683000
vn -0.07823000 0.01487000 0.99682000
vn -0.07818000 0.01488000 0.99683000
vn -0.07816000 0.01509000 0.99683000
vn -0.07827000 0.01486000 0.99682000
vn -0.07838000 0.01487000 0.99681000
vn -0.07838000 0.01486000 0.99681000
vn -0.07827000 0.01486000 0.99682000
vn -0.07836000 0.01486000 0.99681000
vn -0.07818000 0.01488000 0.99683000
vn -0.07817000 0.01488000 0.99683000
vn -0.07824000 0.01490000 0.99682000
vn -0.07818000 0.01488000 0.99683000
vn -0.07818000 0.01488000 0.99683000
vn -0.07824000 0.01490000 0.99682000
vn -0.07806000 0.01490000 0.99684000
vn -0.07795000 0.01490000 0.99685000
vn -0.07819000 0.01488000 0.99683000
vn -0.07815000 0.01490000 0.99683000
vn -0.07763000 0.01481000 0.99687000
vn -0.07820000 0.01488000 0.99683000
vn -0.07819000 0.01488000 0.99683000
vn -0.07816000 0.01509000 0.99683000
vn -0.07827000 0.01486000 0.99682000
vn -0.07818000 0.01488000 0.99683000
vn -0.07818000 0.01488000 0.99683000
vn -0.07825000 0.01477000 0.99682000
vn -0.07819000 0.01490000 0.99683000
vn -0.07818000 0.01488000 0.99683000
vn -0.07836000 0.01486000 0.99681000
vn -0.07824000 0.01490000 0.99682000
vn -0.07836000 0.01486000 0.99681000
vn -0.07817000 0.01488000 0.99683000
vn -0.07820000 0.01489000 0.99683000
vn -0.07820000 0.01489000 0.99683000
vn -0.07818000 0.01488000 0.99683000
f 1//1 3//3 5//5
f 6//6 4//4 14//14
f 8//8 15//15 19//19
f 20//20 24//24 27//27
f 26//26 25//25 33//33
f 32//32 35//35 36//36
f 38//38 34//34 41//41
f 37//37 40//40 45//45
f 46//46 48//48 53//53
f 51//51 49//49 57//57
f 60//60 12//12 68//68
f 69//69 11//11 71//71
f 70//70 72//72 74//74
f 75//75 78//78 79//79
f 81//81 77//77 50//50
f 80//80 56//56 85//85
f 84//84 52//52 58//58
f 47//47 54//54 88//88
f 87//87 55//55 90//90
f 86//86 89//89 93//93
f 94//94 91//91 95//95
f 92//92 97//97 101//101
f 103//103 105//105 112//112
f 109//109 106//106 114//114
f 120//120 121//121 66//66
f 127//127 129//129 132//132
f 76//76 82//82 138//138
f 137//137 83//83 141//141
f 135//135 140//140 142//142
f 144//144 148//148 153//153
f 145//145 102//102 149//149
f 150//150 104//104 107//107
f 147//147 110//110 157//157
f 156//156 111//111 21//21
f 155//155 22//22 159//159
f 158//158 23//23 31//31
f 13//13 161//161 16//16
f 17//17 162//162 164//164
f 18//18 165//165 166//166
f 167//167 163//163 170//170
f 168//168 171//171 173//173
f 172//172 169//169 177//177
f 174//174 175//175 178//178
f 179//179 176//176 181//181
f 180//180 182//182 184//184
f 185//185 183//183 44//44
f 186//186 42//42 187//187
f 188//188 43//43 39//39
f 59//59 190//190 7//7
f 9//9 189//189 192//192
f 10//10 191//191 2//2
f 143//143 194//194 136//136
f 134//134 193//193 197//197
f 139//139 196//196 124//124
f 123//123 195//195 198//198
f 125//125 199//199 128//128
f 200//200 201//201 205//205
f 203//203 202//202 206//206
f 204//204 208//208 210//210
f 209//209 207//207 212//212
f 211//211 214//214 217//217
f 216//216 213//213 61//61
f 215//215 64//64 219//219
f 218//218 67//67 122//122
f 220//220 221//221 223//223
f 225//225 222//222 119//119
f 224//224 117//117 228//228
f 227//227 118//118 63//63
f 226//226 62//62 229//229
f 230//230 65//65 73//73
f 96//96 231//231 100//100
f 99//99 232//232 235//235
f 98//98 234//234 237//237
f 236//236 233//233 241//241
f 238//238 240//240 244//244
f 242//242 239//239 247//247
f 243//243 246//246 249//249
f 248//248 245//245 253//253
f 250//250 251//251 29//29
f 30//30 252//252 255//255
f 28//28 254//254 160//160
f 259//259 260//260 262//262
f 263//263 267//267 268//268
f 271//271 274//274 275//275
f 261//261 277//277 256//256
f 257//257 278//278 281//281
f 258//258 280//280 116//116
f 113//113 279//279 283//283
f 115//115 282//282 108//108
f 269//269 285//285 266//266
f 265//265 284//284 288//288
f 264//264 286//286 133//133
f 131//131 287//287 290//290
f 130//130 289//289 126//126
f 276//276 292//292 273//273
f 270//270 291//291 293//293
f 272//272 294//294 154//154
f 152//152 295//295 296//296
f 151//151 297//297 146//146

