mtllib material_0.mtl
usemtl material_0
v 0.08773100 0.07787600 0.00931600
v 0.08773100 0.07787600 0.00931600
v 0.08773100 0.07787600 0.00931600
v 0.08773100 0.07787600 0.00931600
v 0.08773100 0.07787600 0.00931600
v 0.08714100 0.07758000 0.01061400
v 0.08714100 0.07758000 0.01061400
v 0.08714100 0.07758000 0.01061400
v 0.08713800 0.07742200 0.00936300
v 0.08713800 0.07742200 0.00936300
v 0.08802400 0.07790000 0.00921800
v 0.08802400 0.07790000 0.00921800
v 0.08802400 0.07790000 0.00921800
v 0.08802400 0.07790000 0.00921800
v 0.08802400 0.07790000 0.00921800
v 0.08802400 0.07790000 0.00921800
v 0.08744000 0.07801900 0.01208500
v 0.08744000 0.07801900 0.01208500
v 0.08744000 0.07801900 0.01208500
v 0.08744000 0.07801900 0.01208500
v 0.08744000 0.07801900 0.01208500
v 0.08744000 0.07801900 0.01208500
v 0.08720500 0.07775400 0.01203100
v 0.08720500 0.07775400 0.01203100
v 0.08776500 0.07819200 0.01188500
v 0.08776500 0.07819200 0.01188500
v 0.08776500 0.07819200 0.01188500
v 0.08776500 0.07819200 0.01188500
v 0.08776500 0.07819200 0.01188500
v 0.08776500 0.07819200 0.01188500
v 0.08837300 0.07785000 0.00921800
v 0.08837300 0.07785000 0.00921800
v 0.08837300 0.07785000 0.00921800
v 0.08837300 0.07785000 0.00921800
v 0.08837300 0.07785000 0.00921800
v 0.08814200 0.07769200 0.00881800
v 0.08814200 0.07769200 0.00881800
v 0.08814200 0.07769200 0.00881800
v 0.08814200 0.07769200 0.00881800
v 0.08814200 0.07769200 0.00881800
v 0.08740500 0.07771500 0.00924200
v 0.08740500 0.07771500 0.00924200
v 0.08740500 0.07771500 0.00924200
v 0.08740500 0.07771500 0.00924200
v 0.08740500 0.07771500 0.00924200
v 0.08740500 0.07771500 0.00924200
v 0.08740500 0.07771500 0.00924200
v 0.08890900 0.07751900 0.00925800
v 0.08890900 0.07751900 0.00925800
v 0.08890900 0.07751900 0.00925800
v 0.08890900 0.07751900 0.00925800
v 0.08890900 0.07751900 0.00925800
v 0.08890900 0.07751900 0.00925800
v 0.08890900 0.07751900 0.00925800
v 0.08868400 0.07747700 0.00885600
v 0.08868400 0.07747700 0.00885600
v 0.08868400 0.07747700 0.00885600
v 0.08868400 0.07747700 0.00885600
v 0.08868400 0.07747700 0.00885600
v 0.08868400 0.07747700 0.00885600
v 0.08868400 0.07747700 0.00885600
v 0.08818500 0.07714800 0.00847200
v 0.08818500 0.07714800 0.00847200
v 0.08818500 0.07714800 0.00847200
v 0.08818500 0.07714800 0.00847200
v 0.08909500 0.07706900 0.00925400
v 0.08909500 0.07706900 0.00925400
v 0.08909500 0.07706900 0.00925400
v 0.08770900 0.07763900 0.00881900
v 0.08770900 0.07763900 0.00881900
v 0.08770900 0.07763900 0.00881900
v 0.08770900 0.07763900 0.00881900
v 0.08770900 0.07763900 0.00881900
v 0.08770900 0.07763900 0.00881900
v 0.08770900 0.07763900 0.00881900
v 0.08887600 0.07705800 0.00886700
v 0.08887600 0.07705800 0.00886700
v 0.08853400 0.07708900 0.00858300
v 0.08853400 0.07708900 0.00858300
v 0.08780600 0.07721000 0.00853900
v 0.08780600 0.07721000 0.00853900
v 0.08734000 0.07732500 0.00885400
v 0.08734000 0.07732500 0.00885400
v 0.08734000 0.07732500 0.00885400
v 0.08916000 0.07737800 0.01186200
v 0.08916000 0.07737800 0.01186200
v 0.08916000 0.07737800 0.01186200
v 0.08906600 0.07767300 0.01193300
v 0.08906600 0.07767300 0.01193300
v 0.08906600 0.07767300 0.01193300
v 0.08906600 0.07767300 0.01193300
v 0.08906600 0.07767300 0.01193300
v 0.08888200 0.07793000 0.01190100
v 0.08888200 0.07793000 0.01190100
v 0.08888200 0.07793000 0.01190100
v 0.08888200 0.07793000 0.01190100
v 0.08743500 0.07776800 0.01244300
v 0.08743500 0.07776800 0.01244300
v 0.08743500 0.07776800 0.01244300
v 0.08784800 0.07809300 0.01239500
v 0.08784800 0.07809300 0.01239500
v 0.08784800 0.07809300 0.01239500
v 0.08784800 0.07809300 0.01239500
v 0.08784800 0.07809300 0.01239500
v 0.08784800 0.07809300 0.01239500
v 0.08835100 0.07766100 0.01280100
v 0.08835100 0.07766100 0.01280100
v 0.08835100 0.07766100 0.01280100
v 0.08820100 0.07786000 0.01269600
v 0.08820100 0.07786000 0.01269600
v 0.08820100 0.07786000 0.01269600
v 0.08820100 0.07786000 0.01269600
v 0.08820100 0.07786000 0.01269600
v 0.08827300 0.07816200 0.01228000
v 0.08827300 0.07816200 0.01228000
v 0.08827300 0.07816200 0.01228000
v 0.08827300 0.07816200 0.01228000
v 0.08827300 0.07816200 0.01228000
v 0.08827300 0.07816200 0.01228000
v 0.08873300 0.07784500 0.01247600
v 0.08873300 0.07784500 0.01247600
v 0.08873300 0.07784500 0.01247600
v 0.08873300 0.07784500 0.01247600
v 0.08873300 0.07784500 0.01247600
v 0.08873300 0.07784500 0.01247600
v 0.08873300 0.07784500 0.01247600
v 0.08873300 0.07784500 0.01247600
v 0.08877200 0.07756200 0.01262000
v 0.08877200 0.07756200 0.01262000
v 0.08865700 0.07809100 0.01194100
v 0.08865700 0.07809100 0.01194100
v 0.08865700 0.07809100 0.01194100
v 0.08865700 0.07809100 0.01194100
v 0.08865700 0.07809100 0.01194100
v 0.08865700 0.07809100 0.01194100
v 0.08865700 0.07809100 0.01194100
v 0.08779100 0.07774800 0.01272500
v 0.08779100 0.07774800 0.01272500
v 0.08779100 0.07774800 0.01272500
v 0.08820600 0.07822300 0.01186400
v 0.08820600 0.07822300 0.01186400
v 0.08820600 0.07822300 0.01186400
v 0.08820600 0.07822300 0.01186400
v 0.08820600 0.07822300 0.01186400
v 0.08903000 0.07746800 0.01231000
v 0.08903000 0.07746800 0.01231000
v 0.08903000 0.07746800 0.01231000
vn -0.21130000 0.88580000 -0.41320000
vn -0.11920000 0.98650000 -0.11210000
vn -0.41980000 0.90150000 -0.10550000
vn -0.33240000 0.85690000 -0.39410000
vn -0.07390000 0.98990000 -0.12100000
vn -0.74230000 0.66830000 -0.04890000
vn -0.75350000 0.65260000 -0.08040000
vn -0.70740000 0.70360000 -0.06650000
vn -0.75350000 0.65260000 -0.08040000
vn -0.75410000 0.52140000 -0.39940000
vn 0.14180000 0.98460000 -0.10190000
vn -0.21130000 0.88580000 -0.41320000
vn 0.12870000 0.89480000 -0.42740000
vn -0.11920000 0.98650000 -0.11210000
vn 0.29890000 0.94460000 -0.13560000
vn -0.10790000 0.86860000 -0.48370000
vn -0.70740000 0.70360000 -0.06650000
vn -0.50290000 0.71050000 0.49230000
vn -0.34160000 0.91070000 0.23220000
vn -0.50870000 0.85670000 -0.08540000
vn -0.74230000 0.66830000 -0.04890000
vn -0.72760000 0.56610000 0.38750000
vn -0.72760000 0.56610000 0.38750000
vn -0.74230000 0.66830000 -0.04890000
vn -0.06050000 0.98630000 0.15360000
vn -0.50870000 0.85670000 -0.08540000
vn -0.34160000 0.91070000 0.23220000
vn -0.10140000 0.97340000 0.20540000
vn -0.41980000 0.90150000 -0.10550000
vn -0.07390000 0.98990000 -0.12100000
vn 0.12870000 0.89480000 -0.42740000
vn 0.50780000 0.77950000 -0.36670000
vn 0.52710000 0.83990000 -0.12940000
vn 0.34790000 0.78600000 -0.51110000
vn 0.14180000 0.98460000 -0.10190000
vn -0.06710000 0.53160000 -0.84430000
vn 0.26720000 0.53180000 -0.80360000
vn 0.12870000 0.89480000 -0.42740000
vn 0.34790000 0.78600000 -0.51110000
vn -0.10790000 0.86860000 -0.48370000
vn -0.57860000 0.62080000 -0.52890000
vn -0.75410000 0.52140000 -0.39940000
vn -0.75350000 0.65260000 -0.08040000
vn -0.70740000 0.70360000 -0.06650000
vn -0.33240000 0.85690000 -0.39410000
vn -0.41980000 0.90150000 -0.10550000
vn -0.50870000 0.85670000 -0.08540000
vn 0.56450000 0.81660000 -0.12090000
vn 0.52710000 0.83990000 -0.12940000
vn 0.50780000 0.77950000 -0.36670000
vn 0.80600000 0.33640000 -0.48710000
vn 0.92230000 0.38050000 -0.06800000
vn 0.94490000 0.31890000 -0.07350000
vn 0.81520000 0.57360000 -0.08060000
vn 0.34790000 0.78600000 -0.51110000
vn 0.62980000 0.26930000 -0.72860000
vn 0.33790000 0.45080000 -0.82620000
vn 0.26720000 0.53180000 -0.80360000
vn 0.50780000 0.77950000 -0.36670000
vn 0.80830000 0.35740000 -0.46800000
vn 0.80600000 0.33640000 -0.48710000
vn -0.05990000 0.53670000 -0.84160000
vn 0.26720000 0.53180000 -0.80360000
vn 0.33790000 0.45080000 -0.82620000
vn -0.06710000 0.53160000 -0.84430000
vn 0.92230000 0.38050000 -0.06800000
vn 0.80600000 0.33640000 -0.48710000
vn 0.80830000 0.35740000 -0.46800000
vn -0.06710000 0.53160000 -0.84430000
vn -0.10790000 0.86860000 -0.48370000
vn -0.33240000 0.85690000 -0.39410000
vn -0.43480000 0.42210000 -0.79550000
vn -0.21130000 0.88580000 -0.41320000
vn -0.57860000 0.62080000 -0.52890000
vn -0.05990000 0.53670000 -0.84160000
vn 0.62980000 0.26930000 -0.72860000
vn 0.80830000 0.35740000 -0.46800000
vn 0.33790000 0.45080000 -0.82620000
vn 0.62980000 0.26930000 -0.72860000
vn -0.05990000 0.53670000 -0.84160000
vn -0.43480000 0.42210000 -0.79550000
vn -0.43480000 0.42210000 -0.79550000
vn -0.75410000 0.52140000 -0.39940000
vn -0.57860000 0.62080000 -0.52890000
vn 0.94490000 0.31890000 -0.07350000
vn 0.92230000 0.38050000 -0.06800000
vn 0.94280000 0.24760000 0.22310000
vn 0.76310000 0.58060000 0.28400000
vn 0.80540000 0.48570000 0.33980000
vn 0.94280000 0.24760000 0.22310000
vn 0.94490000 0.31890000 -0.07350000
vn 0.81520000 0.57360000 -0.08060000
vn 0.81520000 0.57360000 -0.08060000
vn 0.59190000 0.76070000 0.26630000
vn 0.56450000 0.81660000 -0.12090000
vn 0.76310000 0.58060000 0.28400000
vn -0.50290000 0.71050000 0.49230000
vn -0.44510000 0.65450000 0.61120000
vn -0.72760000 0.56610000 0.38750000
vn -0.34160000 0.91070000 0.23220000
vn 0.03030000 0.80620000 0.59080000
vn -0.50290000 0.71050000 0.49230000
vn -0.10140000 0.97340000 0.20540000
vn -0.44510000 0.65450000 0.61120000
vn -0.14100000 0.69460000 0.70540000
vn 0.43980000 0.45490000 0.77440000
vn -0.05580000 0.43290000 0.89970000
vn 0.31590000 0.61740000 0.72040000
vn -0.05580000 0.43290000 0.89970000
vn 0.26830000 0.75680000 0.59600000
vn 0.31590000 0.61740000 0.72040000
vn 0.03030000 0.80620000 0.59080000
vn -0.14100000 0.69460000 0.70540000
vn 0.26380000 0.95970000 0.09710000
vn -0.06050000 0.98630000 0.15360000
vn 0.44060000 0.83760000 0.32300000
vn 0.03030000 0.80620000 0.59080000
vn -0.10140000 0.97340000 0.20540000
vn 0.26830000 0.75680000 0.59600000
vn 0.44060000 0.83760000 0.32300000
vn 0.80540000 0.48570000 0.33980000
vn 0.76530000 0.37240000 0.52500000
vn 0.31590000 0.61740000 0.72040000
vn 0.26830000 0.75680000 0.59600000
vn 0.43980000 0.45490000 0.77440000
vn 0.59190000 0.76070000 0.26630000
vn 0.76310000 0.58060000 0.28400000
vn 0.76530000 0.37240000 0.52500000
vn 0.43980000 0.45490000 0.77440000
vn 0.29890000 0.94460000 -0.13560000
vn 0.44060000 0.83760000 0.32300000
vn 0.59190000 0.76070000 0.26630000
vn 0.14180000 0.98460000 -0.10190000
vn 0.26380000 0.95970000 0.09710000
vn 0.56450000 0.81660000 -0.12090000
vn 0.52710000 0.83990000 -0.12940000
vn -0.05580000 0.43290000 0.89970000
vn -0.14100000 0.69460000 0.70540000
vn -0.44510000 0.65450000 0.61120000
vn 0.29890000 0.94460000 -0.13560000
vn -0.11920000 0.98650000 -0.11210000
vn -0.06050000 0.98630000 0.15360000
vn -0.07390000 0.98990000 -0.12100000
vn 0.26380000 0.95970000 0.09710000
vn 0.76530000 0.37240000 0.52500000
vn 0.80540000 0.48570000 0.33980000
vn 0.94280000 0.24760000 0.22310000
f 21//21 6//6 24//24
f 26//26 47//47 20//20
f 17//17 44//44 8//8
f 143//143 5//5 30//30
f 29//29 3//3 46//46
f 141//141 14//14 2//2
f 9//9 7//7 43//43
f 70//70 16//16 40//40
f 45//45 4//4 71//71
f 73//73 1//1 12//12
f 67//67 61//61 51//51
f 64//64 57//57 78//78
f 59//59 32//32 50//50
f 77//77 60//60 68//68
f 79//79 56//56 76//76
f 38//38 13//13 31//31
f 58//58 63//63 37//37
f 65//65 69//69 36//36
f 82//82 72//72 81//81
f 80//80 75//75 62//62
f 55//55 39//39 34//34
f 10//10 42//42 83//83
f 84//84 41//41 74//74
f 140//140 130//130 15//15
f 66//66 52//52 86//86
f 85//85 53//53 91//91
f 54//54 93//93 92//92
f 33//33 136//136 49//49
f 48//48 135//135 95//95
f 11//11 133//133 35//35
f 99//99 22//22 23//23
f 101//101 112//112 117//117
f 19//19 100//100 27//27
f 129//129 125//125 106//106
f 119//119 110//110 124//124
f 25//25 115//115 142//142
f 103//103 118//118 28//28
f 120//120 131//131 116//116
f 139//139 104//104 98//98
f 94//94 132//132 126//126
f 97//97 102//102 18//18
f 134//134 144//144 114//114
f 111//111 108//108 123//123
f 109//109 137//137 107//107
f 105//105 138//138 113//113
f 145//145 122//122 128//128
f 87//87 90//90 147//147
f 146//146 89//89 121//121
f 88//88 96//96 127//127
