mtllib material_0.mtl
usemtl material_0
v 0.00443100 0.07314600 0.08153300
v 0.00443100 0.07314600 0.08153300
v 0.00443100 0.07314600 0.08153300
v 0.00443100 0.07314600 0.08153300
v 0.00443100 0.07314600 0.08153300
v 0.00443100 0.07314600 0.08153300
v 0.00443100 0.07314600 0.08153300
v 0.00443100 0.07314600 0.08153300
v 0.00452700 0.07266500 0.08251100
v 0.00452700 0.07266500 0.08251100
v 0.00452700 0.07266500 0.08251100
v 0.00452700 0.07266500 0.08251100
v 0.00452700 0.07266500 0.08251100
v 0.00452700 0.07266500 0.08251100
v 0.00452700 0.07266500 0.08251100
v 0.00393500 0.07290900 0.08132300
v 0.00393500 0.07290900 0.08132300
v 0.00393500 0.07290900 0.08132300
v 0.00393500 0.07290900 0.08132300
v 0.00393500 0.07290900 0.08132300
v 0.00393500 0.07290900 0.08132300
v 0.00363500 0.07218700 0.08199700
v 0.00363500 0.07218700 0.08199700
v 0.00363500 0.07218700 0.08199700
v 0.00363500 0.07218700 0.08199700
v 0.00363500 0.07218700 0.08199700
v 0.00540100 0.07244800 0.08298100
v 0.00540100 0.07244800 0.08298100
v 0.00540100 0.07244800 0.08298100
v 0.00540100 0.07244800 0.08298100
v 0.00540100 0.07244800 0.08298100
v 0.00571100 0.07315700 0.08222900
v 0.00571100 0.07315700 0.08222900
v 0.00571100 0.07315700 0.08222900
v 0.00571100 0.07315700 0.08222900
v 0.00571100 0.07315700 0.08222900
v 0.00571100 0.07315700 0.08222900
v 0.00698500 0.06952100 0.08467300
v 0.00698500 0.06952100 0.08467300
v 0.00698500 0.06952100 0.08467300
v 0.00698500 0.06952100 0.08467300
v 0.00698500 0.06952100 0.08467300
v 0.00471800 0.06916400 0.08462300
v 0.00471800 0.06916400 0.08462300
v 0.00471800 0.06916400 0.08462300
v 0.00471800 0.06916400 0.08462300
v 0.00471800 0.06916400 0.08462300
v 0.00471800 0.06916400 0.08462300
v 0.01094500 0.07016300 0.08142400
v 0.01094500 0.07016300 0.08142400
v 0.01094500 0.07016300 0.08142400
v 0.01094500 0.07016300 0.08142400
v 0.01094500 0.07016300 0.08142400
v 0.00898500 0.06984600 0.08352400
v 0.00898500 0.06984600 0.08352400
v 0.00898500 0.06984600 0.08352400
v 0.00898500 0.06984600 0.08352400
v 0.00898500 0.06984600 0.08352400
v 0.00898500 0.06984600 0.08352400
v 0.01766400 0.07125100 0.04043900
v 0.01766400 0.07125100 0.04043900
v 0.01766400 0.07125100 0.04043900
v 0.01766400 0.07125100 0.04043900
v 0.01766400 0.07125100 0.04043900
v 0.01766400 0.07125100 0.04043900
v 0.01766400 0.07125100 0.04043900
v 0.00962000 0.06998400 0.01322000
v 0.00962000 0.06998400 0.01322000
v 0.00962000 0.06998400 0.01322000
v 0.00962000 0.06998400 0.01322000
v 0.00962000 0.06998400 0.01322000
v 0.00962000 0.06998400 0.01322000
v 0.01290500 0.07048000 0.07609500
v 0.01290500 0.07048000 0.07609500
v 0.01290500 0.07048000 0.07609500
v 0.01290500 0.07048000 0.07609500
v 0.01290500 0.07048000 0.07609500
v 0.01290500 0.07048000 0.07609500
v 0.01290500 0.07048000 0.07609500
v 0.01290500 0.07048000 0.07609500
v 0.00197100 0.06870900 0.08134000
v 0.00197100 0.06870900 0.08134000
v 0.00197100 0.06870900 0.08134000
v 0.00197100 0.06870900 0.08134000
v 0.00197100 0.06870900 0.08134000
v 0.00197100 0.06870900 0.08134000
v 0.00197100 0.06870900 0.08134000
v 0.00197100 0.06870900 0.08134000
v 0.00197100 0.06870900 0.08134000
v 0.00197100 0.06870900 0.08134000
v 0.00265700 0.06882100 0.08305500
v 0.00265700 0.06882100 0.08305500
v 0.00265700 0.06882100 0.08305500
v 0.00265700 0.06882100 0.08305500
v 0.00265700 0.06882100 0.08305500
v 0.00360400 0.06898200 0.08403300
v 0.00360400 0.06898200 0.08403300
v 0.00360400 0.06898200 0.08403300
v 0.00360400 0.06898200 0.08403300
v 0.01210700 0.07035100 0.07910000
v 0.01210700 0.07035100 0.07910000
v 0.01210700 0.07035100 0.07910000
v 0.01210700 0.07035100 0.07910000
v 0.01019900 0.07098800 0.01139600
v 0.01019900 0.07098800 0.01139600
v 0.01019900 0.07098800 0.01139600
v 0.01019900 0.07098800 0.01139600
v 0.01111600 0.07311100 0.01015600
v 0.01111600 0.07311100 0.01015600
v 0.01111600 0.07311100 0.01015600
v 0.01111600 0.07311100 0.01015600
v 0.01111600 0.07311100 0.01015600
v 0.01111600 0.07311100 0.01015600
v 0.01111600 0.07311100 0.01015600
v 0.00616600 0.07259600 0.08282500
v 0.00616600 0.07259600 0.08282500
v 0.00616600 0.07259600 0.08282500
v 0.00616600 0.07259600 0.08282500
v 0.00616600 0.07259600 0.08282500
v 0.01414600 0.07385700 0.04993400
v 0.01414600 0.07385700 0.04993400
v 0.01414600 0.07385700 0.04993400
v 0.01414600 0.07385700 0.04993400
v 0.01291100 0.07377800 0.05861000
v 0.01291100 0.07377800 0.05861000
v 0.01291100 0.07377800 0.05861000
v 0.01291100 0.07377800 0.05861000
v 0.01291100 0.07377800 0.05861000
v 0.01291100 0.07377800 0.05861000
v 0.01024200 0.07354400 0.07645400
v 0.01024200 0.07354400 0.07645400
v 0.01024200 0.07354400 0.07645400
v 0.01024200 0.07354400 0.07645400
v 0.01024200 0.07354400 0.07645400
v 0.01024200 0.07354400 0.07645400
v 0.01104200 0.07319000 0.07362400
v 0.01104200 0.07319000 0.07362400
v 0.01104200 0.07319000 0.07362400
v 0.01104200 0.07319000 0.07362400
v 0.01104200 0.07319000 0.07362400
v 0.02077800 0.07182700 0.01317600
v 0.02077800 0.07182700 0.01317600
v 0.02077800 0.07182700 0.01317600
v 0.02077800 0.07182700 0.01317600
v 0.02077800 0.07182700 0.01317600
v 0.02001900 0.07310400 0.01088200
v 0.02001900 0.07310400 0.01088200
v 0.02001900 0.07310400 0.01088200
v 0.02001900 0.07310400 0.01088200
v 0.01190200 0.07370500 0.06555700
v 0.01190200 0.07370500 0.06555700
v 0.01190200 0.07370500 0.06555700
v 0.01190200 0.07370500 0.06555700
v 0.01190200 0.07370500 0.06555700
v 0.01190200 0.07370500 0.06555700
v 0.00757700 0.07314800 0.08159100
v 0.00757700 0.07314800 0.08159100
v 0.00757700 0.07314800 0.08159100
v 0.00757700 0.07314800 0.08159100
v 0.00757700 0.07314800 0.08159100
v 0.00757700 0.07314800 0.08159100
v 0.00757700 0.07314800 0.08159100
v 0.00843000 0.07301000 0.08098100
v 0.00843000 0.07301000 0.08098100
v 0.00843000 0.07301000 0.08098100
v 0.00843000 0.07301000 0.08098100
v 0.01870100 0.07484000 0.01014700
v 0.01870100 0.07484000 0.01014700
v 0.01870100 0.07484000 0.01014700
v 0.01870100 0.07484000 0.01014700
v 0.01870100 0.07484000 0.01014700
v 0.01870100 0.07484000 0.01014700
v 0.01870100 0.07484000 0.01014700
v 0.01870100 0.07484000 0.01014700
v 0.01220600 0.07439500 0.01004400
v 0.01220600 0.07439500 0.01004400
v 0.01220600 0.07439500 0.01004400
v 0.01220600 0.07439500 0.01004400
v 0.01220600 0.07439500 0.01004400
v 0.01220600 0.07439500 0.01004400
v 0.01220600 0.07439500 0.01004400
v 0.01220600 0.07439500 0.01004400
v 0.01220600 0.07439500 0.01004400
v 0.01220600 0.07439500 0.01004400
v 0.01220600 0.07439500 0.01004400
v 0.01762800 0.07525800 0.01009700
v 0.01762800 0.07525800 0.01009700
v 0.01762800 0.07525800 0.01009700
v 0.01762800 0.07525800 0.01009700
v 0.01762800 0.07525800 0.01009700
v 0.00331100 0.07220800 0.08108700
v 0.00331100 0.07220800 0.08108700
v 0.00331100 0.07220800 0.08108700
v 0.00331100 0.07220800 0.08108700
v 0.00331100 0.07220800 0.08108700
v 0.00331100 0.07220800 0.08108700
v 0.00891200 0.07370700 0.07868800
v 0.00891200 0.07370700 0.07868800
v 0.00891200 0.07370700 0.07868800
v 0.00891200 0.07370700 0.07868800
v 0.00891200 0.07370700 0.07868800
v 0.00980000 0.07323300 0.07873200
v 0.00980000 0.07323300 0.07873200
v 0.00980000 0.07323300 0.07873200
v 0.00980000 0.07323300 0.07873200
v 0.00980000 0.07323300 0.07873200
v 0.00980000 0.07323300 0.07873200
v 0.00980000 0.07323300 0.07873200
v 0.00988400 0.07399700 0.07153300
v 0.00988400 0.07399700 0.07153300
v 0.00988400 0.07399700 0.07153300
v 0.00988400 0.07399700 0.07153300
v 0.00988400 0.07399700 0.07153300
v 0.01067100 0.07372600 0.07217900
v 0.01067100 0.07372600 0.07217900
v 0.01067100 0.07372600 0.07217900
v 0.01067100 0.07372600 0.07217900
v 0.01067100 0.07372600 0.07217900
v 0.00940500 0.07393100 0.07469800
v 0.00940500 0.07393100 0.07469800
v 0.00940500 0.07393100 0.07469800
v 0.00940500 0.07393100 0.07469800
v 0.00940500 0.07393100 0.07469800
v 0.00940500 0.07393100 0.07469800
v 0.01295700 0.07446000 0.04981500
v 0.01295700 0.07446000 0.04981500
v 0.01295700 0.07446000 0.04981500
v 0.01295700 0.07446000 0.04981500
v 0.01193800 0.07431500 0.05720300
v 0.01193800 0.07431500 0.05720300
v 0.01193800 0.07431500 0.05720300
v 0.01193800 0.07431500 0.05720300
v 0.01193800 0.07431500 0.05720300
v 0.01121000 0.07394100 0.06702400
v 0.01121000 0.07394100 0.06702400
v 0.01121000 0.07394100 0.06702400
v 0.01121000 0.07394100 0.06702400
v 0.01121000 0.07394100 0.06702400
v 0.01102500 0.07415300 0.06468400
v 0.01102500 0.07415300 0.06468400
v 0.01102500 0.07415300 0.06468400
v 0.01102500 0.07415300 0.06468400
v 0.01102500 0.07415300 0.06468400
v 0.01102500 0.07415300 0.06468400
v 0.01102500 0.07415300 0.06468400
v 0.00730300 0.07361100 0.08035900
v 0.00730300 0.07361100 0.08035900
v 0.00730300 0.07361100 0.08035900
v 0.00730300 0.07361100 0.08035900
v 0.00730300 0.07361100 0.08035900
v 0.01365500 0.07428300 0.04941000
v 0.01365500 0.07428300 0.04941000
v 0.01365500 0.07428300 0.04941000
v 0.01365500 0.07428300 0.04941000
v 0.01365500 0.07428300 0.04941000
v 0.01365500 0.07428300 0.04941000
v 0.01365500 0.07428300 0.04941000
v 0.01365500 0.07428300 0.04941000
v 0.01365500 0.07428300 0.04941000
v 0.01569400 0.07496900 0.02486900
v 0.01569400 0.07496900 0.02486900
v 0.01569400 0.07496900 0.02486900
v 0.01489800 0.07481100 0.03299000
v 0.01489800 0.07481100 0.03299000
v 0.01489800 0.07481100 0.03299000
v 0.01489800 0.07481100 0.03299000
v 0.01489800 0.07481100 0.03299000
v 0.01393600 0.07465100 0.04103500
v 0.01393600 0.07465100 0.04103500
v 0.01393600 0.07465100 0.04103500
v 0.01393600 0.07465100 0.04103500
v 0.01230300 0.07411200 0.05899800
v 0.01230300 0.07411200 0.05899800
v 0.01230300 0.07411200 0.05899800
v 0.01230300 0.07411200 0.05899800
v 0.01230300 0.07411200 0.05899800
vn -0.25030000 0.85910000 0.44650000
vn -0.42020000 0.90700000 -0.02980000
vn -0.09470000 0.98280000 0.15840000
vn -0.16180000 0.98680000 -0.00440000
vn -0.16110000 0.98690000 -0.00380000
vn -0.16240000 0.98670000 -0.00450000
vn -0.14820000 0.98900000 0.00120000
vn -0.52900000 0.74000000 0.41550000
vn -0.47620000 0.43520000 0.76410000
vn -0.32180000 0.47630000 0.81830000
vn -0.52900000 0.74000000 0.41550000
vn -0.60730000 0.66240000 0.43870000
vn -0.61190000 0.42830000 0.66490000
vn -0.25030000 0.85910000 0.44650000
vn -0.15880000 0.75030000 0.64170000
vn -0.60730000 0.66240000 0.43870000
vn -0.52900000 0.74000000 0.41550000
vn -0.42020000 0.90700000 -0.02980000
vn -0.76130000 0.58260000 0.28480000
vn -0.76330000 0.64160000 -0.07520000
vn -0.73260000 0.67680000 -0.07200000
vn -0.87770000 0.35590000 0.32100000
vn -0.76130000 0.58260000 0.28480000
vn -0.61190000 0.42830000 0.66490000
vn -0.69230000 0.39160000 0.60610000
vn -0.60730000 0.66240000 0.43870000
vn 0.07040000 0.52760000 0.84660000
vn -0.32180000 0.47630000 0.81830000
vn -0.15880000 0.75030000 0.64170000
vn -0.00120000 0.72800000 0.68560000
vn -0.09190000 0.46070000 0.88280000
vn 0.20340000 0.78590000 0.58390000
vn 0.11610000 0.93790000 0.32700000
vn -0.00120000 0.72800000 0.68560000
vn -0.25030000 0.85910000 0.44650000
vn -0.09470000 0.98280000 0.15840000
vn -0.15880000 0.75030000 0.64170000
vn 0.34750000 0.54930000 0.75990000
vn 0.15560000 -0.98780000 0.00650000
vn 0.16000000 -0.98710000 -0.00030000
vn 0.07040000 0.52760000 0.84660000
vn -0.09190000 0.46070000 0.88280000
vn 0.15560000 -0.98780000 0.00650000
vn -0.32180000 0.47630000 0.81830000
vn -0.09190000 0.46070000 0.88280000
vn 0.15420000 -0.98800000 0.01310000
vn 0.16530000 -0.98620000 -0.00180000
vn -0.47620000 0.43520000 0.76410000
vn 0.55020000 0.57960000 0.60120000
vn 0.69190000 0.60430000 0.39500000
vn 0.15990000 -0.98710000 0.00000000
vn 0.63400000 0.62990000 0.44870000
vn 0.15990000 -0.98710000 0.00010000
vn 0.53170000 0.58520000 0.61220000
vn 0.16000000 -0.98710000 -0.00030000
vn 0.55020000 0.57960000 0.60120000
vn 0.15990000 -0.98710000 0.00000000
vn 0.34750000 0.54930000 0.75990000
vn 0.39320000 0.58360000 0.71050000
vn 0.77670000 0.61890000 0.11700000
vn 0.75580000 0.64670000 0.10250000
vn 0.76860000 0.63170000 0.10120000
vn 0.16300000 -0.98660000 -0.00220000
vn 0.77380000 0.62270000 0.11580000
vn 0.15980000 -0.98710000 -0.00000000
vn 0.15800000 -0.98740000 -0.00070000
vn -0.93170000 0.34960000 -0.09810000
vn 0.16300000 -0.98660000 -0.00220000
vn 0.14460000 -0.88560000 -0.44130000
vn 0.15800000 -0.98740000 -0.00070000
vn -0.93180000 0.34950000 -0.09810000
vn -0.93420000 0.33970000 -0.10920000
vn 0.76270000 0.63520000 0.12180000
vn 0.74780000 0.62280000 0.23010000
vn 0.75580000 0.64110000 0.13340000
vn 0.77670000 0.61890000 0.11700000
vn 0.74650000 0.62630000 0.22480000
vn 0.16000000 -0.98710000 0.00030000
vn 0.77010000 0.62680000 0.11850000
vn 0.15980000 -0.98710000 -0.00000000
vn 0.15980000 -0.98710000 -0.00000000
vn 0.16000000 -0.98710000 0.00030000
vn -0.93170000 0.34960000 -0.09810000
vn -0.87470000 0.35840000 0.32630000
vn 0.15800000 -0.98740000 -0.00070000
vn 0.15990000 -0.98710000 0.00010000
vn 0.16530000 -0.98620000 -0.00180000
vn 0.16000000 -0.98710000 -0.00030000
vn 0.15560000 -0.98780000 0.00650000
vn 0.15990000 -0.98710000 0.00000000
vn -0.69230000 0.39160000 0.60610000
vn 0.15420000 -0.98800000 0.01310000
vn 0.16530000 -0.98620000 -0.00180000
vn -0.87770000 0.35590000 0.32100000
vn -0.87470000 0.35840000 0.32630000
vn -0.61190000 0.42830000 0.66490000
vn -0.47620000 0.43520000 0.76410000
vn 0.15420000 -0.98800000 0.01310000
vn -0.69230000 0.39160000 0.60610000
vn 0.16000000 -0.98710000 0.00030000
vn 0.15990000 -0.98710000 0.00010000
vn 0.74650000 0.62630000 0.22480000
vn 0.69190000 0.60430000 0.39500000
vn 0.06870000 -0.52500000 -0.84830000
vn 0.15410000 -0.84080000 -0.51890000
vn -0.93420000 0.33970000 -0.10920000
vn 0.14460000 -0.88560000 -0.44130000
vn -0.93420000 0.33970000 -0.10920000
vn -0.93180000 0.34950000 -0.09810000
vn 0.02300000 -0.10630000 -0.99410000
vn -0.76330000 0.64160000 -0.07520000
vn 0.07620000 -0.33910000 -0.93770000
vn 0.06870000 -0.52500000 -0.84830000
vn -0.73260000 0.67680000 -0.07200000
vn 0.20340000 0.78590000 0.58390000
vn -0.00120000 0.72800000 0.68560000
vn 0.34750000 0.54930000 0.75990000
vn 0.07040000 0.52760000 0.84660000
vn 0.39320000 0.58360000 0.71050000
vn 0.59790000 0.79670000 0.08810000
vn 0.75580000 0.64670000 0.10250000
vn 0.59520000 0.79830000 0.09190000
vn 0.77380000 0.62270000 0.11580000
vn 0.59520000 0.79830000 0.09190000
vn 0.77010000 0.62680000 0.11850000
vn 0.51970000 0.85010000 0.08450000
vn 0.77380000 0.62270000 0.11580000
vn 0.77670000 0.61890000 0.11700000
vn 0.52150000 0.84860000 0.08870000
vn 0.75580000 0.64110000 0.13340000
vn 0.67390000 0.73220000 0.09880000
vn 0.26290000 0.96100000 0.08640000
vn 0.74780000 0.62280000 0.23010000
vn 0.45290000 0.86740000 0.20630000
vn 0.29350000 0.95340000 0.07010000
vn 0.67390000 0.73220000 0.09880000
vn 0.75580000 0.64110000 0.13340000
vn 0.76270000 0.63520000 0.12180000
vn 0.67060000 0.73500000 0.10070000
vn 0.52180000 0.84600000 0.10960000
vn 0.14460000 -0.88560000 -0.44130000
vn 0.15410000 -0.84080000 -0.51890000
vn 0.77380000 0.62670000 0.09260000
vn 0.76860000 0.63170000 0.10120000
vn 0.16300000 -0.98660000 -0.00220000
vn 0.06870000 -0.52500000 -0.84830000
vn 0.07620000 -0.33910000 -0.93770000
vn 0.15410000 -0.84080000 -0.51890000
vn 0.77380000 0.62670000 0.09260000
vn 0.76270000 0.63520000 0.12180000
vn 0.41550000 0.90830000 0.04940000
vn 0.77010000 0.62680000 0.11850000
vn 0.51970000 0.85010000 0.08450000
vn 0.38910000 0.91760000 0.08070000
vn 0.52180000 0.84600000 0.10960000
vn 0.42620000 0.83150000 0.35630000
vn 0.20340000 0.78590000 0.58390000
vn 0.11610000 0.93790000 0.32700000
vn 0.53170000 0.58520000 0.61220000
vn 0.36170000 0.88010000 0.30750000
vn 0.39320000 0.58360000 0.71050000
vn 0.24840000 0.92350000 0.29220000
vn 0.63400000 0.62990000 0.44870000
vn 0.55020000 0.57960000 0.60120000
vn 0.53170000 0.58520000 0.61220000
vn 0.36170000 0.88010000 0.30750000
vn 0.59790000 0.79670000 0.08810000
vn 0.76860000 0.63170000 0.10120000
vn 0.02300000 -0.10630000 -0.99410000
vn 0.35990000 0.93110000 0.05950000
vn 0.07620000 -0.33910000 -0.93770000
vn 0.77380000 0.62670000 0.09260000
vn 0.02050000 -0.06850000 -0.99740000
vn 0.75580000 0.64670000 0.10250000
vn -0.15730000 0.98760000 -0.00130000
vn -0.15850000 0.98740000 0.00070000
vn -0.13450000 0.99090000 0.00090000
vn -0.17200000 0.98510000 0.00230000
vn -0.14820000 0.98900000 0.00120000
vn -0.16850000 0.98570000 0.00070000
vn 0.02050000 -0.06850000 -0.99740000
vn -0.42020000 0.90700000 -0.02980000
vn 0.02300000 -0.10630000 -0.99410000
vn -0.76330000 0.64160000 -0.07520000
vn -0.17660000 0.98430000 0.00170000
vn 0.35990000 0.93110000 0.05950000
vn 0.02050000 -0.06850000 -0.99740000
vn 0.27810000 0.95910000 0.05190000
vn -0.00380000 0.99980000 0.01910000
vn -0.15730000 0.98760000 -0.00130000
vn -0.93170000 0.34960000 -0.09810000
vn -0.87770000 0.35590000 0.32100000
vn -0.87470000 0.35840000 0.32630000
vn -0.73260000 0.67680000 -0.07200000
vn -0.76130000 0.58260000 0.28480000
vn -0.93180000 0.34950000 -0.09810000
vn 0.45290000 0.86740000 0.20630000
vn 0.26290000 0.96100000 0.08640000
vn 0.24840000 0.92350000 0.29220000
vn -0.00170000 0.99840000 0.05580000
vn 0.42620000 0.83150000 0.35630000
vn 0.74650000 0.62630000 0.22480000
vn 0.74780000 0.62280000 0.23010000
vn 0.45290000 0.86740000 0.20630000
vn 0.69190000 0.60430000 0.39500000
vn 0.63400000 0.62990000 0.44870000
vn 0.42620000 0.83150000 0.35630000
vn 0.36170000 0.88010000 0.30750000
vn 0.27860000 0.95840000 0.06210000
vn 0.26540000 0.96190000 0.06620000
vn -0.16240000 0.98670000 -0.00450000
vn -0.16110000 0.98690000 -0.00380000
vn 0.27360000 0.95940000 0.06860000
vn 0.67060000 0.73500000 0.10070000
vn 0.67390000 0.73220000 0.09880000
vn 0.29350000 0.95340000 0.07010000
vn 0.27860000 0.95840000 0.06210000
vn 0.27360000 0.95940000 0.06860000
vn 0.27860000 0.95840000 0.06210000
vn -0.00170000 0.99840000 0.05580000
vn -0.16110000 0.98690000 -0.00380000
vn 0.26290000 0.96100000 0.08640000
vn 0.29350000 0.95340000 0.07010000
vn -0.16180000 0.98680000 -0.00440000
vn -0.17660000 0.98430000 0.00170000
vn 0.27610000 0.95940000 0.05690000
vn 0.27320000 0.96060000 0.05130000
vn -0.13450000 0.99090000 0.00090000
vn -0.13450000 0.99090000 0.00090000
vn 0.27060000 0.96120000 0.05380000
vn -0.16850000 0.98570000 0.00070000
vn 0.26640000 0.96230000 0.05480000
vn 0.27610000 0.95940000 0.05690000
vn 0.26540000 0.96190000 0.06620000
vn 0.52180000 0.84600000 0.10960000
vn 0.27360000 0.95940000 0.06860000
vn 0.67060000 0.73500000 0.10070000
vn 0.41550000 0.90830000 0.04940000
vn -0.14820000 0.98900000 0.00120000
vn 0.41550000 0.90830000 0.04940000
vn 0.27060000 0.96120000 0.05380000
vn 0.26540000 0.96190000 0.06620000
vn -0.16850000 0.98570000 0.00070000
vn -0.16240000 0.98670000 -0.00450000
vn 0.38910000 0.91760000 0.08070000
vn -0.09470000 0.98280000 0.15840000
vn 0.24840000 0.92350000 0.29220000
vn -0.16180000 0.98680000 -0.00440000
vn 0.11610000 0.93790000 0.32700000
vn -0.00170000 0.99840000 0.05580000
vn 0.26640000 0.96230000 0.05480000
vn 0.35990000 0.93110000 0.05950000
vn 0.27810000 0.95910000 0.05190000
vn 0.52150000 0.84860000 0.08870000
vn 0.27610000 0.95940000 0.05690000
vn 0.59520000 0.79830000 0.09190000
vn 0.59790000 0.79670000 0.08810000
vn 0.27320000 0.96060000 0.05130000
vn 0.26840000 0.96190000 0.05120000
vn -0.15730000 0.98760000 -0.00130000
vn -0.17200000 0.98510000 0.00230000
vn -0.00380000 0.99980000 0.01910000
vn 0.27810000 0.95910000 0.05190000
vn -0.17200000 0.98510000 0.00230000
vn -0.15850000 0.98740000 0.00070000
vn -0.00380000 0.99980000 0.01910000
vn 0.26840000 0.96190000 0.05120000
vn -0.17660000 0.98430000 0.00170000
vn 0.27320000 0.96060000 0.05130000
vn -0.15850000 0.98740000 0.00070000
vn 0.26840000 0.96190000 0.05120000
vn 0.38910000 0.91760000 0.08070000
vn 0.26640000 0.96230000 0.05480000
vn 0.52150000 0.84860000 0.08870000
vn 0.27060000 0.96120000 0.05380000
vn 0.51970000 0.85010000 0.08450000
f 14//14 35//35 1//1
f 30//30 116//116 34//34
f 195//195 23//23 19//19
f 29//29 37//37 15//15
f 26//26 12//12 16//16
f 11//11 8//8 17//17
f 39//39 43//43 89//89
f 55//55 40//40 88//88
f 63//63 68//68 145//145
f 81//81 65//65 80//80
f 57//57 90//90 51//51
f 85//85 70//70 66//66
f 46//46 98//98 92//92
f 47//47 93//93 87//87
f 100//100 82//82 78//78
f 53//53 86//86 101//101
f 72//72 108//108 106//106
f 196//196 109//109 71//71
f 83//83 191//191 67//67
f 117//117 38//38 58//58
f 44//44 28//28 10//10
f 27//27 41//41 118//118
f 45//45 42//42 31//31
f 96//96 13//13 24//24
f 97//97 48//48 9//9
f 25//25 91//91 99//99
f 192//192 94//94 22//22
f 193//193 84//84 95//95
f 133//133 203//203 74//74
f 61//61 174//174 121//121
f 168//168 62//62 144//144
f 137//137 130//130 75//75
f 149//149 172//172 143//143
f 161//161 119//119 59//59
f 150//150 138//138 73//73
f 165//165 159//159 54//54
f 164//164 56//56 49//49
f 125//125 152//152 79//79
f 128//128 76//76 60//60
f 206//206 163//163 52//52
f 205//205 50//50 103//103
f 123//123 127//127 64//64
f 202//202 102//102 77//77
f 169//169 110//110 183//183
f 187//187 173//173 181//181
f 141//141 69//69 107//107
f 148//148 142//142 105//105
f 146//146 104//104 113//113
f 171//171 147//147 112//112
f 18//18 2//2 182//182
f 20//20 184//184 111//111
f 194//194 21//21 114//114
f 250//250 200//200 220//220
f 156//156 207//207 201//201
f 160//160 166//166 208//208
f 238//238 151//151 240//240
f 247//247 162//162 199//199
f 217//217 209//209 219//219
f 157//157 32//32 115//115
f 252//252 170//170 186//186
f 249//249 33//33 158//158
f 246//246 3//3 36//36
f 263//263 253//253 188//188
f 266//266 189//189 262//262
f 257//257 120//120 167//167
f 271//271 259//259 267//267
f 227//227 258//258 269//269
f 256//256 124//124 122//122
f 255//255 226//226 233//233
f 251//251 232//232 273//273
f 129//129 254//254 274//274
f 131//131 136//136 215//215
f 275//275 230//230 241//241
f 276//276 153//153 126//126
f 223//223 135//135 216//216
f 272//272 245//245 154//154
f 198//198 132//132 222//222
f 234//234 242//242 210//210
f 235//235 140//140 155//155
f 197//197 204//204 134//134
f 236//236 213//213 218//218
f 214//214 139//139 237//237
f 224//224 4//4 248//248
f 212//212 5//5 221//221
f 244//244 6//6 211//211
f 178//178 264//264 261//261
f 176//176 270//270 265//265
f 190//190 175//175 260//260
f 179//179 7//7 239//239
f 180//180 243//243 231//231
f 177//177 229//229 228//228
f 185//185 225//225 268//268
