mtllib material_0.mtl
usemtl material_0
v 0.08109800 0.07379600 -0.03403400
v 0.08109800 0.07379600 -0.03403400
v 0.10232300 0.06963300 -0.03110800
v 0.10232300 0.06963300 -0.03110800
v 0.08590100 0.07286400 -0.03457500
v 0.08590100 0.07286400 -0.03457500
v 0.09124200 0.07182300 -0.03440400
v 0.09124200 0.07182300 -0.03440400
v 0.10733400 0.06863000 -0.02792700
v 0.10733400 0.06863000 -0.02792700
v 0.11118900 0.06802700 -0.02450800
v 0.11118900 0.06802700 -0.02450800
v 0.11118900 0.06802700 -0.02450800
v 0.06141800 0.07755900 -0.02232100
v 0.06141800 0.07755900 -0.02232100
v 0.06519100 0.07684200 -0.02622200
v 0.06519100 0.07684200 -0.02622200
v 0.06906000 0.07610700 -0.02915400
v 0.06906000 0.07610700 -0.02915400
v 0.07443000 0.07507900 -0.03208100
v 0.07443000 0.07507900 -0.03208100
v 0.05359200 0.07916200 -0.00000100
v 0.05359200 0.07916200 -0.00000100
v 0.05359200 0.07916200 -0.00000100
v 0.05359200 0.07916200 -0.00000100
v 0.05359200 0.07916200 -0.00000100
v 0.05359200 0.07916200 -0.00000100
v 0.05359200 0.07916200 -0.00000100
v 0.05359200 0.07916200 -0.00000100
v 0.05359200 0.07916200 -0.00000100
v 0.05359200 0.07916200 -0.00000100
v 0.05359200 0.07916200 -0.00000100
v 0.05359200 0.07916200 -0.00000100
v 0.05359200 0.07916200 -0.00000100
v 0.05359200 0.07916200 -0.00000100
v 0.05359200 0.07916200 -0.00000100
v 0.09659400 0.07077400 -0.03329700
v 0.09659400 0.07077400 -0.03329700
v 0.05860200 0.07809500 -0.01837600
v 0.05860200 0.07809500 -0.01837600
v 0.05600000 0.07859800 -0.01332900
v 0.05600000 0.07859800 -0.01332900
v 0.05422300 0.07893700 -0.00758700
v 0.05422300 0.07893700 -0.00758700
v 0.05357800 0.07906300 -0.00340600
v 0.11480400 0.06679300 0.00000000
v 0.11480400 0.06679300 0.00000000
v 0.11480400 0.06679300 0.00000000
v 0.11480400 0.06679300 0.00000000
v 0.11829300 0.06490700 -0.01717400
v 0.11829300 0.06490700 -0.01717400
v 0.12215600 0.06215100 -0.01114100
v 0.12215600 0.06215100 -0.01114100
v 0.12385400 0.06093300 -0.00000100
v 0.12385400 0.06093300 -0.00000100
v 0.12385400 0.06093300 -0.00000100
v 0.12385400 0.06093300 -0.00000100
v 0.12385400 0.06093300 -0.00000100
v 0.12061300 0.06318500 -0.01412400
v 0.12061300 0.06318500 -0.01412400
v 0.12061300 0.06318500 -0.01412400
v 0.12352500 0.06128700 -0.00421700
v 0.12352500 0.06128700 -0.00421700
v 0.12313200 0.06152300 -0.00702100
v 0.12313200 0.06152300 -0.00702100
v 0.12361500 0.06114800 -0.00409300
v 0.05353700 0.07862000 -0.00000100
v 0.05353700 0.07862000 -0.00000100
v 0.05353700 0.07862000 -0.00000100
v 0.05353700 0.07862000 -0.00000100
v 0.05353700 0.07862000 -0.00000100
v 0.05353700 0.07862000 -0.00000100
v 0.05353700 0.07862000 -0.00000100
v 0.05353700 0.07862000 -0.00000100
v 0.05353700 0.07862000 -0.00000100
v 0.06210400 0.07730200 0.02331700
v 0.06210400 0.07730200 0.02331700
v 0.07521900 0.07478000 0.03236000
v 0.07521900 0.07478000 0.03236000
v 0.05712000 0.07829300 0.01604200
v 0.05712000 0.07829300 0.01604200
v 0.05446100 0.07879800 0.00896300
v 0.05446100 0.07879800 0.00896300
v 0.05360300 0.07897400 0.00432100
v 0.07074300 0.07565400 0.03021500
v 0.07074300 0.07565400 0.03021500
v 0.08864700 0.07225500 0.03463600
v 0.08864700 0.07225500 0.03463600
v 0.08864700 0.07225500 0.03463600
v 0.08114200 0.07361700 0.03406700
v 0.08114200 0.07361700 0.03406700
v 0.06699200 0.07638200 0.02774400
v 0.06699200 0.07638200 0.02774400
v 0.10986600 0.06800500 0.02591900
v 0.10986600 0.06800500 0.02591900
v 0.10517000 0.06896900 0.02943400
v 0.10517000 0.06896900 0.02943400
v 0.10127700 0.06973900 0.03154800
v 0.10127700 0.06973900 0.03154800
v 0.09605800 0.07078400 0.03346900
v 0.09605800 0.07078400 0.03346900
v 0.12385800 0.06083300 0.00000000
v 0.12385800 0.06083300 0.00000000
v 0.12385800 0.06083300 0.00000000
v 0.12199800 0.06217900 0.01200300
v 0.12199800 0.06217900 0.01200300
v 0.12199800 0.06217900 0.01200300
v 0.11379500 0.06709300 0.02181000
v 0.11379500 0.06709300 0.02181000
v 0.11938600 0.06398100 0.01602000
v 0.11938600 0.06398100 0.01602000
v 0.11498400 0.06665200 -0.00000000
v 0.11498400 0.06665200 -0.00000000
v 0.11498400 0.06665200 -0.00000000
v 0.11498400 0.06665200 -0.00000000
v 0.11498400 0.06665200 -0.00000000
v 0.11498400 0.06665200 -0.00000000
v 0.11498400 0.06665200 -0.00000000
v 0.11498400 0.06665200 -0.00000000
v 0.11498400 0.06665200 -0.00000000
v 0.12366100 0.06097200 0.00353100
v 0.12306600 0.06148300 0.00801500
v 0.12306600 0.06148300 0.00801500
vn 0.19040000 0.98170000 -0.00090000
vn 0.18820000 0.98210000 -0.00270000
vn 0.19400000 0.98100000 0.00340000
vn 0.19410000 0.98100000 0.00360000
vn 0.19120000 0.98160000 -0.00010000
vn 0.19040000 0.98170000 -0.00090000
vn 0.19120000 0.98160000 -0.00010000
vn 0.19220000 0.98140000 0.00100000
vn 0.19410000 0.98100000 0.00360000
vn 0.17840000 0.98360000 -0.02770000
vn 0.41550000 0.90950000 -0.01550000
vn 0.17840000 0.98360000 -0.02770000
vn 0.19800000 0.98000000 0.02010000
vn 0.17340000 0.98480000 -0.00990000
vn 0.17870000 0.98390000 -0.00800000
vn 0.18200000 0.98330000 -0.00650000
vn 0.17870000 0.98390000 -0.00800000
vn 0.18570000 0.98260000 -0.00450000
vn 0.18200000 0.98330000 -0.00650000
vn 0.18820000 0.98210000 -0.00270000
vn 0.18570000 0.98260000 -0.00450000
vn 0.17340000 0.98480000 -0.00990000
vn 0.19040000 0.98170000 -0.00090000
vn 0.16870000 0.98560000 -0.01120000
vn 0.12900000 0.99150000 -0.01870000
vn 0.00790000 0.99950000 -0.02900000
vn 0.19400000 0.98100000 0.00340000
vn 0.19800000 0.98000000 0.02010000
vn 0.19410000 0.98100000 0.00360000
vn 0.19120000 0.98160000 -0.00010000
vn 0.18570000 0.98260000 -0.00450000
vn 0.17840000 0.98360000 -0.02770000
vn 0.18820000 0.98210000 -0.00270000
vn 0.18200000 0.98330000 -0.00650000
vn 0.19220000 0.98140000 0.00100000
vn 0.17870000 0.98390000 -0.00800000
vn 0.19400000 0.98100000 0.00340000
vn 0.19220000 0.98140000 0.00100000
vn 0.17340000 0.98480000 -0.00990000
vn 0.16870000 0.98560000 -0.01120000
vn 0.16870000 0.98560000 -0.01120000
vn 0.12900000 0.99150000 -0.01870000
vn 0.00790000 0.99950000 -0.02900000
vn 0.12900000 0.99150000 -0.01870000
vn 0.00790000 0.99950000 -0.02900000
vn 0.19800000 0.98000000 0.02010000
vn 0.41550000 0.90950000 -0.01550000
vn 0.54350000 0.83930000 0.00910000
vn 0.57320000 0.81900000 0.02650000
vn 0.41550000 0.90950000 -0.01550000
vn 0.57320000 0.81900000 0.02650000
vn 0.45530000 0.88990000 0.02790000
vn 0.54500000 0.83840000 0.00860000
vn 0.84540000 0.53360000 -0.02130000
vn 0.00570000 0.99650000 0.08310000
vn 0.45530000 0.88990000 0.02790000
vn 0.54500000 0.83840000 0.00860000
vn 0.54350000 0.83930000 0.00910000
vn 0.57320000 0.81900000 0.02650000
vn 0.54350000 0.83930000 0.00910000
vn 0.54500000 0.83840000 0.00860000
vn 0.00570000 0.99650000 0.08310000
vn 0.84540000 0.53360000 -0.02130000
vn 0.00570000 0.99650000 0.08310000
vn 0.45530000 0.88990000 0.02790000
vn 0.84540000 0.53360000 -0.02130000
vn 0.24340000 0.96930000 -0.03460000
vn 0.17860000 0.98390000 -0.00020000
vn 0.57570000 0.81420000 -0.07550000
vn 0.20260000 0.97910000 -0.01930000
vn 0.19700000 0.98030000 -0.01570000
vn 0.20110000 0.97940000 -0.01850000
vn 0.19960000 0.97970000 -0.01750000
vn 0.31630000 0.94730000 -0.05140000
vn 0.19120000 0.98150000 -0.01340000
vn 0.24340000 0.96930000 -0.03460000
vn 0.20110000 0.97940000 -0.01850000
vn 0.19700000 0.98030000 -0.01570000
vn 0.19960000 0.97970000 -0.01750000
vn 0.31630000 0.94730000 -0.05140000
vn 0.24340000 0.96930000 -0.03460000
vn 0.57570000 0.81420000 -0.07550000
vn 0.31630000 0.94730000 -0.05140000
vn 0.57570000 0.81420000 -0.07550000
vn 0.20260000 0.97910000 -0.01930000
vn 0.19960000 0.97970000 -0.01750000
vn 0.17860000 0.98390000 -0.00020000
vn 0.19290000 0.98110000 -0.01200000
vn 0.19120000 0.98150000 -0.01340000
vn 0.17860000 0.98390000 -0.00020000
vn 0.19700000 0.98030000 -0.01570000
vn 0.20260000 0.97910000 -0.01930000
vn 0.20110000 0.97940000 -0.01850000
vn 0.21820000 0.97590000 -0.00780000
vn 0.19170000 0.98140000 -0.01340000
vn 0.18590000 0.98250000 -0.01540000
vn 0.19170000 0.98140000 -0.01340000
vn 0.19180000 0.98140000 -0.01270000
vn 0.18590000 0.98250000 -0.01540000
vn 0.19290000 0.98110000 -0.01200000
vn 0.19180000 0.98140000 -0.01270000
vn 0.54840000 0.83620000 -0.00880000
vn 0.69610000 0.71780000 0.01060000
vn 0.48350000 0.87510000 -0.02320000
vn 0.48350000 0.87510000 -0.02320000
vn 0.55390000 0.83250000 -0.01340000
vn 0.54840000 0.83620000 -0.00880000
vn 0.21820000 0.97590000 -0.00780000
vn 0.49370000 0.86960000 0.00940000
vn 0.55390000 0.83250000 -0.01340000
vn 0.49370000 0.86960000 0.00940000
vn 0.21820000 0.97590000 -0.00780000
vn 0.54840000 0.83620000 -0.00880000
vn 0.19170000 0.98140000 -0.01340000
vn 0.49370000 0.86960000 0.00940000
vn 0.55390000 0.83250000 -0.01340000
vn 0.19290000 0.98110000 -0.01200000
vn 0.19180000 0.98140000 -0.01270000
vn 0.18590000 0.98250000 -0.01540000
vn 0.19120000 0.98150000 -0.01340000
vn 0.69610000 0.71780000 0.01060000
vn 0.48350000 0.87510000 -0.02320000
vn 0.69610000 0.71780000 0.01060000
f 37//37 27//27 3//3
f 13//13 28//28 46//46
f 36//36 17//17 15//15
f 8//8 35//35 38//38
f 19//19 16//16 34//34
f 33//33 2//2 20//20
f 12//12 10//10 32//32
f 21//21 18//18 31//31
f 5//5 30//30 7//7
f 4//4 29//29 9//9
f 1//1 23//23 6//6
f 39//39 22//22 14//14
f 41//41 24//24 40//40
f 25//25 42//42 44//44
f 43//43 45//45 26//26
f 47//47 50//50 11//11
f 58//58 60//60 48//48
f 57//57 53//53 61//61
f 49//49 59//59 51//51
f 55//55 62//62 64//64
f 56//56 65//65 52//52
f 63//63 54//54 66//66
f 80//80 74//74 83//83
f 93//93 72//72 77//77
f 71//71 78//78 91//91
f 92//92 85//85 70//70
f 68//68 90//90 87//87
f 79//79 73//73 86//86
f 67//67 81//81 76//76
f 82//82 69//69 84//84
f 101//101 98//98 118//118
f 96//96 119//119 99//99
f 95//95 114//114 97//97
f 89//89 120//120 75//75
f 100//100 117//117 88//88
f 106//106 116//116 110//110
f 115//115 109//109 111//111
f 107//107 102//102 113//113
f 108//108 112//112 94//94
f 122//122 104//104 105//105
f 103//103 123//123 121//121
