mtllib material_0.mtl
usemtl material_0
v 0.08937000 0.07712300 0.02554700
v 0.08937000 0.07712300 0.02554700
v 0.08937000 0.07712300 0.02554700
v 0.08885500 0.07735300 0.02500000
v 0.08885500 0.07735300 0.02500000
v 0.08885500 0.07735300 0.02500000
v 0.08722100 0.07724700 0.02659100
v 0.08813200 0.07732100 0.02570800
v 0.08813200 0.07732100 0.02570800
v 0.08813200 0.07732100 0.02570800
v 0.08813200 0.07732100 0.02570800
v 0.08813200 0.07732100 0.02570800
v 0.08813200 0.07732100 0.02570800
v 0.08746500 0.07761000 0.02500000
v 0.08746500 0.07761000 0.02500000
v 0.08746500 0.07761000 0.02500000
v 0.08746500 0.07761000 0.02500000
v 0.08746500 0.07761000 0.02500000
v 0.08696300 0.07758100 0.02548900
v 0.08696300 0.07758100 0.02548900
v 0.08818700 0.07763200 0.02429300
v 0.08818700 0.07763200 0.02429300
v 0.08818700 0.07763200 0.02429300
v 0.08818700 0.07763200 0.02429300
v 0.08818700 0.07763200 0.02429300
v 0.08818700 0.07763200 0.02429300
v 0.08734500 0.07794800 0.02340900
v 0.08968600 0.07697400 0.02588400
v 0.08968600 0.07697400 0.02588400
v 0.08704800 0.07777700 0.02456100
v 0.08704800 0.07777700 0.02456100
v 0.08662600 0.07794100 0.02411600
v 0.08662600 0.07794100 0.02411600
v 0.08857000 0.07711300 0.02617400
v 0.08857000 0.07711300 0.02617400
v 0.08857000 0.07711300 0.02617400
v 0.08895900 0.07692100 0.02659100
v 0.08926000 0.07736400 0.02460300
v 0.08926000 0.07736400 0.02460300
v 0.08926000 0.07736400 0.02460300
v 0.08975600 0.07736900 0.02411600
v 0.08975600 0.07736900 0.02411600
v 0.08975600 0.07736900 0.02411600
v 0.08864800 0.07763300 0.02383900
v 0.08864800 0.07763300 0.02383900
v 0.08908400 0.07763100 0.02340900
v 0.08655700 0.07755200 0.02588400
v 0.08655700 0.07755200 0.02588400
vn 0.18430000 0.95040000 0.25040000
vn 0.18200000 0.95620000 0.22910000
vn 0.18380000 0.95070000 0.24960000
vn 0.17770000 0.96180000 0.20800000
vn 0.18200000 0.95620000 0.22910000
vn 0.17710000 0.95830000 0.22420000
vn 0.16800000 0.95290000 0.25240000
vn 0.17060000 0.95810000 0.23030000
vn 0.16740000 0.95520000 0.24390000
vn 0.18380000 0.95070000 0.24960000
vn 0.17710000 0.95830000 0.22420000
vn 0.18200000 0.95620000 0.22910000
vn 0.16800000 0.95290000 0.25240000
vn 0.17710000 0.95830000 0.22420000
vn 0.17770000 0.96180000 0.20800000
vn 0.17180000 0.96350000 0.20550000
vn 0.17850000 0.96080000 0.21230000
vn 0.17060000 0.95810000 0.23030000
vn 0.17060000 0.95810000 0.23030000
vn 0.16740000 0.95520000 0.24390000
vn 0.17180000 0.96350000 0.20550000
vn 0.18280000 0.96480000 0.18910000
vn 0.17850000 0.96080000 0.21230000
vn 0.18340000 0.96300000 0.19740000
vn 0.17100000 0.96790000 0.18410000
vn 0.16950000 0.96620000 0.19440000
vn 0.17100000 0.96790000 0.18410000
vn 0.18690000 0.94670000 0.26230000
vn 0.18430000 0.95040000 0.25040000
vn 0.17180000 0.96350000 0.20550000
vn 0.16950000 0.96620000 0.19440000
vn 0.17100000 0.96790000 0.18410000
vn 0.16950000 0.96620000 0.19440000
vn 0.18430000 0.95040000 0.25040000
vn 0.18380000 0.95070000 0.24960000
vn 0.18690000 0.94670000 0.26230000
vn 0.18690000 0.94670000 0.26230000
vn 0.17770000 0.96180000 0.20800000
vn 0.18340000 0.96300000 0.19740000
vn 0.17850000 0.96080000 0.21230000
vn 0.18340000 0.96300000 0.19740000
vn 0.18460000 0.96570000 0.18270000
vn 0.18280000 0.96480000 0.18910000
vn 0.18460000 0.96570000 0.18270000
vn 0.18280000 0.96480000 0.18910000
vn 0.18460000 0.96570000 0.18270000
vn 0.16800000 0.95290000 0.25240000
vn 0.16740000 0.95520000 0.24390000
f 8//8 18//18 19//19
f 25//25 27//27 32//32
f 5//5 12//12 2//2
f 6//6 14//14 11//11
f 3//3 10//10 35//35
f 38//38 15//15 4//4
f 40//40 23//23 17//17
f 41//41 24//24 39//39
f 45//45 22//22 43//43
f 21//21 30//30 16//16
f 28//28 36//36 37//37
f 46//46 44//44 42//42
f 13//13 47//47 7//7
f 33//33 31//31 26//26
f 1//1 34//34 29//29
f 20//20 48//48 9//9
