mtllib material_0.mtl
usemtl material_0
v 0.11308100 0.07180500 -0.00075400
v 0.11308100 0.07180500 -0.00075400
v 0.11373800 0.07140400 -0.00040000
v 0.11373800 0.07140400 -0.00040000
v 0.11373800 0.07140400 -0.00040000
v 0.11373800 0.07140400 -0.00040000
v 0.11331900 0.07165700 -0.00112600
v 0.11331900 0.07165700 -0.00112600
v 0.11331900 0.07165700 -0.00112600
v 0.11388500 0.07131000 -0.00060800
v 0.11388500 0.07131000 -0.00060800
v 0.11388500 0.07131000 -0.00060800
v 0.11519800 0.07044600 0.00008600
v 0.11519800 0.07044600 0.00008600
v 0.11519800 0.07044600 0.00008600
v 0.11519800 0.07044600 0.00008600
v 0.11591500 0.06994200 -0.00024100
v 0.11591500 0.06994200 -0.00024100
v 0.11591500 0.06994200 -0.00024100
v 0.11518000 0.07045900 -0.00020300
v 0.11518000 0.07045900 -0.00020300
v 0.11518000 0.07045900 -0.00020300
v 0.11575300 0.07005400 -0.00077100
v 0.11575300 0.07005400 -0.00077100
v 0.11575300 0.07005400 -0.00077100
v 0.11506800 0.07053400 -0.00048200
v 0.11506800 0.07053400 -0.00048200
v 0.11506800 0.07053400 -0.00048200
v 0.11549700 0.07023200 -0.00115900
v 0.11549700 0.07023200 -0.00115900
v 0.11549700 0.07023200 -0.00115900
v 0.11485400 0.07067800 -0.00071400
v 0.11485400 0.07067800 -0.00071400
v 0.11485400 0.07067800 -0.00071400
v 0.11485400 0.07067800 -0.00071400
v 0.11522800 0.07041600 -0.00139400
v 0.11522800 0.07041600 -0.00139400
v 0.11482900 0.07068500 -0.00160100
v 0.11482900 0.07068500 -0.00160100
v 0.11482900 0.07068500 -0.00160100
v 0.11456100 0.07087200 -0.00084200
v 0.11456100 0.07087200 -0.00084200
v 0.11456100 0.07087200 -0.00084200
v 0.11428000 0.07104700 -0.00164700
v 0.11428000 0.07104700 -0.00164700
v 0.11428000 0.07104700 -0.00164700
v 0.11428000 0.07104700 -0.00164700
v 0.11431700 0.07103200 -0.00084100
v 0.11431700 0.07103200 -0.00084100
v 0.11407900 0.07118600 -0.00076500
v 0.11407900 0.07118600 -0.00076500
v 0.11407900 0.07118600 -0.00076500
v 0.11292200 0.07190200 -0.00022300
v 0.11292200 0.07190200 -0.00022300
v 0.11292200 0.07190200 -0.00022300
v 0.11365200 0.07145800 -0.00008800
v 0.11365200 0.07145800 -0.00008800
v 0.11365200 0.07145800 -0.00008800
v 0.11375000 0.07138600 -0.00148800
v 0.11375000 0.07138600 -0.00148800
v 0.11375000 0.07138600 -0.00148800
v 0.11414600 0.07114300 0.00079700
v 0.11414600 0.07114300 0.00079700
v 0.11414600 0.07114300 0.00079700
v 0.11352000 0.07153200 0.00132400
v 0.11352000 0.07153200 0.00132400
v 0.11352000 0.07153200 0.00132400
v 0.11400800 0.07122200 0.00159700
v 0.11400800 0.07122200 0.00159700
v 0.11400800 0.07122200 0.00159700
v 0.11382600 0.07134700 0.00055400
v 0.11382600 0.07134700 0.00055400
v 0.11382600 0.07134700 0.00055400
v 0.11382600 0.07134700 0.00055400
v 0.11328300 0.07168000 0.00107600
v 0.11328300 0.07168000 0.00107600
v 0.11309400 0.07179600 0.00078300
v 0.11309400 0.07179600 0.00078300
v 0.11309400 0.07179600 0.00078300
v 0.11367100 0.07144600 0.00020300
v 0.11367100 0.07144600 0.00020300
v 0.11367100 0.07144600 0.00020300
v 0.11294600 0.07188700 0.00034000
v 0.11294600 0.07188700 0.00034000
v 0.11294600 0.07188700 0.00034000
v 0.11491300 0.07063900 0.00066700
v 0.11491300 0.07063900 0.00066700
v 0.11491300 0.07063900 0.00066700
v 0.11491300 0.07063900 0.00066700
v 0.11531900 0.07035500 0.00133000
v 0.11531900 0.07035500 0.00133000
v 0.11561600 0.07015000 0.00100700
v 0.11561600 0.07015000 0.00100700
v 0.11561600 0.07015000 0.00100700
v 0.11511500 0.07050300 0.00039600
v 0.11511500 0.07050300 0.00039600
v 0.11511500 0.07050300 0.00039600
v 0.11496000 0.07059700 0.00154500
v 0.11496000 0.07059700 0.00154500
v 0.11496000 0.07059700 0.00154500
v 0.11581700 0.07000900 0.00061700
v 0.11581700 0.07000900 0.00061700
v 0.11581700 0.07000900 0.00061700
v 0.11462500 0.07083000 0.00082600
v 0.11462500 0.07083000 0.00082600
v 0.11462500 0.07083000 0.00082600
v 0.11455800 0.07086500 0.00164800
v 0.11455800 0.07086500 0.00164800
v 0.11455800 0.07086500 0.00164800
v 0.11590900 0.06994600 0.00023300
v 0.11590900 0.06994600 0.00023300
v 0.11438400 0.07098900 0.00084900
v 0.11438400 0.07098900 0.00084900
v 0.11438400 0.07098900 0.00084900
vn 0.52110000 0.85350000 -0.00020000
vn 0.52280000 0.85240000 -0.00470000
vn 0.52020000 0.85400000 -0.00590000
vn 0.52110000 0.85350000 -0.00020000
vn 0.52280000 0.85240000 -0.00470000
vn 0.52720000 0.84970000 -0.00820000
vn 0.52720000 0.84970000 -0.00820000
vn 0.52690000 0.84990000 -0.00770000
vn 0.52280000 0.85240000 -0.00470000
vn 0.52720000 0.84970000 -0.00820000
vn 0.53400000 0.84550000 -0.00920000
vn 0.52690000 0.84990000 -0.00770000
vn 0.57590000 0.81750000 0.00060000
vn 0.57590000 0.81760000 0.00110000
vn 0.57330000 0.81940000 0.00560000
vn 0.57530000 0.81800000 -0.00150000
vn 0.57530000 0.81800000 -0.00190000
vn 0.57530000 0.81800000 -0.00150000
vn 0.57590000 0.81750000 0.00060000
vn 0.57180000 0.82040000 -0.00710000
vn 0.57530000 0.81800000 -0.00190000
vn 0.57530000 0.81800000 -0.00150000
vn 0.57320000 0.81940000 -0.00210000
vn 0.57530000 0.81800000 -0.00190000
vn 0.57180000 0.82040000 -0.00710000
vn 0.57320000 0.81940000 -0.00210000
vn 0.56510000 0.82500000 -0.00980000
vn 0.57180000 0.82040000 -0.00710000
vn 0.56750000 0.82330000 -0.00460000
vn 0.56510000 0.82500000 -0.00980000
vn 0.57320000 0.81940000 -0.00210000
vn 0.56200000 0.82710000 -0.00910000
vn 0.55500000 0.83180000 -0.00880000
vn 0.56750000 0.82330000 -0.00460000
vn 0.56510000 0.82500000 -0.00980000
vn 0.56750000 0.82330000 -0.00460000
vn 0.56200000 0.82710000 -0.00910000
vn 0.56200000 0.82710000 -0.00910000
vn 0.55500000 0.83180000 -0.00880000
vn 0.55070000 0.83460000 -0.01100000
vn 0.54830000 0.83620000 -0.00990000
vn 0.55500000 0.83180000 -0.00880000
vn 0.55070000 0.83460000 -0.01100000
vn 0.53690000 0.84360000 -0.01100000
vn 0.54140000 0.84070000 -0.00950000
vn 0.55070000 0.83460000 -0.01100000
vn 0.54830000 0.83620000 -0.00990000
vn 0.54830000 0.83620000 -0.00990000
vn 0.54140000 0.84070000 -0.00950000
vn 0.54140000 0.84070000 -0.00950000
vn 0.53690000 0.84360000 -0.01100000
vn 0.53400000 0.84550000 -0.00920000
vn 0.52020000 0.85400000 -0.00590000
vn 0.52110000 0.85350000 -0.00020000
vn 0.51930000 0.85460000 0.00050000
vn 0.51930000 0.85460000 0.00050000
vn 0.51970000 0.85440000 0.00120000
vn 0.52020000 0.85400000 -0.00590000
vn 0.53400000 0.84550000 -0.00920000
vn 0.52690000 0.84990000 -0.00770000
vn 0.53690000 0.84360000 -0.01100000
vn 0.53360000 0.84570000 0.00970000
vn 0.54330000 0.83950000 0.01080000
vn 0.53280000 0.84620000 0.00830000
vn 0.53360000 0.84570000 0.00970000
vn 0.52510000 0.85100000 0.00490000
vn 0.53280000 0.84620000 0.00830000
vn 0.54380000 0.83910000 0.01110000
vn 0.53280000 0.84620000 0.00830000
vn 0.54330000 0.83950000 0.01080000
vn 0.52510000 0.85100000 0.00490000
vn 0.52310000 0.85230000 0.00200000
vn 0.53360000 0.84570000 0.00970000
vn 0.52430000 0.85150000 0.00740000
vn 0.52310000 0.85230000 0.00200000
vn 0.52510000 0.85100000 0.00490000
vn 0.51960000 0.85440000 0.00100000
vn 0.52430000 0.85150000 0.00740000
vn 0.52310000 0.85230000 0.00200000
vn 0.51960000 0.85440000 0.00100000
vn 0.51970000 0.85440000 0.00120000
vn 0.52430000 0.85150000 0.00740000
vn 0.51960000 0.85440000 0.00100000
vn 0.51930000 0.85460000 0.00050000
vn 0.51970000 0.85440000 0.00120000
vn 0.56320000 0.82630000 0.00830000
vn 0.56720000 0.82350000 0.00970000
vn 0.55750000 0.83010000 0.00890000
vn 0.56960000 0.82190000 0.00250000
vn 0.56320000 0.82630000 0.00830000
vn 0.56960000 0.82190000 0.00250000
vn 0.56720000 0.82350000 0.00970000
vn 0.57420000 0.81870000 0.00130000
vn 0.56960000 0.82190000 0.00250000
vn 0.57420000 0.81870000 0.00130000
vn 0.57330000 0.81940000 0.00560000
vn 0.56720000 0.82350000 0.00970000
vn 0.55600000 0.83110000 0.00980000
vn 0.55750000 0.83010000 0.00890000
vn 0.56320000 0.82630000 0.00830000
vn 0.57420000 0.81870000 0.00130000
vn 0.57330000 0.81940000 0.00560000
vn 0.57590000 0.81760000 0.00110000
vn 0.54990000 0.83520000 0.00920000
vn 0.55600000 0.83110000 0.00980000
vn 0.55750000 0.83010000 0.00890000
vn 0.54380000 0.83910000 0.01110000
vn 0.54990000 0.83520000 0.00920000
vn 0.55600000 0.83110000 0.00980000
vn 0.57590000 0.81760000 0.00110000
vn 0.57590000 0.81750000 0.00060000
vn 0.54380000 0.83910000 0.01110000
vn 0.54990000 0.83520000 0.00920000
vn 0.54330000 0.83950000 0.01080000
f 8//8 12//12 60//60
f 9//9 2//2 5//5
f 7//7 6//6 10//10
f 22//22 16//16 18//18
f 21//21 17//17 24//24
f 28//28 20//20 25//25
f 31//31 26//26 23//23
f 35//35 27//27 30//30
f 36//36 34//34 29//29
f 38//38 32//32 37//37
f 39//39 42//42 33//33
f 47//47 48//48 41//41
f 46//46 43//43 40//40
f 45//45 50//50 49//49
f 61//61 51//51 44//44
f 53//53 58//58 3//3
f 1//1 54//54 4//4
f 59//59 11//11 52//52
f 64//64 67//67 69//69
f 73//73 65//65 62//62
f 76//76 66//66 71//71
f 79//79 75//75 72//72
f 78//78 74//74 82//82
f 83//83 77//77 80//80
f 85//85 81//81 57//57
f 55//55 84//84 56//56
f 89//89 91//91 94//94
f 97//97 87//87 92//92
f 86//86 100//100 90//90
f 95//95 93//93 101//101
f 105//105 109//109 98//98
f 106//106 99//99 88//88
f 14//14 103//103 110//110
f 15//15 96//96 102//102
f 13//13 111//111 19//19
f 112//112 68//68 107//107
f 113//113 108//108 104//104
f 63//63 70//70 114//114
