mtllib material_0.mtl
usemtl material_0
v 0.07656500 0.08026600 -0.00026800
v 0.07656500 0.08026600 -0.00026800
v 0.07656500 0.08026600 -0.00026800
v 0.07656500 0.08026600 -0.00026800
v 0.07656500 0.08026600 -0.00026800
v 0.07656500 0.08026600 -0.00026800
v 0.07781900 0.07978700 -0.00049700
v 0.07781900 0.07978700 -0.00049700
v 0.07781900 0.07978700 -0.00049700
v 0.07781900 0.07978700 -0.00049700
v 0.07781900 0.07978700 -0.00049700
v 0.07632800 0.07967200 -0.00098600
v 0.07632800 0.07967200 -0.00098600
v 0.07632800 0.07967200 -0.00098600
v 0.07872500 0.07892000 -0.00100100
v 0.07872500 0.07892000 -0.00100100
v 0.07899800 0.07911000 -0.00085900
v 0.07899800 0.07911000 -0.00085900
v 0.07899800 0.07911000 -0.00085900
v 0.07899800 0.07911000 -0.00085900
v 0.07899800 0.07911000 -0.00085900
v 0.07899800 0.07911000 -0.00085900
v 0.07899800 0.07911000 -0.00085900
v 0.07908400 0.07934400 -0.00059200
v 0.07908400 0.07934400 -0.00059200
v 0.07908400 0.07934400 -0.00059200
v 0.07908400 0.07934400 -0.00059200
v 0.07908400 0.07934400 -0.00059200
v 0.07878800 0.07890100 0.00100100
v 0.07878800 0.07890100 0.00100100
v 0.07878800 0.07890100 0.00100100
v 0.07878800 0.07890100 0.00100100
v 0.07912500 0.07916700 0.00078000
v 0.07912500 0.07916700 0.00078000
v 0.07912500 0.07916700 0.00078000
v 0.07912500 0.07916700 0.00078000
v 0.07912500 0.07916700 0.00078000
v 0.07912500 0.07916700 0.00078000
v 0.07912500 0.07916700 0.00078000
v 0.07935000 0.07930300 -0.00031300
v 0.07935000 0.07930300 -0.00031300
v 0.07935000 0.07930300 -0.00031300
v 0.07935000 0.07930300 -0.00031300
v 0.07935000 0.07930300 -0.00031300
v 0.07907100 0.07950100 -0.00018000
v 0.07907100 0.07950100 -0.00018000
v 0.07907100 0.07950100 -0.00018000
v 0.07907100 0.07950100 -0.00018000
v 0.07907100 0.07950100 -0.00018000
v 0.07907100 0.07950100 -0.00018000
v 0.07907100 0.07950100 -0.00018000
v 0.07950300 0.07870600 0.00068400
v 0.07950300 0.07870600 0.00068400
v 0.07950300 0.07870600 0.00068400
v 0.07923400 0.07942600 0.00023400
v 0.07923400 0.07942600 0.00023400
v 0.07923400 0.07942600 0.00023400
v 0.07923400 0.07942600 0.00023400
v 0.07923400 0.07942600 0.00023400
v 0.07923400 0.07942600 0.00023400
v 0.07963000 0.07905900 0.00011100
v 0.07963000 0.07905900 0.00011100
v 0.07963000 0.07905900 0.00011100
v 0.07963000 0.07905900 0.00011100
v 0.07963000 0.07905900 0.00011100
v 0.07963000 0.07905900 0.00011100
v 0.07963000 0.07905900 0.00011100
v 0.07922600 0.07877800 0.00089000
v 0.07922600 0.07877800 0.00089000
v 0.07969200 0.07864100 0.00031500
v 0.07969200 0.07864100 0.00031500
v 0.07972100 0.07863100 -0.00020500
v 0.07972100 0.07863100 -0.00020500
v 0.07972100 0.07863100 -0.00020500
v 0.07951500 0.07898400 -0.00053500
v 0.07951500 0.07898400 -0.00053500
v 0.07951500 0.07898400 -0.00053500
v 0.07951500 0.07898400 -0.00053500
v 0.07951500 0.07898400 -0.00053500
v 0.07951500 0.07898400 -0.00053500
v 0.07951500 0.07898400 -0.00053500
v 0.07947700 0.07870200 -0.00068600
v 0.07947700 0.07870200 -0.00068600
v 0.07911500 0.07881100 -0.00093800
v 0.07911500 0.07881100 -0.00093800
v 0.07911500 0.07881100 -0.00093800
v 0.07652300 0.08028200 0.00016900
v 0.07652300 0.08028200 0.00016900
v 0.07652300 0.08028200 0.00016900
v 0.07652300 0.08028200 0.00016900
v 0.07652300 0.08028200 0.00016900
v 0.07652300 0.08028200 0.00016900
v 0.07787900 0.07977900 0.00046900
v 0.07787900 0.07977900 0.00046900
v 0.07787900 0.07977900 0.00046900
v 0.07787900 0.07977900 0.00046900
v 0.07787900 0.07977900 0.00046900
v 0.07787900 0.07977900 0.00046900
v 0.07787900 0.07977900 0.00046900
v 0.07787900 0.07947000 0.00084700
v 0.07787900 0.07947000 0.00084700
v 0.07787900 0.07947000 0.00084700
v 0.07787900 0.07947000 0.00084700
v 0.07787900 0.07947000 0.00084700
v 0.07902100 0.07938200 0.00056600
v 0.07902100 0.07938200 0.00056600
v 0.07902100 0.07938200 0.00056600
v 0.07902100 0.07938200 0.00056600
v 0.07670600 0.08011500 0.00053400
v 0.07670600 0.08011500 0.00053400
v 0.07670600 0.08011500 0.00053400
v 0.07670600 0.08011500 0.00053400
v 0.07640200 0.07964800 0.00099500
v 0.07640200 0.07964800 0.00099500
v 0.07651300 0.07990400 0.00084800
v 0.07651300 0.07990400 0.00084800
v 0.07651300 0.07990400 0.00084800
v 0.07651300 0.07990400 0.00084800
v 0.07651300 0.07990400 0.00084800
v 0.07651300 0.07990400 0.00084800
v 0.07651300 0.07990400 0.00084800
v 0.07639500 0.08001300 -0.00077700
v 0.07639500 0.08001300 -0.00077700
v 0.07639500 0.08001300 -0.00077700
v 0.07639500 0.08001300 -0.00077700
v 0.07639500 0.08001300 -0.00077700
v 0.07639500 0.08001300 -0.00077700
v 0.07605300 0.08015400 -0.00046300
v 0.07605300 0.08015400 -0.00046300
v 0.07605300 0.08015400 -0.00046300
v 0.07605300 0.08015400 -0.00046300
v 0.07605300 0.08015400 -0.00046300
v 0.07605000 0.08025500 0.00012100
v 0.07605000 0.08025500 0.00012100
v 0.07605000 0.08025500 0.00012100
v 0.07605000 0.08025500 0.00012100
v 0.07605000 0.08025500 0.00012100
v 0.07605000 0.08025500 0.00012100
v 0.07620400 0.08010500 0.00062400
v 0.07620400 0.08010500 0.00062400
v 0.07620400 0.08010500 0.00062400
v 0.07620400 0.08010500 0.00062400
v 0.07620400 0.08010500 0.00062400
v 0.07620400 0.08010500 0.00062400
v 0.07579900 0.07984200 -0.00065800
v 0.07579900 0.07984200 -0.00065800
v 0.07579900 0.07984200 -0.00065800
v 0.07558400 0.07991800 -0.00013600
v 0.07558400 0.07991800 -0.00013600
v 0.07558400 0.07991800 -0.00013600
v 0.07562900 0.07990300 0.00035100
v 0.07562900 0.07990300 0.00035100
v 0.07562900 0.07990300 0.00035100
v 0.07596900 0.07978800 0.00081400
v 0.07596900 0.07978800 0.00081400
v 0.07596900 0.07978800 0.00081400
vn -0.05160000 0.99780000 -0.04210000
vn -0.14760000 0.97430000 -0.16990000
vn 0.28680000 0.90370000 -0.31800000
vn -0.02980000 0.89930000 -0.43640000
vn 0.29200000 0.95640000 -0.00810000
vn 0.23010000 0.83900000 -0.49310000
vn 0.28680000 0.90370000 -0.31800000
vn 0.24030000 0.74880000 -0.61780000
vn 0.23010000 0.83900000 -0.49310000
vn 0.28940000 0.89700000 -0.33420000
vn 0.19640000 0.70590000 -0.68050000
vn 0.13830000 0.45790000 -0.87820000
vn -0.31140000 0.54000000 -0.78200000
vn 0.14530000 0.49640000 -0.85590000
vn 0.24180000 0.33430000 -0.91090000
vn 0.13830000 0.45790000 -0.87820000
vn 0.19640000 0.70590000 -0.68050000
vn 0.55420000 0.40770000 -0.72570000
vn 0.24030000 0.74880000 -0.61780000
vn 0.14530000 0.49640000 -0.85590000
vn 0.13830000 0.45790000 -0.87820000
vn 0.24180000 0.33430000 -0.91090000
vn 0.53720000 0.54150000 -0.64670000
vn 0.28940000 0.89700000 -0.33420000
vn 0.53720000 0.54150000 -0.64670000
vn 0.19640000 0.70590000 -0.68050000
vn 0.45000000 0.83860000 -0.30700000
vn 0.59900000 0.64240000 -0.47800000
vn 0.16690000 0.49700000 0.85160000
vn 0.15200000 0.47710000 0.86560000
vn 0.13780000 0.44760000 0.88350000
vn 0.31850000 0.33390000 0.88720000
vn 0.31850000 0.33390000 0.88720000
vn 0.54620000 0.70890000 0.44620000
vn 0.21430000 0.73890000 0.63880000
vn 0.68370000 0.59650000 0.42040000
vn 0.72830000 0.49870000 0.46990000
vn 0.16690000 0.49700000 0.85160000
vn 0.61540000 0.35820000 0.70210000
vn 0.59900000 0.64240000 -0.47800000
vn 0.80220000 0.55950000 -0.20850000
vn 0.45000000 0.83860000 -0.30700000
vn 0.67590000 0.73660000 -0.02340000
vn 0.55560000 0.82850000 -0.06960000
vn 0.28680000 0.90370000 -0.31800000
vn 0.29200000 0.95640000 -0.00810000
vn 0.30980000 0.93590000 0.16740000
vn 0.28940000 0.89700000 -0.33420000
vn 0.45000000 0.83860000 -0.30700000
vn 0.55560000 0.82850000 -0.06960000
vn 0.26290000 0.96230000 0.07000000
vn 0.72830000 0.49870000 0.46990000
vn 0.61540000 0.35820000 0.70210000
vn 0.86550000 0.31650000 0.38820000
vn 0.26290000 0.96230000 0.07000000
vn 0.67590000 0.73660000 -0.02340000
vn 0.28950000 0.90660000 0.30710000
vn 0.55560000 0.82850000 -0.06960000
vn 0.54620000 0.70890000 0.44620000
vn 0.68370000 0.59650000 0.42040000
vn 0.91630000 0.34460000 -0.20400000
vn 0.72830000 0.49870000 0.46990000
vn 0.98410000 0.16990000 0.05180000
vn 0.67590000 0.73660000 -0.02340000
vn 0.68370000 0.59650000 0.42040000
vn 0.80220000 0.55950000 -0.20850000
vn 0.86550000 0.31650000 0.38820000
vn 0.31850000 0.33390000 0.88720000
vn 0.61540000 0.35820000 0.70210000
vn 0.98410000 0.16990000 0.05180000
vn 0.86550000 0.31650000 0.38820000
vn 0.89220000 0.11280000 -0.43740000
vn 0.98410000 0.16990000 0.05180000
vn 0.91630000 0.34460000 -0.20400000
vn 0.91630000 0.34460000 -0.20400000
vn 0.53720000 0.54150000 -0.64670000
vn 0.80220000 0.55950000 -0.20850000
vn 0.55420000 0.40770000 -0.72570000
vn 0.60450000 0.31010000 -0.73370000
vn 0.89220000 0.11280000 -0.43740000
vn 0.59900000 0.64240000 -0.47800000
vn 0.60450000 0.31010000 -0.73370000
vn 0.89220000 0.11280000 -0.43740000
vn 0.55420000 0.40770000 -0.72570000
vn 0.60450000 0.31010000 -0.73370000
vn 0.24180000 0.33430000 -0.91090000
vn -0.05160000 0.99780000 -0.04210000
vn 0.05210000 0.91740000 0.39450000
vn -0.08470000 0.94700000 0.30990000
vn 0.27790000 0.91820000 0.28220000
vn 0.29200000 0.95640000 -0.00810000
vn 0.30980000 0.93590000 0.16740000
vn 0.21080000 0.75630000 0.61930000
vn 0.26290000 0.96230000 0.07000000
vn 0.30980000 0.93590000 0.16740000
vn 0.28950000 0.90660000 0.30710000
vn 0.23900000 0.75130000 0.61520000
vn 0.24370000 0.72910000 0.63950000
vn 0.27790000 0.91820000 0.28220000
vn 0.15200000 0.47710000 0.86560000
vn 0.21080000 0.75630000 0.61930000
vn 0.16690000 0.49700000 0.85160000
vn 0.21430000 0.73890000 0.63880000
vn 0.23900000 0.75130000 0.61520000
vn 0.21430000 0.73890000 0.63880000
vn 0.21080000 0.75630000 0.61930000
vn 0.28950000 0.90660000 0.30710000
vn 0.54620000 0.70890000 0.44620000
vn 0.27790000 0.91820000 0.28220000
vn 0.08990000 0.80030000 0.59280000
vn 0.24370000 0.72910000 0.63950000
vn 0.05210000 0.91740000 0.39450000
vn -0.16720000 0.54460000 0.82190000
vn 0.13780000 0.44760000 0.88350000
vn 0.15200000 0.47710000 0.86560000
vn 0.24370000 0.72910000 0.63950000
vn -0.16720000 0.54460000 0.82190000
vn 0.13780000 0.44760000 0.88350000
vn 0.08990000 0.80030000 0.59280000
vn -0.17620000 0.59940000 0.78080000
vn 0.23900000 0.75130000 0.61520000
vn -0.02980000 0.89930000 -0.43640000
vn 0.14530000 0.49640000 -0.85590000
vn -0.32610000 0.67760000 -0.65920000
vn -0.31140000 0.54000000 -0.78200000
vn 0.24030000 0.74880000 -0.61780000
vn 0.23010000 0.83900000 -0.49310000
vn -0.02980000 0.89930000 -0.43640000
vn -0.52540000 0.83790000 -0.14780000
vn -0.14760000 0.97430000 -0.16990000
vn -0.60560000 0.71350000 -0.35240000
vn -0.32610000 0.67760000 -0.65920000
vn -0.05160000 0.99780000 -0.04210000
vn -0.61330000 0.78580000 0.08010000
vn -0.46150000 0.80100000 0.38120000
vn -0.52540000 0.83790000 -0.14780000
vn -0.14760000 0.97430000 -0.16990000
vn -0.08470000 0.94700000 0.30990000
vn 0.05210000 0.91740000 0.39450000
vn -0.17620000 0.59940000 0.78080000
vn -0.08470000 0.94700000 0.30990000
vn -0.49380000 0.68670000 0.53360000
vn -0.46150000 0.80100000 0.38120000
vn 0.08990000 0.80030000 0.59280000
vn -0.60560000 0.71350000 -0.35240000
vn -0.31140000 0.54000000 -0.78200000
vn -0.32610000 0.67760000 -0.65920000
vn -0.60560000 0.71350000 -0.35240000
vn -0.61330000 0.78580000 0.08010000
vn -0.52540000 0.83790000 -0.14780000
vn -0.49380000 0.68670000 0.53360000
vn -0.61330000 0.78580000 0.08010000
vn -0.46150000 0.80100000 0.38120000
vn -0.49380000 0.68670000 0.53360000
vn -0.16720000 0.54460000 0.82190000
vn -0.17620000 0.59940000 0.78080000
f 12//12 21//21 16//16
f 123//123 20//20 14//14
f 19//19 126//126 8//8
f 10//10 48//48 24//24
f 26//26 17//17 11//11
f 6//6 9//9 127//127
f 7//7 3//3 45//45
f 81//81 28//28 40//40
f 23//23 25//25 76//76
f 108//108 34//34 59//59
f 68//68 33//33 32//32
f 56//56 64//64 43//43
f 69//69 53//53 39//39
f 50//50 58//58 44//44
f 42//42 27//27 49//49
f 71//71 67//67 54//54
f 52//52 62//62 37//37
f 73//73 63//63 70//70
f 65//65 60//60 36//36
f 74//74 75//75 61//61
f 83//83 80//80 72//72
f 85//85 79//79 82//82
f 84//84 18//18 78//78
f 77//77 41//41 66//66
f 15//15 22//22 86//86
f 35//35 105//105 103//103
f 30//30 100//100 115//115
f 121//121 104//104 97//97
f 92//92 95//95 47//47
f 101//101 106//106 93//93
f 31//31 118//118 114//114
f 94//94 55//55 51//51
f 38//38 102//102 29//29
f 107//107 57//57 96//96
f 111//111 116//116 98//98
f 90//90 109//109 99//99
f 141//141 89//89 138//138
f 119//119 110//110 144//144
f 139//139 112//112 88//88
f 128//128 4//4 122//122
f 150//150 136//136 129//129
f 152//152 134//134 149//149
f 153//153 143//143 135//135
f 130//130 137//137 2//2
f 1//1 133//133 87//87
f 146//146 125//125 13//13
f 147//147 132//132 124//124
f 145//145 148//148 131//131
f 154//154 142//142 151//151
f 113//113 117//117 155//155
f 156//156 120//120 140//140
f 5//5 91//91 46//46
